{"glyphs":{"0":{"ha":626,"x_min":45,"x_max":586,"o":"m 322 886 q 430 857 382 886 q 506 781 477 827 q 553 674 534 735 q 579 558 572 614 q 586 447 586 503 q 543 174 586 280 q 439 22 499 67 q 318 -20 387 -20 q 208 11 257 -20 q 130 87 159 41 q 80 193 100 133 q 53 309 60 254 q 45 418 45 364 q 85 695 45 586 q 215 857 125 805 q 322 886 265 886 m 385 817 q 369 837 385 817 q 307 856 352 856 q 231 818 262 856 q 176 686 197 774 q 155 473 155 597 q 164 312 155 389 q 194 164 174 235 q 250 53 214 94 q 335 11 286 11 q 422 85 384 11 q 458 215 445 128 q 472 404 472 302 q 464 568 472 492 q 437 712 455 645 q 385 817 418 779 z "},"1":{"ha":626,"x_min":118,"x_max":500,"o":"m 118 4 q 150 21 118 16 q 236 52 217 35 q 260 118 254 68 q 268 494 268 198 q 265 754 268 712 q 257 771 264 763 q 243 782 250 780 q 168 798 211 792 q 147 812 147 800 q 171 827 147 822 q 342 873 294 846 q 370 886 361 886 q 376 881 373 886 q 379 868 379 875 q 379 847 379 861 q 377 794 378 833 q 375 715 376 755 q 375 425 374 647 q 376 151 375 203 q 377 109 377 123 q 381 80 378 96 q 390 59 385 65 q 406 46 394 54 q 431 36 418 39 q 468 28 444 33 q 500 9 500 22 q 493 -1 500 2 q 463 -4 486 -4 q 397 -2 437 -4 q 332 0 358 0 q 223 -4 294 0 q 151 -8 152 -8 q 118 4 118 -8 z "},"2":{"ha":626,"x_min":32,"x_max":606,"o":"m 300 886 q 453 821 393 886 q 513 663 513 755 q 484 535 513 599 q 397 395 456 471 q 163 113 323 300 q 164 105 161 110 q 170 100 168 100 q 467 89 283 89 q 517 102 486 89 q 571 144 547 115 q 597 168 589 168 q 604 164 602 168 q 605 151 606 161 q 597 129 604 142 q 546 9 564 68 q 537 -2 544 3 q 526 -7 531 -7 q 387 -3 524 -7 q 212 0 250 0 l 75 -1 q 32 11 32 -1 q 54 45 32 25 q 195 197 110 96 q 340 415 277 299 q 404 616 404 531 q 361 750 404 706 q 245 794 317 794 q 156 770 201 794 q 81 710 111 745 q 54 688 62 688 q 45 696 45 688 q 60 734 45 712 q 146 832 98 796 q 300 886 218 886 z "},"3":{"ha":626,"x_min":57,"x_max":575,"o":"m 322 886 q 449 837 403 886 q 496 729 496 788 q 492 694 496 711 q 483 664 488 677 q 467 635 478 650 q 449 610 456 619 q 427 585 442 600 q 404 564 411 570 q 378 542 396 557 q 354 521 359 526 q 353 514 353 519 q 357 509 353 509 l 376 509 q 462 489 416 509 q 538 432 508 469 q 564 375 553 410 q 575 309 575 340 q 518 128 575 208 q 364 -8 461 48 q 175 -64 269 -64 q 93 -46 128 -64 q 57 -4 57 -29 q 74 28 57 9 q 103 47 92 47 q 136 33 117 47 q 197 1 170 8 q 262 -7 224 -7 q 372 31 323 -7 q 445 123 420 69 q 469 233 469 178 q 421 386 469 330 q 362 426 395 415 q 275 436 330 436 q 193 418 242 436 q 181 418 187 416 q 175 424 175 420 q 187 443 175 433 q 214 460 199 453 q 309 514 271 486 q 365 569 347 541 q 391 620 384 596 q 397 672 397 644 q 361 767 397 732 q 262 803 325 803 q 183 781 224 803 q 111 728 142 759 q 96 720 103 720 q 90 727 91 720 q 93 741 89 734 q 128 785 109 763 q 176 831 147 806 q 244 871 205 856 q 322 886 282 886 z "},"4":{"ha":626,"x_min":18,"x_max":629,"o":"m 475 636 q 488 631 484 637 q 492 617 492 625 q 493 595 493 610 l 493 330 q 507 317 493 317 l 614 319 q 624 315 618 319 q 629 307 629 311 q 623 269 629 288 q 614 258 618 260 l 503 258 q 493 249 493 258 l 493 106 q 502 46 493 60 q 551 25 511 32 q 573 19 568 22 q 578 9 578 16 q 549 -4 578 -4 q 497 -2 532 -5 q 444 0 462 0 q 375 -3 419 0 q 310 -7 330 -7 q 283 4 283 -7 q 310 21 283 17 q 347 32 333 24 q 367 52 361 39 q 376 77 374 64 q 381 109 379 90 q 382 119 381 116 q 386 243 386 162 q 371 258 386 258 l 318 258 q 39 253 90 258 q 24 257 31 252 q 18 267 18 262 q 49 311 18 269 q 479 921 325 696 q 507 939 492 939 l 517 939 q 533 932 532 939 q 526 914 535 926 q 411 757 486 861 q 239 520 335 653 q 107 338 143 387 q 106 330 105 335 q 111 323 107 324 q 247 319 136 321 q 379 319 358 317 q 386 332 386 319 l 387 585 q 400 614 387 606 q 436 628 412 621 q 475 636 460 635 z "},"5":{"ha":626,"x_min":78,"x_max":559,"o":"m 559 262 q 437 28 559 130 q 291 -52 375 -25 q 131 -79 206 -79 q 103 -76 118 -79 q 87 -64 87 -72 q 121 -50 87 -54 q 200 -34 160 -45 q 286 -1 239 -24 q 368 51 333 21 q 427 129 403 81 q 450 235 450 177 q 301 433 450 373 q 267 448 283 441 q 233 459 250 454 q 204 468 216 465 q 175 476 193 472 q 151 482 158 480 q 125 487 143 484 q 103 492 107 491 q 85 501 93 494 q 78 519 78 509 q 103 661 78 560 q 149 807 127 761 q 189 842 159 827 q 326 869 212 852 q 489 886 441 886 q 503 876 503 886 q 478 807 503 844 q 428 768 453 771 q 289 756 385 762 q 179 747 193 749 q 163 737 172 747 q 151 720 155 728 q 133 659 142 693 q 123 619 123 624 q 167 590 123 600 q 209 579 171 589 q 272 562 248 569 q 332 543 296 555 q 393 517 368 530 q 559 262 559 432 z "},"6":{"ha":626,"x_min":40,"x_max":642,"o":"m 595 288 q 584 210 595 248 q 556 145 573 173 q 517 94 540 118 q 473 54 494 69 q 431 26 452 38 q 281 -17 353 -17 q 105 61 170 -17 q 40 257 40 138 q 62 416 40 338 q 119 557 84 495 q 200 677 153 619 q 292 775 248 734 q 383 848 336 815 q 518 926 450 897 q 624 956 587 956 q 642 950 642 956 q 624 932 642 939 q 386 770 493 871 q 222 538 288 675 q 157 261 157 402 q 176 150 157 201 q 237 66 195 100 q 339 32 279 32 q 397 43 371 32 q 439 73 422 54 q 468 117 456 92 q 484 171 479 143 q 489 229 489 199 q 447 357 489 304 q 338 410 404 410 q 256 393 316 410 q 245 391 251 390 q 240 396 240 392 q 249 415 240 405 q 269 433 257 426 q 411 484 349 484 q 543 426 491 484 q 595 288 595 368 z "},"7":{"ha":626,"x_min":20,"x_max":618,"o":"m 288 867 q 409 867 354 867 q 496 869 464 868 q 550 870 528 869 q 583 871 572 871 q 596 872 594 872 q 611 857 618 872 q 602 839 610 852 q 519 682 573 791 q 443 522 498 639 q 349 327 387 405 q 259 145 311 248 q 170 -29 208 43 q 151 -60 159 -52 q 129 -68 142 -68 q 115 -61 120 -68 q 125 -25 111 -50 q 327 360 192 90 q 518 757 462 631 q 517 761 519 759 q 511 764 515 764 q 321 766 426 766 q 119 764 142 766 q 57 713 96 761 q 32 692 43 692 q 32 729 20 692 q 53 794 41 751 q 66 856 64 837 q 72 868 67 862 q 81 873 77 873 q 114 872 87 873 q 187 868 140 870 q 288 867 234 867 z "},"8":{"ha":626,"x_min":78,"x_max":551,"o":"m 330 888 q 485 828 423 888 q 547 684 547 768 q 475 543 547 613 q 383 471 422 496 q 380 464 380 469 q 382 457 380 458 q 505 337 458 398 q 551 204 551 275 q 518 95 551 145 q 447 21 484 45 q 384 -8 421 4 q 318 -20 346 -20 q 149 35 220 -20 q 78 180 78 90 q 99 257 78 217 q 157 332 120 297 q 202 370 170 344 q 249 407 235 395 q 250 412 250 408 q 245 419 249 416 q 133 537 172 479 q 93 668 93 594 q 160 822 93 757 q 330 888 233 888 m 301 860 q 215 813 250 860 q 180 713 180 766 q 234 581 180 649 q 345 485 288 513 q 358 485 352 482 q 428 568 397 519 q 458 673 458 616 q 441 764 458 723 q 388 833 425 806 q 301 860 351 860 m 335 12 q 412 46 377 12 q 456 164 456 87 q 440 229 456 196 q 394 293 424 262 q 343 344 365 325 q 290 389 322 363 q 281 392 288 391 q 273 392 274 393 q 178 189 178 300 q 227 70 178 127 q 335 12 276 12 z "},"9":{"ha":626,"x_min":45,"x_max":586,"o":"m 334 886 q 516 807 446 886 q 586 606 586 728 q 569 469 586 538 q 526 346 552 401 q 475 253 499 292 q 428 187 451 215 q 135 -46 315 41 q 62 -71 87 -71 q 45 -61 45 -71 q 64 -41 45 -53 q 400 322 302 97 q 445 443 429 385 q 464 535 460 502 q 467 608 467 568 q 417 787 467 726 q 297 848 368 848 q 189 794 229 848 q 149 660 149 741 q 192 529 149 578 q 304 479 235 479 q 344 487 323 479 q 378 504 366 495 q 389 505 382 507 q 396 497 396 503 q 391 486 396 494 q 375 467 387 479 q 350 446 364 455 q 283 411 319 423 q 231 399 248 399 q 98 455 149 399 q 46 607 46 512 q 136 803 46 723 q 334 886 225 886 z "}," ":{"ha":262,"x_min":0,"x_max":0,"o":""},"!":{"ha":329,"x_min":118,"x_max":261,"o":"m 187 839 q 237 802 220 839 q 253 724 254 766 q 207 304 253 669 q 191 268 204 268 q 171 302 176 268 q 152 439 167 334 q 129 615 138 544 q 121 721 121 686 q 141 811 121 783 q 187 839 161 839 m 139 106 q 150 119 139 106 q 191 131 160 131 q 241 109 221 131 q 261 54 261 87 q 240 0 261 23 q 189 -22 220 -22 q 139 0 160 -22 q 118 53 118 22 q 139 106 118 81 z "},"\"":{"ha":363,"x_min":54,"x_max":309,"o":"m 129 953 q 146 899 146 953 q 133 800 146 871 q 109 690 120 728 q 97 663 104 673 q 85 652 90 653 q 77 660 81 652 q 74 677 74 667 q 57 880 71 795 q 61 899 54 892 q 95 935 75 917 q 129 953 115 953 m 293 960 q 309 907 309 960 q 295 810 309 884 q 271 697 282 737 q 263 676 267 686 q 255 663 258 667 q 249 659 251 659 q 239 667 243 659 q 235 685 235 675 q 221 895 235 809 q 225 913 218 906 q 258 943 237 927 q 293 960 279 960 z "},"#":{"ha":625,"x_min":49,"x_max":581,"o":"m 576 602 q 571 586 576 600 q 563 566 567 572 q 554 559 559 559 l 453 555 q 447 551 451 555 q 441 543 442 547 l 404 401 q 408 396 404 399 q 416 395 413 393 l 518 397 q 527 385 523 397 q 530 367 532 373 q 519 336 528 353 q 501 319 511 319 l 396 315 q 389 314 393 315 q 384 310 385 312 q 382 307 382 308 l 322 77 q 320 67 321 70 q 316 61 319 64 q 304 58 312 58 q 292 62 298 58 q 289 74 286 66 l 347 302 q 344 311 348 307 q 338 314 340 314 l 214 310 q 206 305 212 310 q 200 298 200 300 l 142 66 q 130 56 140 60 q 115 52 121 52 q 109 69 104 52 l 164 294 q 163 304 165 299 q 155 309 161 309 l 58 306 q 52 315 56 306 q 49 326 49 323 q 75 380 60 380 l 178 386 q 191 395 189 386 l 222 534 q 222 545 224 540 q 216 549 220 549 l 104 546 l 104 551 q 102 564 103 555 q 104 586 102 573 q 114 608 107 595 q 126 621 121 620 l 236 625 q 248 632 244 625 l 301 842 q 303 845 302 843 q 305 849 304 848 q 308 852 306 850 q 311 855 309 854 q 316 857 313 856 q 323 857 319 857 q 331 852 326 857 q 336 843 336 846 l 282 633 q 286 627 282 627 l 412 629 q 428 640 426 629 l 485 854 q 495 864 487 860 q 509 868 503 868 q 513 866 511 868 q 516 860 515 864 q 515 848 517 855 l 463 643 q 467 632 460 632 l 572 633 q 576 602 581 611 m 407 541 q 401 553 409 555 l 271 550 q 260 539 262 550 l 222 396 q 225 390 222 394 q 231 386 227 385 l 355 392 q 371 403 368 392 l 407 541 z "},"$":{"ha":626,"x_min":49,"x_max":574,"o":"m 364 971 q 367 976 364 973 q 371 978 370 978 q 387 974 379 978 q 393 965 395 969 l 383 875 q 389 868 383 868 q 434 861 410 865 q 485 849 458 856 q 514 842 512 842 q 526 828 522 840 q 538 782 532 814 q 543 733 543 751 q 534 689 543 689 q 524 692 526 689 q 517 705 521 694 q 449 812 486 786 q 385 836 435 822 q 378 827 381 836 l 343 515 q 349 504 343 507 q 524 379 473 439 q 574 237 574 318 q 475 58 574 125 q 398 23 447 39 q 294 4 349 7 q 286 -3 288 4 q 275 -113 279 -79 q 266 -118 273 -116 q 254 -119 259 -120 q 240 -114 248 -119 l 253 -12 q 249 4 256 4 q 169 18 218 7 q 87 39 119 28 q 66 69 73 41 q 56 139 62 88 q 49 204 49 191 q 60 231 49 231 q 75 210 71 231 q 150 82 98 124 q 250 35 191 47 q 256 37 253 34 q 258 41 258 39 l 300 392 q 289 408 300 401 q 229 444 253 429 q 176 484 205 460 q 129 531 146 508 q 100 586 112 554 q 87 653 87 618 q 151 798 87 736 q 233 846 178 825 q 346 867 288 866 q 350 869 348 867 q 353 872 353 871 l 364 971 m 349 831 q 342 838 349 838 q 223 792 265 833 q 182 677 182 751 q 215 593 182 629 q 307 524 248 556 q 312 524 309 523 q 314 528 314 526 l 349 831 m 293 37 q 298 31 293 31 q 425 84 375 39 q 475 203 475 129 q 444 301 475 259 q 340 383 413 344 q 335 381 338 384 q 330 375 332 378 l 293 37 z "},"%":{"ha":983,"x_min":56,"x_max":929,"o":"m 256 886 q 340 863 302 886 q 399 802 378 839 q 431 724 420 764 q 441 644 441 684 q 397 467 441 534 q 243 380 342 380 q 159 402 196 380 q 100 458 121 423 q 67 534 78 493 q 56 619 56 575 q 100 800 56 731 q 256 886 156 886 m 260 408 q 347 619 347 408 q 342 686 347 650 q 327 763 338 722 q 292 831 315 804 q 237 857 269 857 q 191 835 210 857 q 163 778 172 813 q 151 710 154 742 q 147 646 147 678 q 153 574 147 612 q 171 498 159 537 q 206 434 182 459 q 260 408 229 408 m 785 900 q 804 888 792 900 q 804 873 809 883 q 617 584 741 774 q 398 246 493 394 q 221 -33 302 98 q 211 -39 216 -39 q 193 -26 203 -39 q 192 -21 192 -24 q 193 -15 191 -19 q 196 -9 195 -12 q 198 -4 197 -7 l 200 -1 q 442 377 227 41 q 765 882 656 714 q 785 900 775 900 m 741 485 q 826 462 788 485 q 885 402 863 439 q 918 325 907 366 q 929 244 929 284 q 876 54 929 121 q 813 -1 846 18 q 736 -20 781 -20 q 647 3 686 -20 q 586 61 608 25 q 553 139 564 98 q 542 222 542 180 q 590 401 542 334 q 741 485 648 485 m 746 8 q 786 23 769 8 q 812 60 803 39 q 827 110 821 81 q 833 160 832 139 q 835 201 835 181 q 830 283 835 242 q 813 365 825 323 q 779 432 802 406 q 725 457 756 457 q 677 436 697 457 q 649 382 658 416 q 637 319 640 349 q 633 260 633 290 q 640 173 633 215 q 659 92 646 130 q 694 31 671 54 q 746 8 717 8 z "},"&":{"ha":1100,"x_min":54,"x_max":1060,"o":"m 354 869 q 475 824 426 869 q 522 717 524 779 q 517 691 522 704 q 508 669 513 678 q 491 648 503 659 q 472 630 479 636 q 449 613 465 624 q 427 600 433 603 q 403 586 421 596 q 383 575 385 576 q 385 567 378 573 q 642 292 505 471 q 648 291 644 290 q 654 294 652 292 q 749 433 701 355 q 808 536 798 511 q 823 583 822 564 q 809 608 824 600 q 758 623 795 616 q 739 630 747 625 q 732 640 732 635 q 739 650 732 646 q 760 654 747 654 l 843 654 q 933 659 865 654 q 1028 664 1002 664 q 1055 648 1055 664 q 1046 639 1055 644 q 1029 633 1038 635 q 927 597 964 625 q 829 489 891 570 q 669 258 787 437 q 671 239 665 249 q 745 122 719 148 q 909 52 815 52 q 1047 97 987 52 q 1056 94 1052 100 q 1059 83 1060 89 q 1028 39 1050 60 q 942 -17 987 2 q 817 -36 897 -36 q 685 -7 755 -36 q 670 7 680 -5 q 653 36 661 19 l 591 167 q 587 169 591 169 q 581 164 583 168 q 452 31 510 71 q 300 -21 376 -21 q 126 53 199 -21 q 57 231 54 127 q 79 326 58 275 q 147 424 100 378 q 262 518 205 479 q 262 528 267 523 q 189 604 212 566 q 167 686 166 641 q 183 761 168 730 q 232 822 199 793 q 354 869 292 869 m 361 75 q 477 107 424 75 q 566 193 530 139 q 564 208 568 204 q 441 365 525 275 q 298 494 357 456 q 273 496 281 504 q 196 413 226 464 q 165 306 166 362 q 179 207 163 252 q 221 135 195 161 q 290 91 251 107 q 361 75 328 75 m 345 846 q 279 809 304 846 q 253 725 254 772 q 278 646 251 682 q 349 591 305 610 q 367 593 361 587 q 416 646 396 611 q 436 708 436 680 q 408 806 438 767 q 345 846 377 846 z "},"'":{"ha":203,"x_min":55,"x_max":149,"o":"m 132 957 q 145 948 142 957 q 149 918 149 939 q 136 811 149 888 q 111 690 123 734 q 97 660 106 673 q 83 647 88 647 q 76 657 79 647 q 72 677 72 668 q 57 893 66 820 q 61 911 55 905 q 96 941 73 924 q 132 957 118 957 z "},"(":{"ha":468,"x_min":114,"x_max":411,"o":"m 174 396 q 189 194 174 286 q 234 26 203 103 q 304 -113 265 -51 q 399 -245 342 -176 q 406 -260 404 -252 q 404 -272 408 -269 q 380 -289 387 -289 q 338 -261 361 -289 q 168 35 222 -130 q 114 374 114 199 q 136 588 114 485 q 194 770 157 691 q 271 908 231 849 q 354 1011 310 966 q 395 1032 374 1032 q 404 1029 399 1032 q 408 1023 408 1027 q 396 1000 411 1015 q 236 741 298 903 q 174 396 174 579 z "},")":{"ha":468,"x_min":60,"x_max":354,"o":"m 294 347 q 279 549 294 458 q 234 717 264 640 q 164 857 203 794 q 69 989 125 919 q 62 1005 64 996 q 64 1017 60 1014 q 70 1022 66 1018 q 76 1027 74 1025 q 81 1030 78 1029 q 87 1032 85 1032 q 131 1004 107 1032 q 300 709 246 874 q 354 371 354 545 q 332 157 354 260 q 274 -26 311 54 q 198 -164 237 -105 q 114 -268 158 -224 q 74 -289 94 -289 q 64 -286 69 -289 q 60 -279 60 -283 q 72 -256 60 -269 q 232 2 170 -159 q 294 347 294 164 z "},"*":{"ha":408,"x_min":29,"x_max":387,"o":"m 186 951 q 198 943 192 951 q 207 922 204 935 q 211 899 208 916 q 218 858 214 882 q 225 806 222 833 q 228 801 225 803 q 233 802 231 800 q 329 865 294 848 q 359 865 359 882 q 342 836 359 852 q 253 766 314 812 q 254 758 247 763 q 363 693 333 717 q 379 664 387 674 q 350 664 373 654 q 239 713 314 674 q 233 712 235 715 q 231 707 231 709 l 231 596 q 216 562 229 562 q 199 591 205 562 q 183 708 187 639 q 182 710 183 709 q 179 713 181 712 q 174 711 177 713 q 69 654 115 673 q 46 649 56 648 q 35 656 36 650 q 53 681 33 665 q 143 745 60 687 q 145 749 144 746 q 142 754 145 753 q 49 807 76 788 q 29 831 29 820 q 31 836 29 834 q 35 839 32 838 q 40 840 37 840 q 47 839 43 840 q 53 838 51 838 q 59 836 56 837 q 62 835 62 835 q 170 794 103 823 q 174 795 172 793 q 176 803 176 798 q 174 925 171 874 q 186 951 176 951 z "},"+":{"ha":722,"x_min":64,"x_max":659,"o":"m 326 589 q 329 596 326 591 q 335 602 332 601 q 385 606 347 606 q 393 597 389 606 q 396 581 396 589 l 396 342 q 399 335 396 338 q 404 332 403 332 l 650 330 q 656 325 653 330 q 659 315 659 319 q 653 279 659 288 q 639 271 648 271 l 406 268 q 399 263 402 268 q 396 256 396 258 l 396 4 q 385 -12 396 -7 q 342 -18 366 -18 q 333 -14 337 -18 q 329 -3 329 -9 l 326 254 q 325 261 326 258 q 322 266 323 264 q 319 268 320 268 l 83 269 q 64 286 64 269 q 71 322 64 307 q 81 332 75 332 l 318 332 q 325 336 322 332 q 328 342 328 340 l 326 589 z "},",":{"ha":261,"x_min":40,"x_max":200,"o":"m 117 119 q 176 87 153 119 q 200 5 200 56 q 175 -78 200 -40 q 117 -134 150 -115 q 57 -153 85 -153 q 40 -146 40 -153 q 56 -132 40 -140 q 135 -29 135 -94 q 79 26 135 11 q 65 40 71 29 q 60 64 60 52 q 77 103 60 86 q 117 119 94 119 z "},"-":{"ha":408,"x_min":56,"x_max":353,"o":"m 79 304 q 205 321 98 308 q 340 336 313 334 q 349 330 346 336 q 353 319 353 324 q 347 277 353 286 q 338 269 345 273 q 329 264 332 264 q 197 249 306 260 q 71 237 89 237 q 60 243 64 237 q 56 254 56 248 q 64 293 56 277 q 72 300 66 296 q 79 304 77 304 z "},".":{"ha":261,"x_min":69,"x_max":196,"o":"m 131 117 q 177 97 159 117 q 196 50 196 78 q 178 2 196 21 q 131 -17 159 -17 q 87 2 104 -17 q 69 49 69 22 q 87 96 69 75 q 131 117 106 117 z "},"/":{"ha":565,"x_min":60,"x_max":500,"o":"m 62 -83 q 186 233 121 64 q 333 617 251 402 q 453 933 414 832 q 475 953 465 953 q 493 945 483 953 q 499 937 497 943 q 498 926 500 930 q 107 -87 120 -54 q 86 -114 96 -114 q 80 -112 83 -114 q 73 -106 77 -110 q 68 -102 69 -103 q 63 -95 65 -100 q 62 -83 60 -89 z "},":":{"ha":302,"x_min":89,"x_max":215,"o":"m 106 492 q 115 502 106 492 q 151 513 123 513 q 197 493 179 513 q 215 446 215 474 q 197 399 215 418 q 151 379 179 379 q 107 398 125 379 q 89 446 89 418 q 106 492 89 471 m 151 115 q 197 96 178 115 q 215 50 215 77 q 197 2 215 21 q 150 -17 178 -17 q 106 2 124 -17 q 89 49 89 22 q 107 95 89 75 q 151 115 125 115 z "},";":{"ha":302,"x_min":64,"x_max":216,"o":"m 106 492 q 115 502 106 492 q 151 513 123 513 q 197 493 179 513 q 215 446 215 474 q 197 399 215 418 q 151 379 179 379 q 107 398 125 379 q 89 446 89 418 q 106 492 89 471 m 138 115 q 194 85 171 115 q 216 5 216 54 q 170 -100 216 -57 q 81 -143 124 -143 q 64 -136 64 -143 q 81 -125 64 -130 q 136 -81 117 -106 q 154 -26 154 -55 q 102 26 154 13 q 88 40 94 29 q 82 62 82 51 q 99 99 82 83 q 138 115 116 115 z "},"<":{"ha":722,"x_min":119,"x_max":602,"o":"m 595 94 q 600 78 602 90 q 579 39 594 54 q 570 34 576 36 q 559 35 563 33 q 431 108 519 58 q 274 197 342 158 q 168 257 205 236 q 119 298 119 283 q 132 318 119 311 q 171 343 148 331 q 550 557 338 439 q 562 562 555 560 q 571 562 570 564 q 596 525 590 543 q 597 516 598 524 q 590 505 596 508 q 232 310 360 381 q 227 304 228 308 q 231 297 227 300 l 595 94 z "},"=":{"ha":722,"x_min":64,"x_max":659,"o":"m 643 215 q 652 210 648 215 q 657 200 657 205 q 652 163 657 174 q 645 156 650 159 q 639 153 641 153 l 81 153 q 70 156 75 153 q 64 163 64 159 q 68 204 64 195 q 73 211 69 208 q 79 215 77 215 l 643 215 m 81 449 l 650 447 q 656 441 653 447 q 659 432 659 435 q 653 396 659 405 q 639 387 648 387 l 83 386 q 64 403 64 386 q 71 439 64 423 q 76 446 73 442 q 81 449 79 449 z "},">":{"ha":722,"x_min":119,"x_max":602,"o":"m 126 501 q 121 518 119 505 q 142 557 127 542 q 151 561 144 559 q 161 561 158 563 q 553 339 483 378 q 602 297 602 313 q 589 278 602 286 q 550 253 573 265 q 171 39 346 136 q 159 34 166 35 q 150 33 151 32 q 125 71 131 52 q 124 80 123 72 q 131 90 125 87 q 489 286 321 193 q 490 298 500 292 l 126 501 z "},"?":{"ha":439,"x_min":94,"x_max":382,"o":"m 147 831 q 277 765 199 831 q 310 730 288 756 q 357 653 332 703 q 382 561 382 604 q 370 477 382 508 q 330 428 357 447 q 264 390 309 413 q 212 363 219 367 q 186 338 192 351 q 178 296 180 326 q 164 262 176 262 q 143 302 153 262 q 127 396 127 357 q 141 437 127 420 q 183 471 154 454 q 254 503 215 486 q 312 544 290 519 q 334 596 334 568 q 306 692 334 659 q 211 725 277 725 q 180 722 204 725 q 143 720 157 720 q 110 740 125 720 q 94 783 94 760 q 110 817 94 803 q 147 831 126 831 m 192 131 q 243 110 223 131 q 262 54 262 88 q 242 0 262 23 q 192 -22 222 -22 q 141 0 162 -22 q 119 53 119 22 q 140 106 119 81 q 192 131 161 131 z "},"@":{"ha":1129,"x_min":69,"x_max":1065,"o":"m 700 497 q 751 475 723 497 q 760 478 755 471 l 787 529 q 802 541 793 541 q 850 532 834 541 q 855 524 853 530 q 854 511 857 517 q 761 295 823 441 q 684 107 699 149 q 681 66 673 82 q 718 52 688 51 q 827 78 774 54 q 919 144 879 102 q 983 245 959 185 q 1007 375 1007 306 q 904 638 1007 541 q 633 736 801 736 q 462 707 541 736 q 326 626 383 677 q 229 507 269 575 q 168 358 188 438 q 149 193 149 279 q 163 73 149 133 q 212 -43 178 14 q 293 -143 245 -100 q 412 -213 340 -186 q 570 -239 484 -239 q 829 -170 725 -239 q 858 -161 856 -151 l 859 -165 q 851 -183 859 -172 q 836 -201 844 -195 q 699 -267 780 -246 q 541 -288 617 -288 q 400 -269 468 -288 q 271 -211 332 -250 q 166 -116 211 -172 q 95 21 121 -60 q 69 196 69 101 q 117 418 69 311 q 244 603 165 526 q 425 727 322 680 q 633 774 528 774 q 821 743 737 774 q 957 657 904 711 q 1038 533 1010 603 q 1065 382 1065 463 q 1037 250 1065 315 q 961 132 1009 184 q 841 46 913 79 q 689 14 770 14 q 587 47 587 14 q 597 89 587 65 q 640 192 603 104 q 640 198 642 196 q 633 196 637 200 q 475 68 557 123 q 351 14 393 14 q 311 33 326 14 q 297 81 297 53 q 324 176 297 111 q 408 311 351 241 q 549 442 469 387 q 700 497 629 497 m 657 456 q 614 446 634 456 q 566 410 594 436 q 454 258 503 351 q 404 107 404 165 q 424 79 404 79 q 444 85 430 79 q 486 110 457 90 q 547 160 515 130 q 638 264 590 198 q 711 380 686 331 q 717 414 721 397 q 694 443 711 431 q 657 456 677 456 z "},"A":{"ha":900,"x_min":7,"x_max":916,"o":"m 482 903 q 490 896 486 901 q 494 886 494 890 q 518 803 496 872 q 766 135 635 463 q 792 83 780 102 q 822 52 805 63 q 851 38 839 41 q 889 28 863 34 q 916 8 916 20 q 880 -7 916 -7 q 820 -3 876 -7 q 728 0 764 0 q 645 -1 694 0 q 585 -3 597 -3 q 554 12 554 -3 q 583 31 554 22 q 626 51 612 39 q 641 77 640 64 q 640 106 642 90 q 607 217 634 137 q 566 335 580 297 q 533 353 557 353 q 288 351 303 353 q 277 345 283 351 q 268 330 271 338 q 228 207 256 301 q 200 89 200 113 q 215 46 200 60 q 277 25 231 33 q 297 17 290 23 q 304 5 304 12 q 269 -7 304 -7 q 222 -3 252 -7 q 158 0 193 0 q 100 -3 136 0 q 46 -7 64 -7 q 7 5 7 -7 q 35 24 7 18 q 100 57 78 32 q 143 134 121 82 q 390 822 236 365 q 400 863 400 842 l 400 879 q 406 892 400 885 q 416 901 412 900 q 449 904 425 903 q 482 903 474 905 m 526 416 q 533 431 535 422 q 419 751 488 568 q 413 758 418 756 q 407 755 409 760 q 354 598 400 740 q 298 427 307 457 q 299 420 297 424 q 307 415 302 416 q 420 414 324 414 q 526 416 515 414 z "},"B":{"ha":777,"x_min":22,"x_max":728,"o":"m 728 268 q 709 169 728 213 q 656 96 690 125 q 583 46 623 66 q 493 14 543 26 q 374 -1 444 -1 q 308 -1 363 -1 q 216 0 253 0 q 127 -2 172 0 q 71 -4 83 -4 q 40 11 40 -4 q 75 29 40 21 q 130 60 115 39 q 147 143 144 81 q 151 478 151 207 q 151 552 151 511 q 151 614 151 593 q 151 662 151 635 q 151 702 151 688 q 150 732 151 716 q 149 760 150 749 q 147 782 149 771 q 124 844 143 828 q 58 863 106 859 q 22 878 22 865 q 56 893 22 893 l 140 895 q 228 899 149 895 q 357 903 307 903 q 555 861 481 903 q 630 785 608 831 q 653 693 653 739 q 533 514 653 570 q 532 509 530 512 q 536 505 534 505 q 676 415 625 478 q 728 268 728 352 m 538 694 q 507 798 538 756 q 431 858 477 840 q 330 876 386 876 q 283 867 305 876 q 278 862 281 865 q 271 849 275 859 q 267 828 267 840 q 265 734 267 812 q 262 606 263 656 q 264 525 262 555 q 265 518 264 522 q 273 510 266 515 q 293 505 281 505 q 421 524 372 505 q 538 694 538 568 m 606 252 q 528 413 606 353 q 332 472 450 472 q 271 467 283 472 q 262 447 262 465 q 265 132 260 267 q 289 78 268 91 q 406 32 357 32 q 548 95 491 32 q 606 252 606 158 z "},"C":{"ha":966,"x_min":64,"x_max":899,"o":"m 593 920 q 645 918 619 920 q 694 912 670 916 q 732 905 718 908 q 768 898 747 903 q 794 892 790 892 q 857 880 832 880 q 867 872 862 880 q 871 860 872 864 q 870 819 869 845 q 872 779 871 793 q 874 743 873 764 q 876 718 876 723 q 864 685 878 685 q 846 714 854 685 q 812 783 831 758 q 761 829 793 807 q 677 871 730 854 q 561 888 624 888 q 297 779 392 888 q 201 496 201 670 q 249 258 201 360 q 353 117 289 175 q 480 34 416 58 q 604 9 543 9 q 761 41 699 9 q 857 143 823 75 q 876 179 871 172 q 889 187 882 187 q 896 178 894 187 q 897 161 899 170 l 890 66 q 879 46 890 58 q 854 28 867 34 q 576 -28 739 -28 q 353 14 462 -28 q 172 139 245 55 q 91 280 119 200 q 64 441 64 361 q 112 653 64 555 q 261 821 160 751 q 593 920 404 920 z "},"D":{"ha":1033,"x_min":22,"x_max":971,"o":"m 444 905 q 629 886 544 905 q 789 817 714 867 q 921 668 870 762 q 971 465 971 574 q 944 307 971 382 q 871 176 918 232 q 765 78 825 119 q 636 14 705 37 q 424 -16 549 -16 q 294 -8 381 -16 q 167 0 206 0 q 104 -1 141 0 q 57 -3 67 -3 q 22 12 22 -3 q 54 29 22 23 q 131 57 112 40 q 150 126 149 73 q 151 452 151 215 q 144 786 151 692 q 128 838 142 822 q 77 861 114 853 q 43 878 43 868 q 77 893 43 893 l 171 893 q 295 899 203 893 q 444 905 386 905 m 422 876 q 354 872 386 876 q 309 863 323 867 q 290 856 294 859 q 281 849 284 852 q 275 833 279 846 q 269 799 271 820 q 265 587 265 695 l 265 411 q 281 119 265 205 q 294 77 287 92 q 321 52 302 62 q 460 12 397 12 q 545 23 498 12 q 627 52 591 34 q 782 201 729 98 q 835 447 835 304 q 807 590 835 503 q 724 739 779 677 q 590 842 662 808 q 422 876 518 876 z "},"E":{"ha":777,"x_min":0,"x_max":757,"o":"m 31 886 q 69 897 31 897 q 135 895 79 897 q 221 893 191 893 l 387 893 q 492 895 446 893 q 556 899 538 897 q 603 905 573 901 q 635 909 633 909 q 645 902 639 909 q 652 889 652 894 q 659 829 652 888 q 665 749 665 770 q 659 733 665 741 q 648 725 653 725 q 624 775 638 725 q 591 828 614 812 q 524 848 568 844 q 294 852 475 852 q 278 827 283 852 q 272 514 272 795 q 276 497 272 505 q 283 490 279 490 l 359 490 q 461 496 429 490 q 509 519 493 503 q 534 572 525 536 q 542 592 536 583 q 553 602 548 602 q 567 568 569 602 q 564 465 564 492 q 570 346 564 412 q 566 325 570 332 q 557 318 562 318 q 534 353 543 318 q 511 411 526 391 q 458 435 495 431 q 296 441 382 441 q 277 435 283 441 q 272 421 272 428 l 272 163 q 276 108 272 125 q 289 82 279 92 q 310 62 306 66 q 330 53 314 59 q 367 46 347 47 q 431 46 387 46 q 502 46 478 46 q 554 47 526 47 q 595 51 583 48 q 623 57 608 54 q 646 68 638 61 q 662 82 654 75 q 679 103 670 90 q 720 167 705 136 q 746 199 735 199 q 754 189 751 199 q 757 172 757 180 q 739 100 757 163 q 715 20 721 37 q 682 -8 706 -10 q 193 0 574 0 q 99 -5 155 0 q 29 -11 44 -11 q 0 3 0 -11 q 35 21 0 14 q 120 56 96 33 q 151 140 144 78 q 158 475 158 197 q 155 770 158 721 q 153 794 155 783 q 149 813 151 805 q 141 828 146 821 q 133 840 136 836 q 121 849 130 844 q 110 855 113 853 q 95 860 106 857 q 79 864 83 863 q 61 868 75 865 q 31 886 31 875 z "},"F":{"ha":691,"x_min":28,"x_max":640,"o":"m 210 893 l 525 893 q 586 897 550 893 q 624 901 623 901 q 632 896 627 901 q 637 884 637 890 q 639 820 637 865 q 640 754 640 774 q 635 734 640 743 q 627 726 631 726 q 611 755 618 726 q 574 828 599 812 q 486 850 550 844 q 430 852 464 852 q 349 852 397 852 q 286 851 300 851 q 268 827 271 851 q 264 494 264 724 q 268 487 264 491 q 279 482 271 482 q 345 484 289 482 q 441 485 400 485 q 511 500 492 486 q 543 555 531 514 q 564 585 551 585 q 576 555 576 585 q 573 515 576 549 q 571 463 570 481 q 574 414 572 444 q 576 367 576 384 q 561 330 576 330 q 542 358 550 330 q 532 393 536 382 q 516 415 528 405 q 488 427 505 425 q 277 433 434 433 q 264 412 264 433 q 267 121 264 163 q 283 52 271 66 q 353 29 296 38 q 385 11 385 24 q 375 0 385 5 q 354 -4 365 -4 q 294 -2 345 -4 q 211 0 243 0 q 122 -2 180 0 q 57 -4 64 -4 q 28 8 28 -4 q 31 15 28 12 q 39 20 34 18 q 53 25 43 22 q 122 53 107 37 q 143 115 137 68 q 151 517 151 179 q 147 764 151 670 q 131 843 145 823 q 61 868 116 862 q 33 884 33 871 q 72 897 33 897 q 137 895 90 897 q 210 893 184 893 z "},"G":{"ha":1014,"x_min":64,"x_max":958,"o":"m 608 920 q 772 900 677 920 q 873 900 827 888 q 882 896 877 901 q 886 886 887 891 q 884 824 884 842 q 888 763 884 806 q 892 701 891 719 q 879 667 894 667 q 859 707 867 667 q 831 771 852 736 q 777 832 811 807 q 686 871 746 855 q 564 886 627 887 q 365 830 448 885 q 243 686 283 776 q 204 481 204 596 q 232 300 204 385 q 311 150 260 215 q 442 46 363 85 q 616 8 521 8 q 755 45 728 8 q 785 174 785 78 q 779 279 785 241 q 750 323 774 309 q 664 346 726 338 q 639 353 646 349 q 632 366 632 357 q 643 375 632 371 q 668 378 654 378 q 731 375 683 377 q 810 372 779 372 q 880 375 834 372 q 933 378 925 378 q 948 376 943 378 q 956 372 954 375 q 958 368 958 369 q 958 363 958 366 q 935 345 958 353 q 910 332 916 340 q 903 307 905 324 q 899 273 900 292 q 897 243 897 254 q 897 210 897 233 q 897 179 897 186 q 902 91 897 116 q 925 56 907 65 q 939 40 939 47 q 920 25 939 31 q 844 9 894 21 q 793 -3 794 -3 q 607 -28 680 -28 q 370 13 475 -28 q 193 123 265 54 q 64 450 64 253 q 121 661 64 560 q 265 821 179 761 q 608 920 402 920 z "},"H":{"ha":1093,"x_min":43,"x_max":1053,"o":"m 45 884 q 77 896 45 896 q 140 895 97 896 q 196 893 182 893 q 257 895 206 893 q 334 896 309 896 q 366 882 366 896 q 336 865 366 869 q 287 845 303 860 q 268 798 271 831 q 265 507 264 738 q 269 489 265 498 q 278 481 273 481 l 810 481 q 821 485 816 481 q 827 497 827 489 q 825 757 827 688 q 807 836 823 814 q 741 867 790 857 q 710 882 710 873 q 745 896 710 896 q 809 895 765 896 q 872 893 853 893 q 944 895 894 893 q 1015 896 994 896 q 1040 882 1040 896 q 1004 864 1040 871 q 958 842 971 857 q 942 785 944 826 q 939 397 939 740 q 941 230 939 294 q 946 151 944 165 q 953 103 947 137 q 975 50 959 66 q 1028 25 991 33 q 1053 9 1053 18 q 1021 -7 1053 -7 q 957 -3 1006 -7 q 882 0 908 0 q 808 -1 853 0 q 746 -3 764 -3 q 713 11 713 -3 q 750 32 713 24 q 805 57 790 41 q 823 125 821 74 q 827 397 827 202 q 824 410 826 405 q 819 417 821 416 q 815 419 817 419 l 278 419 q 270 413 274 419 q 265 400 265 406 q 272 151 262 242 q 291 60 278 79 q 361 28 304 41 q 386 8 386 23 q 357 -4 386 -4 q 296 -2 353 -4 q 207 0 239 0 q 139 -4 187 0 q 77 -8 90 -8 q 43 7 43 -8 q 51 17 43 12 q 69 25 59 23 q 125 46 108 33 q 146 89 142 60 q 151 410 151 136 q 143 774 151 679 q 139 805 141 794 q 133 828 138 815 q 122 847 129 840 q 102 859 115 853 q 72 867 90 864 q 52 874 59 869 q 45 884 45 880 z "},"I":{"ha":408,"x_min":35,"x_max":386,"o":"m 151 465 q 150 726 151 676 q 141 819 146 801 q 99 857 132 847 q 72 864 88 861 q 41 880 41 869 q 82 895 41 895 q 140 894 100 895 q 196 893 180 893 q 270 894 222 893 q 347 895 318 895 q 375 884 375 895 q 347 867 375 872 q 289 844 302 857 q 272 785 276 831 q 261 472 261 685 q 272 115 261 286 q 290 62 275 76 q 351 33 306 48 q 359 31 357 31 q 381 20 376 25 q 386 8 386 15 q 357 -4 386 -4 q 294 -2 349 -4 q 199 0 240 0 q 130 -2 178 0 q 64 -4 83 -4 q 35 8 35 -4 q 44 22 35 17 q 74 33 53 28 q 128 57 114 43 q 144 110 142 72 q 151 465 151 196 z "},"J":{"ha":394,"x_min":-139,"x_max":367,"o":"m 24 886 q 57 899 24 899 q 126 896 74 899 q 207 893 179 893 q 279 895 235 893 q 336 897 323 897 q 367 885 367 897 q 338 867 367 873 q 281 832 292 855 q 269 729 271 809 q 268 481 269 668 q 267 227 267 294 q 218 -96 265 5 q 98 -253 176 -193 q -53 -313 20 -313 q -113 -297 -87 -313 q -139 -262 -139 -281 q -134 -248 -139 -258 q -126 -235 -130 -238 q -121 -229 -124 -233 q -66 -187 -79 -188 q -33 -199 -54 -187 q 50 -228 26 -228 q 83 -218 66 -228 q 111 -191 100 -208 q 137 -129 129 -159 q 149 -18 144 -98 q 153 221 153 61 q 147 717 153 543 q 138 806 146 777 q 112 847 130 835 q 56 868 95 860 q 24 886 24 873 z "},"K":{"ha":935,"x_min":33,"x_max":972,"o":"m 41 884 q 71 896 41 896 q 141 895 89 896 q 211 893 194 893 q 273 895 227 893 q 345 897 319 897 q 372 885 372 897 q 363 874 372 880 q 339 865 353 868 q 286 847 300 859 q 269 810 271 835 q 261 501 261 667 q 269 484 261 484 q 306 509 275 484 q 612 775 409 592 q 646 819 642 803 q 635 843 650 835 q 581 860 621 852 q 546 878 546 865 q 585 893 546 893 q 808 900 718 893 q 886 904 867 904 q 906 901 897 904 q 916 892 916 897 q 878 872 916 878 q 770 836 817 861 q 654 758 724 811 q 389 525 571 691 q 385 518 386 522 q 386 514 385 515 q 766 102 692 167 q 945 18 837 41 q 972 -1 972 15 q 937 -14 972 -14 q 814 -7 902 -14 q 699 0 726 0 q 639 -2 667 0 q 608 -4 610 -4 q 575 11 575 -4 q 584 22 575 16 q 607 29 593 27 q 638 39 631 33 q 642 54 646 46 q 625 74 638 61 q 537 174 594 109 q 451 273 480 239 q 379 352 421 306 q 301 435 337 398 q 286 447 296 441 q 269 453 275 453 q 261 436 261 453 q 267 138 261 199 q 284 60 270 82 q 345 31 298 38 q 379 9 379 24 q 346 -4 379 -4 q 282 -2 330 -3 q 208 0 234 0 q 132 -3 176 0 q 72 -7 87 -7 q 33 5 33 -7 q 66 28 33 20 q 130 58 115 40 q 147 118 144 77 q 151 467 151 182 q 144 774 151 678 q 129 837 142 820 q 82 863 116 854 q 41 884 41 871 z "},"L":{"ha":744,"x_min":12,"x_max":737,"o":"m 28 885 q 56 896 28 896 q 112 895 67 896 q 187 893 156 893 q 274 895 219 893 q 349 896 328 896 q 367 893 359 896 q 376 888 374 890 q 378 884 378 886 q 349 865 378 871 q 291 843 307 856 q 271 799 275 830 q 264 378 264 695 q 271 140 264 247 q 288 76 274 93 q 347 56 302 60 q 587 54 514 44 q 648 85 622 59 q 700 161 675 111 q 728 200 717 200 q 737 172 737 200 q 728 130 737 163 q 707 57 718 96 q 693 9 695 19 q 644 -4 686 -4 q 398 -2 562 -4 q 203 0 235 0 q 116 -2 172 0 q 45 -4 60 -4 q 12 11 12 -4 q 41 29 12 24 q 122 58 101 41 q 146 122 143 75 q 151 460 151 214 q 150 771 151 720 q 131 835 149 813 q 61 864 113 857 q 28 885 28 869 z "},"M":{"ha":1198,"x_min":20,"x_max":1177,"o":"m 52 886 q 82 896 52 896 q 157 895 87 896 q 271 893 227 893 q 280 887 275 893 q 285 876 285 881 q 368 672 290 844 q 468 458 373 663 q 599 189 564 254 q 602 188 600 187 q 608 190 605 188 q 612 195 611 192 q 747 471 642 249 q 884 751 852 692 q 909 815 893 770 q 932 876 925 861 q 938 887 933 881 q 947 893 943 893 q 1132 895 1021 895 q 1160 885 1160 895 q 1131 865 1160 872 q 1078 852 1098 860 q 1048 835 1058 845 q 1036 816 1039 825 q 1034 791 1034 806 q 1033 546 1031 659 q 1041 336 1036 433 q 1046 228 1046 239 q 1048 156 1047 183 q 1055 106 1050 129 q 1065 72 1060 83 q 1083 52 1071 61 q 1108 38 1096 42 q 1145 29 1121 35 q 1177 7 1177 22 q 1168 -4 1177 -1 q 1135 -7 1160 -7 q 1057 -3 1118 -7 q 966 0 996 0 q 908 -2 943 0 q 859 -4 872 -4 q 833 -1 839 -4 q 827 11 827 3 q 856 31 827 24 q 907 58 890 37 q 926 121 924 78 q 931 317 931 249 q 928 520 930 385 q 925 729 925 654 q 920 735 925 734 l 918 734 q 829 551 888 676 q 713 303 770 426 q 647 161 656 180 q 587 17 613 87 q 562 -20 575 -20 q 548 -5 556 -20 q 534 26 540 9 q 524 52 532 35 q 502 105 517 68 q 469 183 486 142 q 366 421 442 244 q 244 697 289 597 q 227 689 233 720 q 225 679 226 684 q 212 425 219 619 q 204 153 204 231 q 205 124 204 137 q 209 102 206 112 q 214 84 212 92 q 222 71 216 77 q 232 62 229 65 q 244 54 235 58 q 258 47 254 50 q 275 41 262 45 q 293 35 287 37 q 326 11 326 22 q 290 -4 326 -4 q 245 -2 288 -4 q 164 0 201 0 q 93 -3 128 0 q 56 -7 58 -7 q 20 7 20 -7 q 21 13 20 10 q 24 17 22 16 q 29 21 25 19 q 36 23 33 22 q 45 27 39 24 q 54 31 51 29 q 119 71 103 47 q 144 164 136 94 q 172 467 158 272 q 186 764 186 662 q 173 807 186 780 q 146 842 161 834 q 74 867 131 850 q 52 886 52 874 z "},"N":{"ha":1009,"x_min":14,"x_max":979,"o":"m 14 884 q 46 897 14 897 q 123 895 56 897 q 218 893 190 893 q 253 871 231 893 q 285 831 260 863 q 334 771 310 799 q 800 220 798 223 q 807 221 803 217 q 811 228 811 224 q 814 442 814 283 q 812 669 814 600 q 811 718 812 690 q 810 755 811 746 q 807 779 810 764 q 800 811 805 793 q 773 844 795 831 q 704 867 751 857 q 675 885 675 873 q 703 896 675 896 q 755 895 705 896 q 832 893 805 893 q 898 895 859 893 q 946 896 937 896 q 979 886 979 896 q 950 867 979 873 q 890 831 906 856 q 871 757 874 806 q 861 300 861 631 q 863 153 861 252 q 864 1 864 54 q 861 -16 864 -9 q 856 -25 859 -23 q 851 -26 853 -26 q 821 -11 836 -26 q 799 17 816 -6 q 749 82 782 39 q 682 167 717 124 q 459 437 612 252 q 221 726 305 623 q 215 732 217 730 q 211 734 213 734 q 208 733 209 735 q 207 728 208 732 q 201 536 201 694 q 208 149 201 264 q 230 73 212 94 q 304 35 248 52 q 343 12 343 23 q 310 -4 343 -4 q 249 -2 298 -4 q 175 0 201 0 q 113 -2 146 0 q 62 -4 79 -4 q 25 9 25 -4 q 60 32 25 24 q 120 64 104 43 q 140 138 136 84 q 150 389 145 193 q 155 729 155 585 q 149 792 155 773 q 123 832 143 810 q 41 868 100 857 q 14 884 14 873 z "},"O":{"ha":1076,"x_min":64,"x_max":1013,"o":"m 529 918 q 713 884 625 918 q 868 790 802 850 q 973 643 934 730 q 1013 454 1013 555 q 996 317 1013 380 q 949 207 979 254 q 885 125 918 159 q 810 61 852 92 q 681 -5 753 18 q 558 -28 609 -28 q 311 34 424 -28 q 131 207 198 96 q 64 456 64 319 q 83 591 64 527 q 133 702 102 655 q 194 782 163 749 q 258 838 225 814 q 529 918 380 918 m 489 885 q 381 859 433 885 q 293 796 329 833 q 261 755 276 779 q 230 696 246 732 q 203 607 213 660 q 193 492 193 553 q 230 293 193 391 q 332 126 267 195 q 571 9 435 9 q 679 36 627 9 q 772 103 732 62 q 854 244 827 155 q 882 425 882 334 q 865 554 882 490 q 816 679 849 619 q 737 784 783 739 q 627 858 691 830 q 489 885 562 885 z "},"P":{"ha":720,"x_min":31,"x_max":665,"o":"m 31 880 q 66 893 31 893 l 189 893 q 248 895 197 893 q 336 897 298 897 q 572 832 494 897 q 643 743 620 793 q 665 640 665 692 q 567 427 665 498 q 502 395 541 408 q 425 383 463 383 q 363 397 386 383 q 347 416 347 406 q 352 422 347 420 q 361 422 357 424 q 396 419 385 419 q 504 478 460 419 q 547 629 547 536 q 485 799 547 736 q 319 863 422 863 q 277 850 290 863 q 267 794 267 840 q 265 425 265 734 q 269 144 265 244 q 274 90 271 109 q 289 58 278 71 q 314 39 300 45 q 358 26 329 33 q 390 5 390 20 q 358 -7 390 -7 q 294 -3 345 -7 q 210 0 242 0 q 144 -1 191 0 q 69 -3 96 -3 q 40 11 40 -3 q 40 14 40 12 q 42 16 41 15 q 44 19 43 18 q 48 21 45 20 q 52 22 50 22 q 56 24 53 23 q 60 25 58 24 q 65 26 62 26 q 69 28 68 27 q 133 60 116 43 q 150 117 149 76 q 151 292 150 172 q 151 476 151 413 q 150 764 151 633 q 129 835 148 812 q 62 863 110 858 q 31 880 31 867 z "},"Q":{"ha":1075,"x_min":64,"x_max":1393,"o":"m 536 920 q 720 884 633 920 q 872 788 808 849 q 975 639 937 726 q 1013 453 1013 552 q 889 131 1013 262 q 803 58 842 83 q 697 4 764 33 q 697 -12 686 -1 q 823 -105 741 -52 q 985 -195 905 -159 q 1250 -269 1154 -269 q 1379 -252 1325 -269 q 1388 -253 1383 -251 q 1393 -258 1393 -255 q 1385 -272 1393 -264 q 1369 -285 1377 -280 q 1174 -332 1290 -332 q 929 -278 1061 -332 q 589 -86 819 -232 q 421 -7 486 -23 q 165 160 267 35 q 64 446 64 286 q 125 692 64 585 q 302 861 186 799 q 536 920 408 920 m 488 884 q 301 802 387 884 q 218 669 243 747 q 193 484 193 592 q 220 318 193 401 q 295 166 248 235 q 416 54 342 98 q 574 11 489 11 q 649 23 604 11 q 725 54 695 35 q 800 129 768 83 q 848 225 831 174 q 872 323 865 275 q 880 416 880 370 q 866 545 880 481 q 822 670 852 608 q 746 779 791 732 q 635 855 702 826 q 488 884 568 884 z "},"R":{"ha":831,"x_min":33,"x_max":897,"o":"m 677 668 q 631 534 677 586 q 514 456 585 482 q 512 454 513 456 q 511 448 511 452 q 514 439 511 444 q 736 109 642 212 q 778 63 762 78 q 819 34 793 47 q 876 16 844 20 q 897 3 897 14 q 882 -9 897 -5 q 831 -16 857 -16 q 717 4 768 -16 q 615 83 666 24 q 433 351 533 181 q 381 411 407 396 q 300 427 355 427 q 271 422 283 427 q 264 414 268 422 q 261 403 261 407 q 265 117 261 175 q 285 58 269 76 q 346 29 300 41 q 375 8 375 22 q 366 0 375 4 q 342 -4 356 -4 q 278 -2 328 -4 q 203 0 227 0 q 123 -2 173 0 q 68 -4 73 -4 q 33 9 33 -4 q 65 29 33 23 q 126 51 111 37 q 144 93 142 64 q 151 432 151 189 q 150 791 151 777 q 132 837 148 821 q 69 863 115 853 q 43 870 50 867 q 36 882 36 874 q 69 893 36 893 l 155 893 q 244 896 165 893 q 358 899 322 899 q 485 889 434 899 q 576 854 536 880 q 652 769 627 822 q 677 668 677 717 m 558 659 q 541 750 558 709 q 493 815 523 790 q 428 852 464 840 q 353 865 392 865 q 294 859 317 865 q 281 847 287 857 q 273 831 275 838 q 261 482 261 751 q 268 468 261 476 q 283 458 275 460 q 363 456 296 456 q 454 473 414 456 q 558 659 558 518 z "},"S":{"ha":658,"x_min":54,"x_max":596,"o":"m 385 920 q 517 911 413 920 q 535 904 527 910 q 545 892 543 897 q 561 775 561 808 q 549 742 561 742 q 528 768 538 742 q 466 858 505 829 q 357 886 428 886 q 245 839 286 886 q 204 721 204 792 q 209 674 204 696 q 228 633 214 653 q 253 600 241 614 q 291 566 265 585 q 334 535 317 547 q 387 501 352 524 q 465 447 431 474 q 530 386 498 420 q 579 312 562 352 q 596 229 596 272 q 568 114 596 165 q 493 29 539 62 q 406 -13 457 1 q 302 -28 354 -28 q 92 8 198 -28 q 75 33 83 11 q 68 80 73 49 q 58 135 62 111 q 54 167 54 159 q 68 192 54 192 q 74 190 71 192 q 81 184 77 189 q 86 176 84 180 q 93 164 89 172 q 100 151 97 157 q 108 133 102 144 q 117 114 113 121 q 193 37 142 63 q 307 11 245 11 q 366 23 338 11 q 414 56 393 36 q 449 99 434 75 q 472 146 465 123 q 479 189 479 170 q 470 245 479 219 q 449 290 461 272 q 411 331 437 309 q 367 366 385 353 q 311 403 348 379 q 247 446 271 429 q 191 492 222 464 q 143 546 160 519 q 114 608 126 572 q 102 685 102 644 q 119 769 102 729 q 164 839 136 810 q 385 920 247 920 z "},"T":{"ha":948,"x_min":26,"x_max":926,"o":"m 296 893 l 654 893 q 841 898 795 893 q 899 917 887 902 q 916 928 909 928 q 922 921 919 928 q 924 907 926 914 q 901 743 908 841 q 889 715 900 715 q 868 755 878 715 q 861 785 863 775 q 851 807 858 794 q 835 825 845 819 q 811 833 825 831 q 541 843 743 843 q 531 838 536 843 q 525 828 525 832 q 522 578 522 758 l 522 189 q 524 135 523 153 q 528 97 524 117 q 537 70 532 77 q 556 52 543 62 q 586 38 570 43 q 629 28 602 34 q 657 8 657 22 q 623 -4 657 -4 q 530 -2 605 -4 q 427 0 455 0 q 345 -3 391 0 q 288 -5 300 -5 q 253 8 253 -5 q 285 28 253 24 q 342 44 320 33 q 375 72 364 54 q 389 107 386 90 q 395 154 393 124 q 411 642 411 401 l 411 825 q 404 843 411 843 q 349 843 396 843 q 272 844 302 844 q 206 842 242 844 q 157 839 170 841 q 99 815 115 832 q 64 757 82 798 q 37 725 47 725 q 26 750 26 725 q 33 785 26 753 q 45 855 39 816 q 53 922 52 895 q 57 928 53 925 q 64 932 62 932 q 87 916 71 932 q 143 896 101 898 q 296 893 238 893 z "},"U":{"ha":1002,"x_min":21,"x_max":989,"o":"m 53 868 q 21 886 21 874 q 54 899 21 899 q 123 896 73 899 q 199 893 173 893 q 285 895 241 893 q 338 896 328 896 q 366 886 366 896 q 340 868 366 874 q 273 837 288 857 q 254 753 258 817 q 254 411 249 682 q 277 230 256 293 q 349 117 298 168 q 441 64 385 81 q 542 47 498 47 q 638 58 597 47 q 713 94 679 68 q 770 166 748 119 q 804 282 793 212 q 821 643 821 376 q 812 787 821 748 q 717 865 800 850 q 703 868 707 867 q 692 871 699 869 q 684 876 686 873 q 682 882 682 878 q 721 896 682 896 q 789 895 748 896 q 844 893 830 893 q 898 895 870 893 q 954 896 925 896 q 989 885 989 896 q 983 875 989 878 q 961 868 977 871 q 902 841 918 861 q 882 770 886 821 q 875 655 878 724 q 869 516 871 587 q 865 432 866 444 q 859 342 863 379 q 847 263 854 304 q 828 190 840 221 q 799 128 817 159 q 755 71 781 97 q 696 22 730 45 q 609 -12 662 1 q 507 -25 557 -25 q 380 -8 450 -25 q 265 45 310 9 q 171 173 200 97 q 142 403 142 250 q 132 778 140 600 q 114 838 131 816 q 53 868 96 859 z "},"V":{"ha":888,"x_min":-7,"x_max":909,"o":"m -7 885 q 26 899 -7 899 q 100 896 56 899 q 170 893 143 893 q 251 894 199 893 q 313 895 302 895 q 342 880 342 895 q 313 864 342 868 q 284 859 294 861 q 264 851 275 857 q 251 838 254 846 q 248 815 248 829 q 256 782 249 802 q 478 211 304 637 q 485 207 479 208 q 493 211 490 205 q 686 710 551 332 q 709 805 709 771 q 690 851 709 839 q 637 868 677 860 q 612 884 612 873 q 637 897 612 897 q 705 895 665 897 q 761 893 745 893 q 831 895 788 893 q 882 896 874 896 q 902 891 895 896 q 909 882 909 887 q 882 867 909 872 q 811 833 836 861 q 755 733 787 806 q 568 271 627 420 q 478 22 512 129 q 443 -29 463 -29 q 431 -20 437 -29 q 421 7 425 -10 q 368 164 403 79 q 337 247 366 172 q 302 340 309 322 q 271 421 295 357 q 234 514 246 484 q 201 595 222 545 q 162 687 180 646 q 126 768 144 728 q 83 841 102 824 q 24 867 65 857 q 20 867 22 867 q -6 881 -4 873 l -7 885 z "},"W":{"ha":1314,"x_min":-14,"x_max":1337,"o":"m -14 886 q 22 897 -14 897 q 44 896 24 897 q 95 894 64 895 q 151 893 125 893 q 232 895 189 893 q 278 896 276 896 q 310 885 310 896 q 303 873 310 878 q 273 863 296 869 q 231 839 239 854 q 233 803 222 823 q 378 475 258 741 q 511 189 498 208 q 519 184 516 184 q 524 187 522 184 l 632 422 q 633 426 633 422 q 634 434 634 429 q 633 441 634 438 q 569 589 631 454 q 492 751 507 724 q 439 836 463 814 q 372 868 415 859 q 355 875 362 870 q 347 886 347 880 q 374 896 347 896 q 431 895 380 896 q 507 893 481 893 q 570 894 538 893 q 621 895 602 895 q 642 896 640 896 q 665 884 665 896 q 660 874 665 877 q 633 865 654 871 q 587 840 593 854 q 597 791 581 827 q 616 748 603 779 q 652 664 629 718 q 697 562 676 610 q 702 561 699 559 q 707 566 705 562 q 796 758 730 595 q 810 808 808 789 q 805 839 813 827 q 784 857 797 851 q 747 869 772 863 q 724 885 724 874 q 753 896 724 896 q 797 895 762 896 q 859 893 833 893 q 920 895 881 893 q 968 896 959 896 q 991 888 991 896 q 962 867 991 876 q 901 836 922 854 q 851 764 880 817 q 787 636 839 741 q 730 515 736 531 q 732 493 728 504 q 802 331 751 442 q 876 180 852 220 q 888 180 883 170 q 1128 753 1057 555 q 1137 830 1147 804 q 1078 868 1126 857 q 1048 884 1048 873 q 1078 896 1048 896 q 1133 895 1093 896 q 1185 893 1173 893 q 1248 895 1206 893 q 1310 896 1290 896 q 1337 886 1337 896 q 1333 875 1337 879 q 1310 867 1328 871 q 1243 834 1265 855 q 1190 758 1220 814 q 1010 351 1142 673 q 864 3 892 73 q 851 -19 857 -13 q 836 -25 844 -25 q 817 -1 824 -25 q 775 114 799 55 q 714 260 752 174 q 665 372 676 347 q 660 382 661 381 q 656 376 659 382 q 656 375 656 376 q 583 216 646 352 q 494 4 519 79 q 485 -15 492 -5 q 469 -25 477 -25 q 467 -25 468 -25 q 464 -23 465 -24 q 462 -21 463 -22 q 460 -19 461 -20 q 458 -16 458 -17 q 456 -12 457 -14 q 454 -9 454 -10 q 452 -5 453 -7 q 450 -1 451 -3 q 438 32 449 3 q 408 110 427 61 q 364 216 389 159 q 253 474 328 304 q 129 749 178 644 q 75 835 98 813 q 9 867 52 857 q -6 875 1 869 q -14 886 -14 881 z "},"X":{"ha":961,"x_min":3,"x_max":965,"o":"m 7 888 q 16 895 7 892 q 40 897 26 898 q 92 895 44 897 q 175 893 139 893 q 252 894 191 893 q 349 895 312 895 q 374 884 374 895 q 347 865 371 870 q 306 786 262 849 q 349 722 326 755 q 388 667 371 690 q 436 602 404 645 q 490 528 468 558 q 504 529 496 521 q 672 746 595 635 q 706 810 703 787 q 697 841 709 833 q 648 863 686 849 q 642 865 644 865 q 614 885 614 875 q 647 896 614 896 q 704 895 673 896 q 765 893 735 893 q 842 895 796 893 q 905 896 887 896 q 940 885 940 896 q 903 864 938 870 q 826 832 860 857 q 743 750 792 808 q 534 500 607 591 q 529 490 531 496 q 529 482 528 484 q 627 344 549 452 q 754 175 706 237 q 806 110 789 130 q 845 71 823 90 q 886 44 867 52 q 935 29 905 36 q 959 21 953 25 q 965 9 965 17 q 957 0 965 4 q 935 -4 949 -4 q 866 -2 929 -4 q 760 0 804 0 q 675 -3 730 0 q 616 -5 621 -5 q 579 8 579 -5 q 610 28 579 22 q 670 61 662 42 q 654 113 679 79 q 561 250 627 158 q 460 386 496 341 q 451 389 456 389 q 441 385 445 388 q 378 304 410 347 q 330 236 347 262 q 281 160 313 210 q 257 120 266 136 q 246 91 249 104 q 245 71 243 78 q 257 56 247 63 q 279 44 267 48 q 313 32 290 39 q 340 9 340 23 q 332 0 340 3 q 310 -4 323 -4 q 262 -2 309 -4 q 174 0 216 0 q 101 -2 148 0 q 35 -4 55 -4 q 3 8 3 -4 q 37 29 3 21 q 115 60 90 42 q 193 140 140 78 q 307 280 240 193 q 415 427 374 368 q 416 446 421 439 q 172 774 279 640 q 109 842 130 827 q 40 867 88 857 q 7 888 7 873 z "},"Y":{"ha":818,"x_min":-17,"x_max":848,"o":"m 14 871 q -17 889 -17 878 q 16 900 -17 900 q 84 897 30 900 q 175 893 139 893 q 242 895 209 893 q 290 896 276 896 q 323 885 323 896 q 288 863 323 873 q 248 840 254 853 q 253 807 241 826 q 295 721 258 798 q 368 573 332 644 q 431 454 404 502 q 436 453 432 452 q 443 457 441 454 q 517 587 454 473 q 614 761 581 701 q 633 829 639 810 q 578 864 627 848 q 546 885 546 874 q 572 896 546 896 q 638 895 593 896 q 703 893 684 893 q 773 895 732 893 q 822 896 814 896 q 848 884 848 896 q 842 872 848 877 q 812 863 835 867 q 767 849 787 858 q 731 825 747 840 q 704 797 714 810 q 676 760 694 784 q 576 598 650 727 q 464 410 502 469 q 455 381 458 401 q 452 351 452 361 q 460 121 452 192 q 479 59 465 72 q 543 34 494 45 q 558 31 553 32 q 591 9 591 22 q 581 -1 591 3 q 558 -5 570 -5 q 484 -3 532 -5 q 410 0 435 0 q 321 -3 378 0 q 250 -5 265 -5 q 215 11 215 -5 q 245 29 215 22 q 320 65 306 44 q 335 144 335 85 q 334 364 335 339 q 301 461 332 397 q 226 608 268 530 q 161 730 184 686 q 95 828 126 798 q 14 871 64 859 z "},"Z":{"ha":840,"x_min":45,"x_max":804,"o":"m 714 893 q 737 889 728 893 q 746 880 746 886 q 721 836 746 871 q 561 601 662 756 q 359 283 460 445 q 232 82 257 121 q 229 72 229 78 q 233 65 229 66 q 472 53 283 53 q 642 60 604 53 q 706 87 684 66 q 766 176 728 109 q 794 205 781 205 q 804 180 804 205 q 797 136 804 165 q 777 73 789 106 q 764 32 766 39 q 734 3 758 11 q 642 -4 709 -5 q 224 -1 448 -1 q 138 -2 189 -1 q 79 -3 87 -3 q 55 2 64 -3 q 45 16 45 7 q 45 18 45 17 q 47 22 45 20 q 50 27 48 24 q 54 33 51 29 q 59 41 56 37 q 65 51 61 45 q 74 62 70 56 q 83 76 77 67 q 94 92 89 84 q 361 493 191 227 q 579 832 532 760 q 580 840 581 834 q 574 846 579 845 q 404 851 537 851 q 222 843 292 851 q 168 816 189 839 q 121 743 146 793 q 103 713 107 716 q 97 711 100 711 q 91 713 93 711 q 87 718 88 714 q 86 726 87 722 q 86 739 86 730 q 90 773 86 749 q 99 834 93 798 q 107 886 105 871 q 127 917 112 917 q 134 916 132 917 q 142 912 136 916 q 151 907 147 909 q 221 893 180 893 l 714 893 z "},"[":{"ha":464,"x_min":150,"x_max":407,"o":"m 197 1007 q 299 1008 243 1007 q 358 1008 355 1008 q 396 993 396 1008 q 357 974 396 981 q 292 968 342 972 q 233 964 241 964 q 216 929 220 962 q 210 407 210 804 q 211 257 210 340 q 216 53 213 174 q 220 -140 218 -68 q 250 -211 222 -208 q 379 -222 287 -218 q 397 -228 387 -222 q 407 -240 407 -233 q 372 -257 407 -257 l 253 -257 q 199 -258 230 -257 q 167 -258 168 -258 q 157 -248 161 -258 q 153 -228 153 -238 l 154 576 q 153 767 154 671 q 151 921 152 863 q 150 979 150 978 q 153 993 150 985 q 160 1003 156 1001 q 197 1007 164 1007 z "},"\\":{"ha":550,"x_min":57,"x_max":482,"o":"m 481 -87 q 480 -99 482 -92 q 473 -107 478 -106 q 454 -115 463 -115 q 446 -111 452 -115 q 439 -104 440 -106 q 57 920 367 81 q 68 936 57 930 q 90 945 83 945 q 98 938 94 945 q 104 928 103 932 q 217 620 129 861 q 365 220 306 378 q 481 -87 423 62 z "},"]":{"ha":464,"x_min":57,"x_max":313,"o":"m 265 -258 q 163 -259 220 -258 q 104 -260 107 -260 q 68 -244 68 -260 q 106 -225 68 -232 q 172 -219 120 -223 q 231 -214 223 -214 q 245 -179 241 -212 q 253 343 253 -41 q 251 493 253 410 q 247 696 250 576 q 243 890 244 817 q 214 961 241 956 q 85 971 176 968 q 67 977 77 971 q 57 989 57 982 q 92 1006 57 1006 l 210 1006 q 263 1006 233 1006 q 296 1007 294 1007 q 306 998 301 1007 q 310 978 310 988 l 310 174 q 311 -17 310 79 q 312 -171 311 -113 q 313 -229 313 -228 q 304 -254 313 -248 q 265 -258 299 -258 z "},"^":{"ha":722,"x_min":141,"x_max":584,"o":"m 358 879 q 397 835 374 879 l 575 485 q 578 463 584 469 q 545 440 559 444 q 534 440 541 439 q 526 444 527 441 l 364 766 q 359 766 363 768 q 353 762 354 764 l 195 443 q 188 437 193 439 q 179 435 182 434 q 143 453 159 437 q 142 463 141 455 q 146 476 143 471 l 321 832 q 358 879 344 879 z "},"_":{"ha":687,"x_min":0,"x_max":688,"o":"m 0 -172 l 688 -172 l 688 -240 l 0 -240 l 0 -172 z "},"`":{"ha":555,"x_min":175,"x_max":321,"o":"m 218 878 q 252 822 233 878 q 313 636 282 735 q 311 607 321 607 q 290 624 301 607 q 187 800 230 718 q 175 833 175 824 q 194 860 176 843 q 218 878 212 878 z "},"a":{"ha":530,"x_min":47,"x_max":542,"o":"m 283 561 q 342 547 313 561 q 392 509 371 534 q 416 464 408 490 q 426 419 425 437 q 427 370 427 401 q 427 361 427 363 l 427 343 q 424 261 427 331 q 422 140 422 192 q 438 73 422 93 q 478 53 454 53 q 530 69 503 53 q 537 68 533 71 q 542 60 542 65 q 536 43 542 52 q 421 -20 500 -20 q 330 50 354 -20 q 325 53 330 52 q 319 53 320 54 q 157 -20 220 -20 q 80 13 113 -20 q 47 104 47 45 q 50 131 47 119 q 59 151 53 142 q 70 167 64 160 q 84 179 75 174 q 97 188 92 184 q 110 194 102 191 q 119 199 118 198 q 147 208 123 200 q 215 230 172 216 q 309 262 258 245 q 330 290 329 270 q 334 407 334 329 q 328 432 334 417 q 311 463 322 447 q 278 491 299 479 q 231 503 257 503 q 210 502 218 503 q 191 497 202 501 q 172 484 179 492 q 160 459 165 476 q 155 419 155 443 q 150 413 155 418 q 142 406 145 408 q 102 385 137 402 q 64 367 67 367 q 54 371 58 367 q 50 379 50 376 q 65 424 50 401 q 103 467 79 447 q 148 502 126 487 q 191 528 169 516 q 283 561 247 561 m 231 46 q 309 74 283 46 q 328 228 328 93 q 325 235 328 232 q 321 237 323 237 q 194 192 238 218 q 150 127 150 167 q 172 69 150 92 q 231 46 193 46 z "},"b":{"ha":676,"x_min":45,"x_max":633,"o":"m 374 557 q 459 542 414 557 q 534 501 505 527 q 607 409 581 463 q 633 290 633 354 q 596 141 633 208 q 486 33 558 75 q 302 -14 406 -14 q 157 17 216 -14 q 135 16 140 25 q 113 -1 125 -1 q 102 35 102 -1 q 103 276 102 102 q 104 543 104 450 q 97 865 104 705 q 91 886 97 878 q 61 913 84 895 q 45 929 45 925 q 77 950 45 941 q 175 978 135 962 q 197 985 193 985 q 205 951 205 985 q 204 880 205 949 q 201 706 203 811 q 200 511 200 600 q 203 506 200 509 q 208 503 206 502 q 284 539 237 522 q 374 557 331 557 m 306 501 q 222 484 249 501 q 209 471 212 476 q 204 450 206 466 q 201 412 202 435 q 199 374 199 390 q 200 330 199 357 q 200 294 200 303 q 215 127 200 189 q 268 52 229 81 q 351 22 308 22 q 397 31 372 22 q 440 54 423 40 q 497 138 474 83 q 521 256 521 193 q 508 349 521 306 q 470 427 495 393 q 402 481 444 462 q 306 501 360 501 z "},"c":{"ha":555,"x_min":49,"x_max":538,"o":"m 359 561 q 446 551 406 561 q 503 528 486 541 q 517 496 517 513 q 507 460 517 482 q 488 439 497 439 q 450 464 479 439 q 385 511 416 494 q 311 528 353 528 q 244 504 278 528 q 187 452 210 481 q 150 302 150 402 q 164 223 150 264 q 204 143 178 181 q 274 80 230 105 q 374 56 319 56 q 432 62 406 56 q 476 80 458 68 q 505 100 495 92 q 526 122 514 109 q 534 123 530 125 q 538 117 538 120 q 514 69 538 93 q 424 4 478 28 q 307 -20 370 -20 q 122 60 198 -20 q 67 150 85 98 q 49 252 49 202 q 174 500 49 416 q 258 542 207 524 q 359 561 310 561 z "},"d":{"ha":677,"x_min":49,"x_max":682,"o":"m 382 555 q 465 545 435 555 q 471 546 468 544 q 473 551 473 548 q 469 836 473 694 q 468 858 469 852 q 466 873 468 863 q 458 890 463 884 q 444 906 453 897 q 421 926 435 916 q 412 940 412 935 q 432 956 412 950 q 538 985 471 964 q 567 991 553 991 q 575 961 575 991 q 570 419 570 774 q 571 97 570 281 q 577 51 571 62 q 595 40 583 40 q 672 53 631 40 q 679 50 675 53 q 682 43 682 47 q 678 25 682 37 q 668 12 673 13 q 532 -14 556 -8 q 512 -18 525 -15 q 492 -23 500 -21 q 481 -25 484 -25 q 471 -19 475 -25 q 467 -9 467 -13 q 468 45 468 1 q 465 53 468 50 q 458 54 461 57 q 372 4 418 21 q 286 -14 326 -14 q 159 24 214 -14 q 77 121 104 62 q 49 249 49 180 q 212 515 49 431 q 382 555 290 555 m 315 517 q 241 494 278 517 q 179 415 202 469 q 155 296 155 361 q 212 121 155 195 q 359 47 268 47 q 447 74 408 47 q 460 92 453 79 q 468 118 467 104 q 467 396 473 267 q 461 421 467 402 q 449 449 455 441 q 315 517 392 517 z "},"e":{"ha":524,"x_min":49,"x_max":505,"o":"m 193 528 q 315 558 239 558 q 439 513 391 558 q 486 397 486 467 q 474 378 486 386 q 444 372 462 371 q 160 372 233 381 q 143 353 149 370 q 139 296 139 345 q 165 189 139 242 q 241 97 191 135 q 350 60 291 60 q 433 78 404 60 q 488 132 462 96 q 499 139 494 140 q 505 125 505 138 q 486 86 505 109 q 393 8 447 36 q 286 -20 338 -20 q 158 19 213 -20 q 76 120 102 58 q 49 254 49 181 q 61 353 49 306 q 106 448 73 399 q 193 528 140 496 m 298 534 q 212 500 254 534 q 151 408 171 465 q 153 402 151 406 q 158 399 155 399 q 258 400 191 399 q 339 401 326 401 q 377 414 366 405 q 387 446 388 422 q 356 508 387 481 q 298 534 326 534 z "},"f":{"ha":369,"x_min":29,"x_max":549,"o":"m 111 471 l 57 469 q 51 474 55 469 q 46 481 46 478 q 62 498 46 490 q 84 514 66 503 q 109 530 102 526 q 119 553 119 538 q 129 673 119 610 q 154 775 138 736 q 221 893 182 850 q 313 964 260 937 q 422 991 360 991 q 473 983 446 991 q 519 960 501 974 q 549 907 549 937 q 531 870 549 890 q 493 851 513 851 q 453 876 478 851 q 345 930 404 930 q 274 902 302 930 q 229 800 246 874 q 214 553 210 711 q 219 540 215 546 q 227 534 222 534 l 383 533 q 390 528 387 533 q 393 513 393 522 q 385 487 393 502 q 374 472 377 472 q 299 473 363 472 q 227 475 235 475 q 218 469 222 475 q 215 457 215 464 q 218 109 215 206 q 220 81 219 90 q 224 62 220 73 q 232 47 227 51 q 248 38 237 43 q 272 30 258 33 q 309 25 286 28 q 326 19 318 24 q 334 9 334 15 q 306 -4 334 -4 q 237 -2 286 -4 q 160 0 187 0 q 109 -3 143 0 q 56 -7 74 -7 q 29 5 29 -7 q 53 21 29 17 q 104 48 95 31 q 115 131 113 66 q 119 454 119 275 q 111 471 119 471 z "},"g":{"ha":586,"x_min":25,"x_max":615,"o":"m 285 571 q 343 565 317 571 q 386 552 370 559 q 420 534 401 545 q 427 530 425 532 q 454 524 440 524 q 606 519 514 524 q 612 510 608 519 q 615 496 615 500 q 609 468 615 479 q 599 457 604 457 q 548 460 590 457 q 494 463 506 463 q 490 454 490 463 q 493 396 493 433 q 473 302 493 350 q 414 221 453 255 q 272 167 343 167 q 204 175 231 169 q 187 170 193 175 q 156 142 165 155 q 146 113 146 130 q 180 65 146 82 q 239 49 214 49 q 334 50 258 49 q 422 52 410 52 q 490 35 460 52 q 581 -104 581 -14 q 531 -242 581 -172 q 414 -347 482 -312 q 245 -389 333 -389 q 81 -336 143 -389 q 25 -201 25 -286 q 62 -134 25 -171 q 112 -91 70 -124 q 161 -49 153 -57 q 163 -44 163 -47 q 164 -39 164 -41 q 163 -37 163 -37 q 120 -14 142 -28 q 77 30 98 1 q 56 90 56 58 q 57 102 56 95 q 61 113 59 109 q 64 117 63 117 q 164 180 132 150 q 166 188 167 184 q 164 193 166 192 q 85 262 117 219 q 54 361 54 304 q 86 468 54 420 q 161 541 118 516 q 285 571 212 571 m 264 550 q 205 519 236 550 q 171 464 186 501 q 157 379 157 427 q 170 299 157 340 q 213 225 182 258 q 286 192 244 192 q 332 203 315 192 q 368 239 349 215 q 395 358 395 273 q 362 499 395 448 q 264 550 330 550 m 311 -335 q 459 -286 408 -335 q 511 -160 510 -236 q 487 -83 511 -112 q 424 -53 463 -55 q 215 -52 395 -52 q 163 -74 189 -52 q 113 -168 113 -119 q 174 -283 112 -232 q 311 -335 236 -335 z "},"h":{"ha":684,"x_min":22,"x_max":663,"o":"m 401 561 q 460 552 430 561 q 503 530 490 543 q 571 385 564 484 q 578 123 578 308 q 586 48 578 64 q 633 24 593 33 q 657 16 651 20 q 663 5 663 12 q 629 -5 663 -5 q 578 -3 614 -5 q 522 0 541 0 q 468 -2 497 0 q 429 -4 439 -4 q 399 8 399 -4 q 422 22 399 17 q 463 45 453 31 q 473 106 473 60 l 473 335 q 467 395 473 364 q 454 439 461 426 q 345 498 427 496 q 267 482 300 499 q 215 440 233 465 q 208 406 208 427 q 207 102 202 213 q 217 45 209 58 q 261 24 226 32 q 289 9 289 18 q 256 -5 289 -5 q 203 -3 238 -5 q 149 0 169 0 q 92 -3 127 0 q 45 -5 57 -5 q 22 8 22 -5 q 58 25 22 18 q 91 50 83 31 q 102 117 100 69 q 110 411 110 288 q 109 897 110 883 q 101 915 109 907 q 71 939 94 924 q 54 958 54 949 q 75 972 54 966 q 167 987 91 976 q 203 991 192 991 q 211 954 211 991 q 205 475 205 647 q 207 472 205 473 q 209 471 208 471 q 211 472 210 471 q 401 561 314 561 z "},"i":{"ha":322,"x_min":28,"x_max":309,"o":"m 61 489 q 68 499 61 494 q 85 509 75 505 q 135 531 104 517 q 185 553 165 545 q 210 562 205 562 q 217 557 214 562 q 220 546 220 551 q 215 296 215 490 q 218 78 215 123 q 233 44 220 54 q 281 26 245 35 q 309 11 309 21 q 277 -4 309 -4 q 221 -2 257 -4 q 163 0 186 0 q 103 -3 134 0 q 56 -7 71 -7 q 28 5 28 -7 q 56 22 28 16 q 99 41 85 29 q 115 78 113 54 q 119 297 119 107 q 114 418 119 350 q 107 441 113 431 q 96 457 102 452 q 71 478 90 463 q 66 481 69 479 q 62 484 62 483 q 61 489 61 486 m 176 807 q 217 790 200 807 q 233 749 233 774 q 217 705 233 722 q 176 689 200 689 q 136 706 152 689 q 119 745 119 723 q 138 787 119 768 q 176 807 157 807 z "},"j":{"ha":315,"x_min":-32,"x_max":218,"o":"m 161 808 q 202 792 186 808 q 218 750 218 777 q 201 704 218 724 q 161 685 183 685 q 119 704 136 685 q 102 746 102 722 q 122 790 102 771 q 161 808 143 808 m 49 501 q 78 518 49 509 q 189 559 132 536 q 208 566 203 566 q 211 563 209 566 q 214 555 212 560 q 215 546 215 550 q 212 395 213 477 q 212 205 212 312 q 211 40 212 98 q 168 -220 211 -129 q 25 -370 127 -307 q -8 -385 -1 -385 q -22 -380 -13 -385 q -32 -371 -32 -375 q -22 -358 -32 -366 q 69 -273 39 -332 q 100 -174 90 -235 q 113 -72 111 -113 q 114 39 114 -31 q 109 404 114 291 q 107 423 108 415 q 105 436 106 431 q 102 447 105 442 q 98 455 99 452 q 91 463 97 458 q 83 469 85 467 q 72 476 81 470 q 60 485 63 482 q 49 501 49 496 z "},"k":{"ha":631,"x_min":11,"x_max":672,"o":"m 364 542 l 456 542 q 593 553 470 542 q 623 541 623 553 q 613 529 623 535 q 591 521 604 523 q 508 494 541 511 q 421 431 475 477 q 318 335 334 351 q 317 323 312 328 q 503 109 416 187 q 583 46 556 61 q 647 25 610 32 q 672 8 672 20 q 639 -4 672 -4 q 547 -2 619 -4 q 432 0 475 0 l 392 -1 q 367 8 367 -1 q 373 19 367 15 q 395 26 378 22 q 411 62 436 37 q 369 112 395 82 q 324 163 344 141 q 275 217 304 185 q 237 258 246 249 q 210 279 216 279 q 203 268 203 279 q 207 93 203 164 q 221 51 208 69 q 262 26 235 32 q 290 8 290 20 q 256 -4 290 -4 q 212 -2 236 -4 q 175 0 187 0 q 40 -11 165 0 q 19 -8 27 -12 q 11 1 11 -5 q 41 20 11 11 q 85 45 74 30 q 98 102 96 60 q 109 465 109 211 q 103 839 109 695 q 95 879 103 866 q 60 916 87 892 q 50 930 50 925 q 75 949 50 941 q 180 985 103 956 q 203 991 196 991 q 210 964 210 991 q 207 775 210 950 q 203 441 203 600 l 203 311 q 205 304 203 309 q 210 300 207 300 q 261 323 233 300 q 332 391 291 349 q 387 452 373 433 q 406 494 411 481 q 361 514 401 506 q 339 529 339 519 q 364 542 339 542 z "},"l":{"ha":315,"x_min":5,"x_max":293,"o":"m 109 517 q 102 852 109 789 q 93 886 100 875 q 56 916 85 897 q 41 930 41 928 q 46 938 41 933 q 56 945 51 943 q 132 975 77 958 q 201 991 188 991 q 207 985 203 991 q 210 971 210 979 q 204 525 204 663 q 210 118 204 257 q 220 48 212 61 q 269 24 228 35 q 293 5 293 16 q 264 -5 293 -5 q 210 -3 253 -5 q 139 0 168 0 q 79 -2 115 0 q 32 -4 43 -4 q 14 0 23 -4 q 5 11 5 5 q 25 25 5 20 q 84 50 71 35 q 102 104 98 64 q 109 517 109 174 z "},"m":{"ha":1044,"x_min":32,"x_max":1023,"o":"m 82 522 q 96 526 83 522 q 123 534 110 530 q 155 546 136 538 q 186 559 173 553 q 205 571 205 571 q 213 567 209 571 q 216 558 216 562 q 216 520 216 553 q 215 481 215 487 q 218 474 215 477 q 224 473 221 471 q 322 534 271 511 q 418 558 374 558 q 508 535 470 558 q 564 475 546 512 q 565 473 564 474 q 569 472 567 472 q 574 473 572 472 q 652 525 597 492 q 755 558 713 558 q 933 346 931 558 q 936 92 936 168 q 948 45 936 60 q 996 25 960 31 q 1016 18 1008 23 q 1023 8 1023 12 q 1003 -7 1023 -7 q 940 -3 994 -7 q 871 0 886 0 q 827 -2 857 0 q 785 -4 798 -4 q 751 9 751 -4 q 778 28 751 22 q 818 47 810 35 q 832 102 827 60 q 837 208 835 129 q 838 334 839 288 q 800 458 838 418 q 711 497 764 497 q 651 489 677 497 q 616 474 625 481 q 595 455 607 467 q 591 452 593 453 q 583 431 587 446 q 579 411 579 416 q 581 106 579 144 q 591 50 583 64 q 636 28 600 35 q 664 8 664 23 q 632 -4 664 -4 q 594 -2 625 -4 q 538 0 563 0 q 480 -2 517 0 q 429 -4 444 -4 q 399 9 399 -4 q 422 26 399 21 q 466 48 456 33 q 476 100 476 62 l 479 349 q 470 426 479 396 q 431 476 460 455 q 364 497 399 497 q 310 492 334 497 q 271 478 287 488 q 248 462 255 468 q 229 444 240 456 q 219 420 225 439 q 214 396 214 401 q 216 83 212 294 q 231 45 218 58 q 271 28 243 32 q 304 9 304 22 q 296 0 304 3 q 278 -4 288 -4 q 216 -2 258 -4 q 155 0 175 0 q 103 -2 134 0 q 65 -4 71 -4 q 32 8 32 -4 q 37 17 32 12 q 50 24 42 22 q 98 41 85 31 q 113 75 110 51 q 119 427 119 214 q 118 450 119 442 q 107 467 116 457 q 79 489 99 477 q 65 504 65 498 q 82 522 65 515 z "},"n":{"ha":683,"x_min":35,"x_max":657,"o":"m 65 507 q 88 522 65 517 q 91 523 90 523 q 93 524 92 524 q 116 531 103 526 q 139 541 130 536 q 163 552 149 545 q 184 562 178 559 q 205 570 197 570 q 212 550 212 570 q 212 509 212 536 q 211 482 211 483 q 211 480 211 481 q 212 476 211 479 q 213 474 212 474 q 216 475 214 474 q 309 533 257 507 q 411 558 361 558 q 483 543 451 558 q 532 507 515 528 q 566 438 557 476 q 576 314 574 400 l 581 98 q 592 48 582 63 q 632 26 602 33 q 657 7 657 18 q 621 -5 657 -5 q 576 -3 614 -5 q 518 0 538 0 q 472 -2 502 0 q 428 -4 441 -4 q 397 11 397 -4 q 435 32 397 22 q 461 46 454 37 q 472 77 469 56 q 476 150 475 98 l 479 275 q 474 395 480 359 q 452 454 468 431 q 407 488 435 475 q 349 501 379 501 q 222 449 272 501 q 216 431 219 446 q 214 412 214 416 q 215 135 214 178 q 226 55 216 75 q 272 26 235 35 q 298 9 298 21 q 267 -4 298 -4 q 210 -2 245 -4 q 160 0 175 0 q 113 -2 142 0 q 68 -4 83 -4 q 35 9 35 -4 q 60 28 35 22 q 98 47 87 34 q 110 83 109 60 q 119 386 119 259 q 113 457 119 437 q 77 493 106 476 q 65 507 65 500 z "},"o":{"ha":662,"x_min":49,"x_max":615,"o":"m 328 561 q 530 481 446 561 q 615 281 615 402 q 486 32 615 123 q 413 -6 452 7 q 342 -20 374 -20 q 134 62 218 -20 q 49 265 49 144 q 131 473 49 389 q 224 537 172 514 q 328 561 277 561 m 319 529 q 263 515 289 529 q 211 463 237 501 q 161 281 161 395 q 182 153 161 213 q 245 53 202 93 q 346 12 288 12 q 392 25 363 12 q 441 68 420 39 q 500 268 500 146 q 487 354 500 309 q 452 439 475 399 q 395 504 430 478 q 319 529 359 529 z "},"p":{"ha":663,"x_min":18,"x_max":616,"o":"m 399 555 q 551 482 478 555 q 597 402 578 454 q 616 310 616 351 q 565 140 616 214 q 432 25 514 65 q 353 0 401 9 q 282 -9 306 -9 q 216 -7 243 -9 q 205 -21 205 -7 q 208 -254 203 -186 q 228 -315 212 -296 q 293 -336 245 -334 q 323 -353 323 -338 q 292 -366 323 -366 q 224 -362 275 -366 q 154 -359 174 -359 q 96 -362 134 -359 q 47 -364 58 -364 q 18 -350 18 -364 q 47 -334 18 -340 q 92 -312 79 -328 q 106 -260 104 -296 q 110 79 110 -168 q 104 414 110 276 q 102 434 104 427 q 93 453 101 441 q 71 476 85 465 q 53 493 53 486 q 75 511 53 502 q 183 571 120 529 q 203 578 197 578 q 207 573 205 578 q 208 566 208 569 q 206 528 208 560 q 204 492 204 496 q 207 487 204 489 q 212 486 209 484 q 325 546 256 520 q 399 555 351 555 m 315 494 q 222 467 258 494 q 207 427 209 456 q 215 123 207 162 q 222 101 216 115 q 233 83 229 87 q 355 33 288 33 q 418 53 377 33 q 480 138 452 68 q 509 268 509 208 q 457 433 509 378 q 315 494 402 494 z "},"q":{"ha":672,"x_min":49,"x_max":665,"o":"m 372 555 q 450 546 410 555 q 517 522 490 536 q 532 526 526 519 q 564 554 551 554 q 574 530 574 554 q 567 96 567 364 q 568 -224 567 -125 q 582 -303 569 -283 q 632 -329 594 -323 q 665 -345 665 -335 q 629 -361 665 -361 q 578 -360 610 -361 q 528 -359 546 -359 q 453 -365 502 -359 q 387 -371 404 -371 q 357 -357 357 -371 q 386 -338 357 -345 q 450 -312 434 -328 q 468 -249 465 -296 q 473 28 473 -170 q 471 33 473 30 q 467 36 469 37 q 393 1 435 16 q 317 -14 351 -14 q 155 37 224 -14 q 78 129 108 73 q 49 252 49 185 q 207 510 49 420 q 372 555 286 555 m 298 515 q 211 469 257 515 q 160 304 160 406 q 220 122 160 195 q 297 60 255 79 q 378 40 338 40 q 458 61 418 40 q 468 74 464 64 q 472 87 472 84 q 463 390 472 309 q 459 403 462 393 q 454 422 456 414 q 449 433 452 431 q 298 515 388 515 z "},"r":{"ha":443,"x_min":28,"x_max":446,"o":"m 57 494 q 64 506 57 499 q 82 517 72 513 q 184 558 164 545 q 207 568 202 568 q 215 551 215 568 q 214 508 215 532 q 211 466 212 483 q 211 444 210 449 q 213 441 211 443 q 216 441 214 440 q 252 480 239 467 q 290 516 265 494 q 339 549 315 538 q 386 559 363 559 q 428 545 411 559 q 446 514 446 530 q 425 463 446 484 q 390 441 404 441 q 357 456 382 441 q 301 472 332 472 q 267 459 286 472 q 236 428 248 446 q 224 406 229 418 q 218 386 219 393 q 216 376 216 379 q 215 231 213 332 q 224 89 218 130 q 246 47 228 62 q 311 24 264 33 q 342 4 342 18 q 307 -8 342 -8 q 229 -4 283 -8 q 151 0 176 0 q 100 -2 135 0 q 56 -4 66 -4 q 35 0 43 -4 q 28 9 28 4 q 58 29 28 22 q 108 62 96 39 q 119 140 119 86 q 115 414 119 368 q 115 424 115 416 q 114 433 114 431 q 113 441 113 435 q 111 449 112 446 q 107 455 109 451 q 101 463 104 460 q 93 469 98 465 q 82 477 89 473 q 68 485 76 481 q 57 494 57 490 z "},"s":{"ha":437,"x_min":46,"x_max":395,"o":"m 271 561 q 338 553 291 561 l 367 547 q 377 538 372 546 q 385 519 382 530 q 389 454 389 479 q 385 437 389 444 q 376 431 380 431 q 354 458 368 431 q 313 513 334 496 q 257 530 292 530 q 197 505 227 530 q 167 440 167 480 q 184 382 167 407 q 256 318 202 357 q 347 244 324 268 q 395 131 395 193 q 371 57 395 90 q 310 5 347 23 q 200 -20 259 -20 q 107 -9 137 -20 q 66 20 79 0 q 46 104 46 51 q 51 130 46 118 q 62 142 55 142 q 77 121 66 142 q 129 42 94 75 q 204 8 163 8 q 263 37 233 8 q 294 104 294 66 q 282 157 294 137 q 240 201 271 176 q 204 229 234 205 q 157 265 174 253 q 77 408 77 328 q 94 477 77 446 q 135 524 111 508 q 271 561 187 561 z "},"t":{"ha":422,"x_min":52,"x_max":414,"o":"m 216 534 l 403 536 q 408 528 405 536 q 412 507 410 520 q 414 482 414 494 q 408 471 414 478 q 397 464 403 464 q 313 467 391 464 q 214 471 234 471 q 208 458 208 471 l 210 184 q 243 69 210 98 q 278 51 254 58 q 317 45 301 45 q 385 62 351 45 q 400 71 398 71 q 405 67 402 71 q 407 62 407 64 q 404 48 407 55 q 392 33 400 41 q 381 22 383 24 q 368 12 378 20 q 317 -11 349 -1 q 256 -20 285 -20 q 191 -7 220 -20 q 146 21 161 5 q 114 78 121 45 q 106 163 106 111 q 113 449 113 434 q 104 468 113 466 l 66 479 q 57 485 62 480 q 52 492 52 490 q 82 522 52 504 q 182 606 130 554 q 204 619 195 619 q 211 600 211 619 q 210 570 211 593 q 210 545 210 547 q 212 538 210 543 q 216 534 214 534 z "},"u":{"ha":658,"x_min":35,"x_max":664,"o":"m 335 53 q 353 54 345 53 q 368 56 361 55 q 381 60 374 57 q 393 64 389 63 q 402 70 397 66 q 411 75 408 74 q 418 81 413 76 q 425 87 424 86 q 431 94 425 88 l 436 100 q 452 168 452 121 q 450 456 452 399 q 428 503 450 496 q 392 514 417 507 q 364 533 364 519 q 389 542 364 542 q 513 546 486 542 q 545 549 529 549 q 554 510 554 549 q 553 453 554 494 q 551 328 552 412 q 550 121 550 243 q 556 57 550 73 q 579 41 562 41 q 623 48 591 41 q 656 54 655 54 q 661 51 659 54 q 664 45 664 47 q 652 18 664 20 q 493 -18 578 8 q 464 -24 479 -24 q 456 -16 460 -24 q 452 1 452 -7 q 453 45 452 18 q 454 77 454 73 q 451 80 454 79 q 447 79 448 81 q 342 3 376 20 q 250 -20 298 -20 q 188 -7 218 -20 q 139 28 158 6 q 106 136 106 63 q 106 254 106 169 q 107 386 107 338 q 104 453 106 434 q 103 467 104 458 q 102 478 102 475 q 100 486 102 480 q 96 493 98 492 q 89 499 94 495 q 77 505 83 503 q 60 511 70 508 q 35 530 35 521 q 64 542 35 542 q 153 545 107 542 q 207 549 198 549 q 210 546 208 549 q 213 537 212 543 q 214 528 214 532 q 207 193 207 375 q 216 116 207 144 q 248 72 225 87 q 335 53 280 51 z "},"v":{"ha":550,"x_min":-11,"x_max":590,"o":"m -11 536 q 14 547 -11 547 q 60 545 23 547 q 126 542 97 542 q 175 544 143 542 q 222 546 208 546 q 245 533 245 546 q 208 513 245 522 q 187 456 172 504 q 309 160 223 351 q 319 161 312 154 q 376 294 326 174 q 441 457 425 414 q 444 495 450 482 q 412 517 437 509 q 389 533 389 524 q 395 542 389 538 q 411 546 401 546 q 443 544 426 546 q 469 542 460 542 q 526 545 490 542 q 568 547 562 547 q 590 538 590 547 q 567 519 590 527 q 520 494 536 509 q 482 435 505 479 q 455 377 474 419 q 411 278 436 334 q 376 199 387 222 q 347 131 362 167 q 316 51 332 94 q 293 -7 299 7 q 278 -22 288 -22 q 258 9 268 -22 q 221 111 243 57 q 75 460 139 322 q 51 498 64 487 q 9 519 37 510 q -11 536 -11 526 z "},"w":{"ha":865,"x_min":-12,"x_max":893,"o":"m -12 538 q 9 549 -12 549 q 58 545 20 549 q 123 542 96 542 q 179 543 146 542 q 220 545 212 545 q 239 541 232 545 q 245 533 245 538 q 218 515 245 519 q 200 511 208 513 q 188 507 193 509 q 181 501 183 505 q 178 494 179 496 q 179 484 177 491 q 182 474 180 477 q 187 460 183 470 q 193 444 191 450 q 226 348 205 410 q 263 241 247 287 q 294 158 279 195 q 307 157 300 142 q 359 278 324 195 q 410 397 393 361 q 416 432 416 416 q 412 447 416 435 q 406 465 408 458 q 380 504 393 494 q 342 521 367 514 q 322 534 322 527 q 345 546 322 546 q 397 544 361 546 q 450 542 433 542 q 501 544 465 542 q 553 546 536 546 q 576 536 576 546 q 570 527 576 532 q 554 521 564 522 q 513 508 524 515 q 503 486 502 500 q 513 446 503 475 q 624 158 555 319 q 628 152 627 153 q 631 153 630 151 q 635 161 633 155 q 736 431 678 255 q 745 476 745 458 q 731 503 745 490 q 697 521 718 515 q 673 536 673 527 q 696 546 673 546 q 746 544 718 546 q 786 542 774 542 q 828 545 800 542 q 868 547 857 547 q 893 534 893 547 q 868 521 893 529 q 842 510 848 513 q 823 497 836 507 q 802 471 811 487 q 782 428 793 455 q 664 129 760 376 l 616 3 q 606 -13 612 -7 q 596 -20 600 -20 q 579 3 587 -20 q 545 94 566 45 q 492 230 529 133 q 440 361 455 326 q 439 361 440 361 q 436 361 437 361 q 433 358 434 360 q 292 24 331 131 q 261 -20 274 -20 q 248 -4 252 -20 q 241 16 245 4 q 229 50 237 28 q 214 94 221 73 q 161 241 202 132 q 93 411 119 350 q 83 435 90 418 q 75 456 77 451 q 67 472 73 460 q 59 486 62 483 q 51 497 56 490 q 39 507 45 504 q 25 514 33 510 q 7 522 17 519 q -12 538 -12 528 z "},"x":{"ha":570,"x_min":-8,"x_max":587,"o":"m -8 534 q 20 546 -6 546 q 77 544 37 546 q 132 542 117 542 q 182 544 145 542 q 243 546 220 546 q 259 543 255 546 q 262 534 264 541 q 232 518 262 525 q 201 493 201 513 q 237 427 200 485 q 296 345 274 368 q 301 343 297 342 q 306 345 304 343 l 375 449 q 392 479 387 468 q 392 498 397 491 q 380 509 388 505 q 355 517 373 512 q 335 530 335 524 q 342 539 336 535 q 355 543 348 543 q 386 543 368 543 q 407 542 404 542 q 473 546 423 542 q 532 550 522 550 q 555 541 555 550 q 533 524 553 530 q 487 504 507 515 q 459 486 467 492 q 432 461 451 479 q 378 392 416 443 q 323 315 340 342 q 322 308 322 313 q 322 300 321 302 q 404 176 349 254 q 484 71 460 98 q 562 24 509 36 q 581 16 574 21 q 586 7 587 11 q 577 -3 586 1 q 557 -7 568 -7 q 479 -3 524 -7 q 425 0 435 0 q 364 -2 398 0 q 322 -4 330 -4 q 294 8 294 -4 q 325 25 296 18 q 353 82 381 37 q 268 211 311 153 q 258 211 266 216 q 157 61 159 76 q 165 41 157 48 q 199 25 174 33 q 213 18 207 22 q 218 8 219 14 q 195 -4 218 -4 q 151 -3 177 -4 q 114 -1 125 -1 q 61 -5 92 -1 q 22 -8 29 -8 q -5 1 -5 -8 q 21 21 -5 12 q 58 35 42 26 q 80 49 73 43 q 98 66 87 55 q 113 80 105 72 q 133 103 120 87 q 158 134 146 119 q 194 181 169 148 q 241 241 220 214 q 244 250 243 244 q 243 256 244 255 q 87 476 129 431 q 17 518 61 507 q -8 534 -8 524 z "},"y":{"ha":540,"x_min":-20,"x_max":579,"o":"m -20 536 q 9 546 -20 546 q 61 544 22 546 q 114 542 100 542 q 174 544 134 542 q 222 546 214 546 q 248 534 248 546 q 215 518 248 526 q 181 493 186 511 q 193 424 176 476 q 219 353 194 422 q 268 221 243 285 q 301 140 292 157 q 305 136 302 137 q 310 140 308 136 q 437 447 371 273 q 393 517 458 503 q 366 534 366 523 q 393 546 366 546 q 431 544 403 546 q 471 542 458 542 q 512 544 480 542 q 555 546 545 546 q 579 532 579 546 q 578 529 579 530 q 575 526 578 528 q 570 524 572 525 q 563 522 568 524 q 554 518 558 519 q 516 496 530 509 q 488 457 503 484 q 397 256 478 439 q 292 28 316 73 q 250 -66 285 16 q 201 -180 237 -95 q 140 -321 166 -266 q 115 -349 132 -340 q 82 -358 98 -358 q 41 -343 60 -358 q 22 -298 22 -328 q 38 -255 22 -272 q 81 -239 54 -239 q 97 -241 83 -239 q 114 -244 111 -244 q 149 -203 122 -244 q 192 -110 162 -180 q 233 -5 222 -39 q 235 28 239 11 q 229 44 233 31 q 217 77 224 57 q 203 121 210 98 q 176 192 195 146 q 126 318 158 238 q 83 424 94 398 q 51 492 66 471 q 8 518 36 513 q -20 536 -20 524 z "},"z":{"ha":512,"x_min":37,"x_max":488,"o":"m 275 541 q 359 541 302 541 l 416 542 q 440 536 435 542 q 432 514 444 530 q 382 428 416 492 q 294 258 374 412 q 195 54 214 103 q 199 36 189 37 q 358 35 278 29 q 412 51 393 37 q 458 114 431 66 q 479 139 471 139 q 485 133 483 139 q 488 121 488 126 q 475 5 488 84 q 466 -7 474 -2 q 452 -12 458 -12 q 374 -8 440 -12 q 243 -3 308 -5 q 154 0 179 0 q 106 -2 140 0 q 66 -4 71 -4 q 58 2 62 -4 q 54 12 54 7 q 68 39 54 14 q 106 106 83 64 q 144 176 130 148 q 298 496 287 456 q 292 504 298 504 q 138 501 174 506 q 97 482 113 497 q 68 432 81 467 q 49 406 56 406 q 37 427 37 406 q 38 435 37 429 q 40 450 39 441 q 41 464 41 458 q 47 546 47 524 q 56 561 47 561 q 72 555 64 561 q 132 543 87 545 q 275 541 191 541 z "},"{":{"ha":471,"x_min":35,"x_max":414,"o":"m 50 399 q 178 538 178 429 q 161 665 178 566 q 144 779 144 764 q 180 894 144 840 q 273 979 216 948 q 389 1010 329 1010 q 414 1002 414 1010 q 380 982 414 989 q 268 922 313 970 q 222 802 222 873 q 239 682 222 766 q 256 562 256 598 q 216 469 256 513 q 104 395 176 425 q 103 385 96 389 q 257 189 257 304 q 237 53 257 142 q 216 -77 216 -36 q 262 -184 216 -140 q 386 -250 307 -227 q 396 -256 391 -250 q 401 -265 401 -262 q 371 -273 401 -273 q 203 -201 267 -273 q 139 -33 139 -130 q 154 73 139 -21 q 170 200 170 167 q 150 302 170 269 q 75 353 130 335 q 45 370 56 359 q 35 387 35 380 q 50 399 35 393 z "},"|":{"ha":350,"x_min":138,"x_max":211,"o":"m 138 1032 l 211 1032 l 211 -345 l 138 -345 l 138 1032 z "},"}":{"ha":471,"x_min":60,"x_max":439,"o":"m 439 374 q 433 365 439 370 q 424 359 427 359 q 296 224 296 332 q 312 85 296 198 q 329 -45 329 -28 q 253 -205 329 -136 q 82 -273 176 -273 q 60 -265 60 -273 q 92 -243 60 -249 q 205 -183 160 -229 q 250 -65 250 -136 q 233 67 250 -28 q 216 200 216 163 q 256 297 216 250 q 366 371 296 344 q 366 380 373 376 q 252 469 290 422 q 215 575 215 516 q 235 694 215 616 q 256 814 256 773 q 85 985 256 937 q 75 991 79 987 q 71 999 71 996 q 81 1007 71 1004 q 100 1010 91 1010 q 224 975 170 1010 q 307 886 279 940 q 335 770 335 831 q 319 677 335 758 q 302 564 302 596 q 322 459 302 494 q 397 406 342 425 q 427 390 414 399 q 439 374 439 380 z "},"~":{"ha":722,"x_min":65,"x_max":656,"o":"m 492 278 q 552 299 526 278 q 606 374 579 319 q 611 380 606 375 q 619 385 616 385 q 652 368 640 385 q 654 360 653 367 q 654 350 656 353 q 482 210 598 210 q 335 272 424 210 q 232 319 268 319 q 173 297 199 319 q 118 222 146 275 q 102 205 110 205 q 69 221 91 205 q 66 229 67 223 q 66 237 65 235 q 136 342 90 301 q 241 383 182 383 q 383 326 302 383 q 492 278 452 278 z "},"":{"ha":262,"x_min":0,"x_max":0,"o":""},"":{"ha":328,"x_min":85,"x_max":228,"o":"m 158 -297 q 108 -260 125 -297 q 93 -182 92 -224 q 139 237 93 -127 q 155 273 142 273 q 175 239 169 273 q 194 103 179 208 q 216 -73 208 -2 q 225 -178 224 -143 q 204 -269 225 -241 q 158 -297 184 -297 m 207 436 q 196 424 207 436 q 155 412 186 412 q 105 434 125 412 q 85 488 85 455 q 105 542 85 519 q 155 564 125 564 q 207 542 185 564 q 228 489 228 520 q 207 436 228 460 z "},"":{"ha":626,"x_min":82,"x_max":543,"o":"m 307 252 q 310 252 308 251 q 314 255 312 253 q 315 258 315 256 l 354 669 q 346 676 354 676 q 261 643 301 675 q 198 561 221 610 q 175 463 175 511 q 307 252 175 311 m 211 653 q 274 684 233 669 q 353 705 314 699 q 358 713 358 705 l 367 793 q 369 797 367 794 q 372 799 370 799 q 388 797 379 799 q 396 791 396 794 l 389 714 q 396 707 389 707 q 521 679 488 705 q 543 642 543 665 q 531 615 543 629 q 513 600 519 600 q 464 631 498 600 q 392 669 437 656 q 386 667 389 670 q 383 663 383 665 l 347 250 q 349 244 347 248 q 353 240 351 240 q 380 239 362 239 q 522 296 454 239 q 538 302 532 305 q 541 298 541 301 q 519 258 541 282 q 438 194 486 217 q 345 168 391 172 q 341 165 342 168 q 339 160 339 162 l 330 62 q 319 57 328 60 q 306 54 310 54 q 298 58 298 54 l 307 160 q 301 170 307 170 q 196 203 242 176 q 122 272 150 230 q 82 419 82 334 q 116 552 82 490 q 211 653 150 614 z "},"":{"ha":673,"x_min":7,"x_max":657,"o":"m 612 783 q 570 710 612 726 q 561 711 566 709 q 555 715 555 713 l 555 743 q 527 825 554 791 q 458 860 499 860 q 414 843 436 860 q 369 785 392 825 q 330 665 347 745 q 309 472 313 584 q 313 465 309 465 q 315 465 314 465 l 478 473 q 493 461 493 473 q 482 449 493 456 q 467 441 471 441 l 313 432 q 304 424 304 432 q 187 153 286 247 q 185 145 184 149 q 191 142 186 142 q 350 79 237 142 q 500 26 453 26 q 579 45 554 26 q 604 119 604 64 q 590 199 604 159 q 592 209 588 204 q 600 214 596 214 q 637 197 618 214 q 657 149 657 180 q 623 57 657 104 q 533 -22 589 9 q 419 -54 477 -54 q 244 33 348 -54 q 144 93 174 93 q 131 89 140 93 q 118 81 121 85 q 93 45 111 72 q 59 1 75 18 q 33 -17 44 -17 q 14 -10 21 -17 q 7 4 7 -3 q 36 63 7 28 q 109 126 64 99 q 120 133 112 128 q 132 139 129 137 q 169 215 155 162 q 187 408 182 268 q 179 424 187 424 l 86 419 q 76 422 82 419 q 71 429 71 425 q 77 442 71 435 q 87 450 83 449 l 180 456 q 189 465 189 458 q 239 706 201 619 q 335 840 277 793 q 401 873 361 860 q 481 886 442 886 q 576 856 541 886 q 612 783 612 826 z "},"":{"ha":626,"x_min":66,"x_max":557,"o":"m 310 621 q 186 570 235 621 q 138 437 138 520 q 189 306 138 358 q 310 253 240 253 q 432 306 380 253 q 484 437 484 358 q 432 568 484 516 q 310 621 380 621 m 310 685 q 437 642 376 685 q 452 643 442 637 l 511 703 q 530 710 523 714 q 554 682 546 699 q 550 664 557 677 l 492 597 q 494 586 490 595 q 542 440 542 516 q 496 293 542 353 q 493 281 490 288 l 549 211 q 551 195 556 203 q 528 170 545 179 q 511 171 522 166 l 449 235 q 439 235 446 237 q 310 191 378 191 q 180 232 241 191 q 171 233 176 237 l 109 167 q 100 163 106 164 q 89 164 93 162 q 69 191 81 169 l 69 203 l 127 275 q 126 286 130 278 q 78 437 78 347 q 126 586 78 519 q 127 599 132 595 l 75 667 q 69 678 73 669 q 68 690 66 687 q 90 713 80 709 q 107 715 103 720 l 172 639 q 183 639 177 636 q 310 685 242 685 z "},"":{"ha":673,"x_min":11,"x_max":663,"o":"m 386 418 l 386 342 q 388 335 386 338 q 393 332 391 332 l 528 332 q 530 330 528 332 q 532 327 531 329 q 533 321 533 324 q 530 310 533 318 q 525 305 530 307 q 518 302 519 302 l 395 301 q 386 282 386 301 l 386 149 q 386 105 386 119 q 390 77 387 92 q 397 56 393 61 q 412 42 401 50 q 436 31 424 35 q 472 21 448 27 q 486 14 483 18 q 489 4 490 11 q 479 -1 489 1 q 460 -4 470 -4 q 407 -2 446 -4 q 339 0 368 0 q 275 -2 320 0 q 211 -4 231 -4 q 189 5 189 -4 q 214 25 189 20 q 266 51 255 34 q 279 130 277 68 q 281 157 280 135 q 281 224 281 178 q 282 292 282 270 q 280 298 282 296 q 275 301 277 301 l 143 302 q 139 306 141 302 q 136 313 136 309 q 139 325 136 319 q 149 332 144 332 l 272 332 q 278 335 273 332 q 282 340 282 338 l 282 421 q 275 432 282 432 l 153 432 q 147 441 147 432 q 150 456 147 445 q 158 463 153 463 l 272 464 q 277 468 275 464 q 277 475 279 471 q 123 766 254 531 q 86 819 103 803 q 36 844 68 836 q 11 859 11 850 q 39 871 11 871 q 85 869 47 871 q 142 867 123 867 q 205 869 163 867 q 257 871 246 871 q 279 863 279 871 q 254 840 279 848 q 224 819 227 831 q 235 779 220 807 q 370 513 277 691 q 375 510 371 510 q 380 513 378 509 q 478 714 410 569 q 510 807 510 787 q 500 830 510 823 q 458 846 490 838 q 449 850 454 847 q 442 857 444 854 q 440 860 440 859 q 464 871 440 871 q 506 869 478 871 q 546 867 533 867 q 596 868 564 866 q 642 871 629 871 q 663 861 663 871 q 655 851 663 859 q 642 842 647 844 q 584 816 602 831 q 541 754 566 800 q 396 473 481 647 q 396 467 394 471 q 401 464 399 464 l 529 464 q 534 461 531 464 q 536 454 536 458 q 534 441 536 450 q 529 436 534 439 q 522 433 525 433 l 395 433 q 389 428 391 433 q 386 418 386 422 z "},"":{"ha":350,"x_min":139,"x_max":211,"o":"m 139 -240 l 139 240 l 211 240 l 211 -240 l 139 -240 m 139 928 l 211 928 l 211 447 l 139 447 l 139 928 z "},"":{"ha":561,"x_min":66,"x_max":493,"o":"m 355 856 q 408 840 387 856 q 419 822 419 831 q 410 802 419 816 q 393 779 401 787 q 372 772 380 768 q 289 794 321 794 q 231 773 253 794 q 208 711 208 751 q 218 673 208 694 q 247 626 228 651 q 280 584 265 602 q 318 541 295 566 q 347 509 342 515 q 493 249 493 355 q 476 133 493 192 q 445 47 458 73 q 410 -16 431 21 q 278 -144 361 -98 q 192 -170 231 -170 q 136 -156 160 -168 q 111 -127 111 -144 q 165 -71 111 -111 q 195 -79 176 -66 q 224 -96 205 -89 q 260 -103 243 -103 q 325 -84 302 -109 q 349 -12 349 -60 q 215 183 349 46 q 99 331 131 269 q 66 463 66 393 q 81 547 66 505 q 112 614 96 589 q 154 675 127 640 q 174 732 157 699 q 214 789 190 764 q 355 856 284 856 m 302 429 q 196 560 224 521 q 158 631 168 599 q 153 633 157 633 q 129 580 140 615 q 118 521 118 545 q 128 457 118 489 q 150 401 138 425 q 187 346 162 378 q 226 298 212 314 q 271 250 240 283 q 359 145 320 201 q 407 49 398 90 q 411 44 408 45 q 415 47 413 43 q 433 104 425 70 q 441 160 441 138 q 430 234 441 197 q 395 307 419 270 q 353 368 371 345 q 302 429 335 391 z "},"":{"ha":555,"x_min":127,"x_max":427,"o":"m 380 803 q 414 787 401 803 q 427 750 427 772 q 411 712 427 729 q 374 696 395 696 q 338 710 353 696 q 323 742 323 725 q 339 786 323 768 q 380 803 355 803 m 180 802 q 219 787 203 802 q 235 749 235 772 q 219 709 235 723 q 180 694 203 694 q 142 710 157 694 q 127 745 127 725 q 145 784 127 766 q 180 802 162 802 z "},"":{"ha":1022,"x_min":62,"x_max":960,"o":"m 511 892 q 693 856 609 892 q 835 759 777 820 q 926 613 893 697 q 960 436 960 530 q 926 260 960 343 q 833 115 892 176 q 690 18 774 54 q 511 -18 606 -18 q 278 43 381 -18 q 118 208 174 104 q 62 436 62 311 q 122 665 62 560 q 285 831 182 770 q 511 892 389 892 m 511 857 q 311 802 404 857 q 164 649 219 746 q 110 437 110 553 q 144 273 110 351 q 234 138 178 194 q 363 50 290 83 q 513 17 436 17 q 715 73 624 17 q 859 224 807 128 q 911 437 911 321 q 859 650 911 553 q 714 802 806 746 q 511 857 623 857 m 549 704 q 637 694 582 704 q 661 690 638 694 q 696 686 684 686 q 707 668 705 686 q 710 628 707 662 q 713 578 713 595 q 705 559 713 559 q 692 574 698 559 q 632 653 665 632 q 532 677 592 677 q 431 646 473 677 q 370 566 389 614 q 351 463 351 518 q 412 285 351 357 q 555 214 473 214 q 637 235 601 214 q 707 310 674 256 q 716 323 712 319 q 722 327 720 327 q 728 328 724 328 q 733 322 732 328 q 733 313 734 317 q 723 267 731 292 q 707 227 715 241 q 669 205 699 217 q 542 183 585 183 q 353 241 431 183 q 280 330 306 278 q 254 440 254 381 q 278 551 254 500 q 345 636 301 602 q 549 704 420 704 z "},"":{"ha":342,"x_min":32,"x_max":340,"o":"m 183 754 q 253 719 230 754 q 277 640 277 684 q 275 571 277 623 q 273 504 273 519 q 280 460 273 477 q 306 444 286 444 q 330 450 318 444 q 340 447 340 454 q 336 432 340 438 q 309 402 328 413 q 271 392 290 392 q 212 435 230 392 q 209 437 212 437 q 204 436 205 437 q 195 430 202 435 q 184 424 187 425 q 174 417 181 422 q 164 411 168 413 q 154 406 161 410 q 143 401 147 403 q 133 398 139 400 q 121 394 126 395 q 110 393 116 393 q 98 392 104 392 q 54 415 75 392 q 32 468 32 437 q 75 533 32 515 q 142 554 91 540 q 208 574 193 568 q 214 585 214 576 q 215 663 218 635 q 194 705 213 690 q 149 720 175 720 q 123 714 132 720 q 103 669 106 707 q 103 667 103 667 q 96 659 101 661 q 45 635 55 638 q 37 636 40 633 q 33 646 33 640 q 79 705 33 667 q 132 739 102 723 q 183 754 162 754 m 100 478 q 113 448 100 460 q 144 436 127 436 q 199 453 177 436 q 210 471 208 463 q 212 547 212 495 q 211 552 212 550 q 207 554 210 555 q 127 528 168 546 q 105 509 111 520 q 100 478 100 497 z "},"":{"ha":794,"x_min":83,"x_max":710,"o":"m 83 283 q 98 294 83 287 q 207 356 153 321 q 324 436 260 390 q 390 484 388 482 q 424 498 411 498 q 428 488 434 498 q 416 475 425 483 q 323 381 382 437 q 220 289 264 326 q 218 277 212 283 q 408 86 339 174 q 417 72 414 79 q 417 61 419 65 q 411 57 416 57 q 387 69 401 57 q 98 265 213 203 q 83 283 83 273 m 363 283 q 378 294 363 287 q 486 356 433 321 q 604 436 540 390 q 669 484 667 482 q 703 498 690 498 q 709 493 709 498 q 696 473 708 486 q 604 382 663 436 q 498 289 545 328 q 497 277 491 283 q 688 86 620 172 q 696 72 694 79 q 697 61 699 65 q 690 57 695 57 q 667 69 680 57 q 378 265 492 203 q 363 283 363 273 z "},"":{"ha":722,"x_min":74,"x_max":647,"o":"m 92 412 l 635 412 q 644 403 640 412 q 647 386 647 393 l 647 65 q 636 47 647 52 q 595 40 618 40 q 584 43 589 40 q 579 50 579 47 l 574 328 q 570 340 574 334 q 562 347 566 347 l 93 349 q 80 353 86 349 q 74 361 74 357 q 79 400 74 387 q 85 408 80 404 q 92 412 90 412 z "},"":{"ha":408,"x_min":56,"x_max":353,"o":"m 79 304 q 205 321 98 308 q 340 336 313 334 q 349 330 346 336 q 353 319 353 324 q 347 277 353 286 q 338 269 345 273 q 329 264 332 264 q 197 249 306 260 q 71 237 89 237 q 60 243 64 237 q 56 254 56 248 q 64 293 56 277 q 72 300 66 296 q 79 304 77 304 z "},"":{"ha":276,"x_min":22,"x_max":257,"o":"m 139 897 q 224 864 191 897 q 257 781 257 831 q 223 697 257 731 q 138 663 189 663 q 57 696 91 663 q 22 781 22 730 q 56 863 22 828 q 139 897 89 897 m 139 882 q 70 853 99 882 q 41 781 41 824 q 71 709 41 739 q 139 679 101 679 q 210 708 182 679 q 237 781 237 738 q 207 852 237 823 q 139 882 176 882 m 102 758 l 102 810 q 99 826 102 823 q 87 831 97 829 q 83 832 84 831 q 82 836 81 834 q 87 839 83 838 q 139 842 132 842 q 184 810 184 842 q 164 786 184 793 l 164 782 q 200 733 183 740 q 207 729 207 731 q 195 724 207 724 q 160 739 172 724 l 146 761 q 129 779 136 779 q 125 777 125 779 l 125 760 q 127 743 125 747 q 139 736 130 738 q 145 732 143 734 q 145 728 146 730 q 139 726 144 726 q 127 727 134 726 q 115 728 120 728 q 102 727 111 728 q 87 726 94 726 q 82 728 83 726 q 81 731 80 729 q 87 734 83 733 q 102 758 102 738 m 125 825 l 125 793 q 131 789 125 789 q 153 791 147 789 q 160 810 160 795 q 153 825 160 819 q 136 831 145 831 q 127 829 130 831 q 125 825 125 828 z "},"":{"ha":555,"x_min":142,"x_max":415,"o":"m 158 753 l 406 755 q 412 750 409 755 q 415 739 415 745 q 407 701 415 726 q 392 693 405 693 l 151 688 q 144 692 147 688 q 142 700 142 696 q 149 746 142 734 q 158 753 155 753 z "},"":{"ha":333,"x_min":36,"x_max":296,"o":"m 171 880 q 258 844 221 880 q 296 751 296 808 q 256 660 296 697 q 165 623 217 623 q 74 659 112 623 q 36 751 36 696 q 76 843 36 806 q 171 880 117 880 m 220 815 q 208 828 220 815 q 163 840 195 840 q 107 815 130 840 q 85 751 85 790 q 111 686 85 711 q 168 661 137 661 q 222 686 199 661 q 245 751 245 710 q 220 815 245 789 z "},"":{"ha":722,"x_min":64,"x_max":659,"o":"m 326 664 q 329 671 326 667 q 335 676 332 675 q 385 681 349 681 q 393 672 389 681 q 396 656 396 664 l 396 428 q 399 421 396 425 q 404 418 403 418 l 650 416 q 656 411 653 416 q 659 401 659 405 q 653 364 659 373 q 639 355 648 355 l 406 353 q 399 348 402 353 q 396 340 396 343 l 396 106 q 385 89 396 94 q 342 83 368 83 q 333 88 336 83 q 329 98 329 92 l 326 339 q 325 346 326 342 q 322 351 323 349 q 319 353 320 353 l 83 354 q 64 371 64 354 q 71 408 64 393 q 81 418 75 418 l 318 418 q 325 422 322 418 q 328 428 328 426 l 326 664 m 81 35 l 650 33 q 656 27 653 33 q 659 18 659 22 q 653 -20 659 -11 q 639 -28 649 -28 l 83 -29 q 64 -12 64 -29 q 71 25 64 9 q 81 35 75 35 z "},"":{"ha":414,"x_min":36,"x_max":380,"o":"m 199 1079 q 288 1042 252 1079 q 323 946 323 1004 q 260 817 323 886 l 129 679 q 129 672 127 675 q 134 668 130 668 q 232 667 159 668 q 304 665 304 665 q 355 707 328 669 q 375 724 369 724 q 380 715 380 724 q 376 696 380 706 q 345 607 353 650 q 336 599 341 599 q 253 600 335 599 q 147 602 170 602 l 62 602 q 36 610 36 602 q 49 632 36 619 q 74 656 57 640 q 106 688 91 673 q 134 717 121 703 q 215 824 184 767 q 245 932 245 881 q 221 994 245 972 q 160 1017 196 1017 q 69 971 105 1017 q 45 966 47 954 q 61 999 45 974 q 121 1057 85 1035 q 199 1079 157 1079 z "},"":{"ha":414,"x_min":50,"x_max":359,"o":"m 207 1079 q 284 1048 254 1079 q 314 986 314 1018 q 239 886 314 929 q 236 881 237 885 q 239 878 236 878 q 359 760 359 860 q 325 665 359 709 q 229 591 290 622 q 119 562 176 562 q 73 575 96 562 q 50 604 50 589 q 59 622 50 611 q 77 639 68 633 q 93 636 85 644 q 178 606 127 606 q 256 636 224 606 q 288 721 288 667 q 258 797 288 769 q 186 825 229 825 q 164 824 174 825 q 144 820 154 823 q 131 817 134 817 q 123 816 127 815 q 118 819 118 817 q 126 836 118 828 q 161 857 132 842 q 225 902 208 882 q 243 958 243 922 q 222 1007 243 987 q 171 1028 202 1028 q 89 991 128 1028 q 72 982 79 982 q 69 989 69 982 q 72 1000 69 996 q 128 1058 90 1036 q 207 1079 166 1079 z "},"":{"ha":555,"x_min":235,"x_max":428,"o":"m 401 864 q 401 821 428 864 q 336 720 378 781 q 264 621 294 659 q 244 607 252 607 q 243 635 235 607 q 326 831 268 711 q 343 848 333 842 q 372 859 353 853 q 401 864 391 864 z "},"":{"ha":648,"x_min":97,"x_max":639,"o":"m 138 568 q 199 543 164 568 q 202 537 199 543 q 208 523 205 530 q 211 511 211 515 q 193 354 214 477 q 164 158 178 276 q 168 118 161 138 q 197 89 178 99 q 235 79 216 79 q 327 139 278 79 q 406 272 376 199 q 416 328 413 291 q 435 530 432 517 q 446 556 437 543 q 461 570 455 570 q 475 568 468 570 q 488 565 482 567 q 499 561 493 564 q 509 556 505 558 q 518 550 513 553 q 525 545 523 547 q 530 540 527 543 q 534 536 534 537 q 541 488 543 528 q 510 355 536 443 q 464 220 484 267 q 453 178 453 201 q 479 106 453 127 q 536 85 505 85 q 624 126 587 85 q 632 129 628 130 q 637 122 636 127 q 633 87 639 113 q 621 49 627 62 q 522 -25 587 -25 q 460 16 485 -25 q 435 136 435 56 q 431 142 435 142 q 425 139 427 142 q 258 -16 331 -16 q 228 -6 243 -16 q 199 23 213 3 q 178 55 185 43 q 160 87 172 66 q 152 91 156 94 q 147 79 149 87 q 139 -53 144 55 q 138 -187 134 -160 q 146 -219 140 -205 q 163 -244 152 -233 q 182 -261 174 -254 q 207 -278 190 -267 q 232 -294 223 -288 q 235 -302 235 -296 q 232 -314 235 -309 q 227 -321 231 -317 q 218 -328 223 -324 q 208 -335 212 -332 q 197 -341 203 -338 q 189 -346 191 -345 q 151 -355 168 -355 q 123 -334 136 -355 q 103 -204 103 -298 l 103 117 q 102 192 104 139 q 97 542 97 287 q 111 562 97 556 q 138 568 123 568 z "},"":{"ha":730,"x_min":72,"x_max":692,"o":"m 606 843 l 657 843 q 683 835 674 843 q 692 821 692 827 q 687 809 692 814 q 675 804 682 804 l 534 804 q 520 791 526 804 q 515 758 515 778 q 516 410 515 591 q 518 113 517 229 q 519 -11 519 -3 q 518 -74 519 -46 q 513 -135 517 -101 q 503 -195 509 -170 q 483 -246 496 -220 q 454 -288 471 -272 q 411 -315 437 -304 q 354 -325 386 -325 q 266 -293 306 -325 q 227 -201 227 -261 q 257 -111 227 -145 q 329 -77 288 -77 q 375 -96 356 -77 q 395 -139 395 -115 q 374 -188 395 -169 q 336 -207 354 -207 q 300 -195 317 -207 q 281 -186 286 -186 q 271 -192 275 -186 q 267 -205 267 -199 q 295 -269 267 -246 q 358 -292 323 -292 q 417 -272 393 -292 q 454 -216 441 -252 q 472 -139 467 -180 q 478 -46 477 -98 l 478 167 q 474 178 478 173 q 465 183 470 183 q 351 195 407 183 q 244 233 296 207 q 155 297 193 260 q 95 390 117 335 q 72 511 72 445 q 95 636 72 585 q 163 730 118 687 q 395 833 258 823 q 606 843 502 843 z "},"":{"ha":261,"x_min":60,"x_max":205,"o":"m 131 347 q 183 325 161 347 q 205 271 205 302 q 184 218 205 239 q 131 196 162 196 q 81 217 102 196 q 60 269 60 239 q 81 323 60 299 q 131 347 102 347 z "},"":{"ha":555,"x_min":175,"x_max":350,"o":"m 350 -163 q 283 -268 350 -221 q 204 -298 237 -298 q 175 -282 175 -298 q 187 -264 175 -278 q 205 -254 199 -252 q 243 -260 224 -260 q 278 -243 264 -260 q 293 -208 293 -227 q 272 -165 293 -183 q 222 -147 252 -147 l 204 -147 q 196 -143 200 -147 q 192 -138 192 -140 q 201 -118 192 -127 q 304 3 254 -66 l 330 3 q 300 -40 318 -14 q 279 -69 281 -66 q 278 -75 277 -71 q 279 -79 278 -78 q 350 -163 350 -108 z "},"":{"ha":414,"x_min":98,"x_max":343,"o":"m 115 1032 q 120 1039 115 1035 q 132 1043 125 1042 q 261 1075 219 1055 q 267 1075 264 1077 q 271 1069 271 1072 l 269 1036 q 267 956 268 1003 q 265 873 265 909 q 267 700 265 736 q 277 644 269 656 q 325 619 286 632 q 343 607 343 613 q 336 600 343 603 q 321 597 330 597 q 276 600 305 597 q 232 602 246 602 q 173 599 214 602 q 121 596 132 596 q 98 604 98 596 q 125 621 98 617 q 172 640 159 626 q 186 681 184 654 q 191 871 191 746 q 189 982 191 964 q 185 999 189 992 q 172 1009 181 1006 q 157 1015 162 1013 q 139 1018 153 1016 q 115 1032 115 1023 z "},"":{"ha":426,"x_min":33,"x_max":393,"o":"m 211 754 q 339 705 284 754 q 393 578 393 655 q 341 444 393 496 q 218 392 288 392 q 88 443 142 392 q 33 571 33 494 q 85 701 33 648 q 211 754 137 754 m 207 733 q 135 689 159 733 q 111 575 111 645 q 142 464 111 513 q 220 415 172 415 q 292 458 269 415 q 317 567 315 501 q 286 683 318 633 q 207 733 254 733 z "},"":{"ha":794,"x_min":84,"x_max":711,"o":"m 711 273 q 697 262 711 270 q 605 211 654 241 q 528 162 556 181 q 454 110 500 143 q 404 74 408 77 q 371 57 376 57 q 366 59 368 57 q 365 68 363 61 q 376 85 366 75 q 574 268 445 161 q 577 275 577 271 q 576 281 578 280 q 386 469 455 382 q 378 497 370 490 l 383 498 q 406 488 393 498 q 549 383 467 439 q 697 292 632 326 q 711 273 711 283 m 432 273 q 416 262 432 270 q 325 212 374 241 q 248 162 277 182 q 175 110 218 142 q 125 74 132 79 q 92 57 97 57 q 86 59 89 57 q 85 68 84 61 q 97 85 87 75 q 294 268 165 161 q 298 275 298 271 q 297 281 298 280 q 107 469 178 380 q 99 497 92 490 l 104 498 q 126 488 114 498 q 416 292 288 360 q 432 273 432 282 z "},"":{"ha":873,"x_min":98,"x_max":859,"o":"m 115 832 q 120 839 115 835 q 132 843 125 842 q 261 875 219 854 q 267 874 264 877 q 271 869 271 872 l 269 836 q 267 756 268 803 q 265 673 265 709 q 267 500 265 536 q 277 444 269 456 q 325 419 286 432 q 343 407 343 413 q 336 400 343 403 q 321 397 330 397 q 276 399 305 397 q 232 401 246 401 q 173 399 214 401 q 121 396 132 396 q 98 404 98 396 q 125 421 98 418 q 172 440 159 427 q 186 481 184 454 q 191 671 191 546 q 189 782 191 764 q 185 799 189 792 q 172 809 181 806 q 157 814 162 813 q 139 818 153 816 q 115 832 115 823 m 742 884 q 761 900 753 900 q 781 888 768 900 q 781 873 785 883 q 598 591 737 806 q 370 238 458 376 q 197 -33 281 99 q 187 -39 192 -39 q 170 -26 179 -39 q 168 -20 167 -25 q 171 -13 170 -16 q 174 -7 172 -10 l 176 -3 q 450 427 258 125 q 742 884 642 728 m 704 -24 q 694 -1 694 -24 q 696 52 694 1 q 697 131 697 103 q 692 143 697 143 q 493 140 551 143 q 486 145 489 140 q 482 153 482 149 q 484 158 482 155 q 491 167 486 161 q 497 174 496 172 q 597 296 504 182 q 701 424 690 411 q 758 478 745 478 q 768 452 768 478 q 769 398 768 450 q 769 287 769 347 q 770 201 770 227 q 778 192 770 192 q 851 195 809 192 q 859 186 859 195 q 855 169 857 181 q 851 151 852 157 q 844 143 850 143 l 775 143 q 773 140 774 143 q 771 135 771 136 q 772 64 771 114 q 772 5 772 14 q 761 -17 772 -13 q 733 -21 755 -19 q 704 -24 711 -24 m 700 367 q 696 370 700 370 q 692 370 693 371 q 629 295 686 362 q 557 205 572 227 q 556 199 554 201 q 562 196 559 196 q 690 191 569 195 q 697 200 697 191 q 700 367 697 292 z "},"":{"ha":922,"x_min":98,"x_max":888,"o":"m 705 478 q 795 440 759 478 q 831 345 831 403 q 766 215 831 286 l 636 78 q 635 71 634 75 q 640 66 637 66 q 738 65 666 66 q 811 64 810 64 q 863 106 835 67 q 882 122 876 122 q 887 113 886 122 q 884 94 888 104 q 851 5 859 46 q 843 -3 848 -3 q 760 -1 842 -3 q 654 0 677 0 l 570 0 q 543 8 543 0 q 555 31 543 18 q 581 55 564 39 q 612 86 597 71 q 640 115 627 101 q 722 222 690 165 q 753 330 753 279 q 728 393 753 370 q 667 415 703 415 q 576 370 612 415 q 552 361 557 350 l 551 366 q 568 397 551 371 q 628 456 593 433 q 705 478 664 478 m 115 832 q 120 839 115 835 q 132 843 125 842 q 261 875 219 854 q 267 874 264 877 q 271 869 271 872 l 269 836 q 267 756 268 803 q 265 673 265 709 q 267 500 265 536 q 277 444 269 456 q 325 419 286 432 q 343 407 343 413 q 336 400 343 403 q 321 397 330 397 q 276 399 305 397 q 232 401 246 401 q 173 399 214 401 q 121 396 132 396 q 98 404 98 396 q 125 421 98 418 q 172 440 159 427 q 186 481 184 454 q 191 671 191 546 q 189 782 191 764 q 185 799 189 792 q 172 809 181 806 q 157 814 162 813 q 139 818 153 816 q 115 832 115 823 m 742 884 q 761 900 753 900 q 781 888 768 900 q 781 873 785 883 q 598 591 737 806 q 370 238 458 376 q 197 -33 281 99 q 187 -39 192 -39 q 170 -26 179 -39 q 168 -20 167 -25 q 171 -13 170 -16 q 174 -7 172 -10 l 176 -3 q 450 427 258 125 q 742 884 642 728 z "},"":{"ha":831,"x_min":50,"x_max":817,"o":"m 207 879 q 284 848 254 879 q 314 786 314 818 q 239 686 314 729 q 236 681 237 685 q 239 677 236 677 q 359 559 359 660 q 325 466 359 509 q 229 392 290 423 q 119 363 176 363 q 73 376 96 363 q 50 404 50 389 q 59 422 50 411 q 77 439 68 433 q 93 436 85 444 q 178 406 127 406 q 256 436 224 406 q 288 521 288 467 q 258 597 288 569 q 186 625 229 625 q 164 624 174 625 q 144 620 154 623 q 131 616 134 617 q 123 616 127 615 q 118 619 118 617 q 126 636 118 628 q 161 657 132 642 q 225 702 208 682 q 243 758 243 722 q 222 807 243 787 q 171 828 202 828 q 89 791 128 828 q 72 782 79 782 q 69 788 69 782 q 72 800 69 795 q 128 858 90 836 q 207 879 166 879 m 745 900 q 764 888 751 900 q 764 873 768 883 q 581 591 720 806 q 353 238 441 376 q 180 -33 264 99 q 171 -39 175 -39 q 162 -35 168 -39 q 153 -26 156 -31 q 151 -20 150 -24 q 154 -13 153 -16 q 157 -7 155 -10 l 160 -3 q 436 431 245 131 q 725 884 627 730 q 745 900 736 900 m 663 -24 q 653 -1 653 -24 q 654 52 653 1 q 656 131 656 103 q 650 143 656 143 q 452 140 510 143 q 444 145 448 140 q 440 153 440 149 q 443 159 440 155 q 450 167 445 162 q 456 174 454 172 q 555 296 463 182 q 660 424 648 411 q 717 478 703 478 q 726 452 726 478 q 727 398 726 450 q 727 287 727 347 q 728 201 728 227 q 736 192 728 192 q 810 195 768 192 q 817 186 817 195 q 813 168 815 180 q 810 151 811 156 q 803 143 808 143 l 733 143 q 731 140 732 143 q 729 135 729 136 q 730 64 729 114 q 730 5 730 14 q 720 -17 730 -14 q 692 -21 714 -19 q 663 -24 670 -24 m 659 367 q 655 370 659 370 q 650 370 651 371 q 608 319 638 355 q 552 252 577 283 q 515 205 527 222 q 515 199 513 201 q 521 196 517 196 q 648 191 528 195 q 656 200 656 191 q 659 367 656 292 z "},"":{"ha":439,"x_min":61,"x_max":349,"o":"m 297 -289 q 237 -272 267 -289 q 168 -224 208 -256 q 145 -200 161 -218 q 110 -154 130 -182 q 76 -89 90 -125 q 61 -18 61 -52 q 74 64 61 33 q 113 114 86 94 q 178 152 134 130 q 231 179 222 174 q 257 203 252 191 q 265 245 263 215 q 279 279 267 279 q 301 239 292 279 q 317 146 317 178 q 302 104 317 121 q 257 71 288 87 q 191 39 232 56 q 132 -2 154 22 q 110 -54 110 -26 q 138 -149 110 -117 q 233 -182 167 -182 q 262 -179 239 -182 q 300 -176 286 -176 q 333 -197 317 -176 q 349 -241 349 -218 q 333 -275 349 -260 q 297 -289 317 -289 m 253 410 q 201 431 222 410 q 180 485 180 453 q 201 539 180 517 q 253 561 222 561 q 303 539 283 561 q 323 486 323 518 q 303 434 323 458 q 253 410 283 410 z "},"":{"ha":900,"x_min":7,"x_max":916,"o":"m 482 903 q 490 896 486 901 q 494 886 494 890 q 518 803 496 872 q 766 135 635 463 q 792 83 780 102 q 822 52 805 63 q 851 38 839 41 q 889 28 863 34 q 916 8 916 20 q 880 -7 916 -7 q 820 -3 876 -7 q 728 0 764 0 q 645 -1 694 0 q 585 -3 597 -3 q 554 12 554 -3 q 583 31 554 22 q 626 51 612 39 q 641 77 640 64 q 640 106 642 90 q 607 217 634 137 q 566 335 580 297 q 533 353 557 353 q 288 351 303 353 q 277 345 283 351 q 268 330 271 338 q 228 207 256 301 q 200 89 200 113 q 215 46 200 60 q 277 25 231 33 q 297 17 290 23 q 304 5 304 12 q 269 -7 304 -7 q 222 -3 252 -7 q 158 0 193 0 q 100 -3 136 0 q 46 -7 64 -7 q 7 5 7 -7 q 35 24 7 18 q 100 57 78 32 q 143 134 121 82 q 390 822 236 365 q 400 863 400 842 l 400 879 q 406 892 400 885 q 416 901 412 900 q 449 904 425 903 q 482 903 474 905 m 526 416 q 533 431 535 422 q 419 751 488 568 q 413 758 418 756 q 407 755 409 760 q 354 598 400 740 q 298 427 307 457 q 299 420 297 424 q 307 415 302 416 q 420 414 324 414 q 526 416 515 414 m 322 1122 q 361 1095 333 1122 q 469 962 370 1084 q 482 932 488 937 q 469 930 477 928 q 452 936 460 931 q 366 992 427 949 q 289 1050 305 1036 q 267 1082 264 1069 q 289 1106 267 1089 q 322 1122 312 1122 z "},"":{"ha":900,"x_min":7,"x_max":916,"o":"m 482 903 q 490 896 486 901 q 494 886 494 890 q 518 803 496 872 q 766 135 635 463 q 792 83 780 102 q 822 52 805 63 q 851 38 839 41 q 889 28 863 34 q 916 8 916 20 q 880 -7 916 -7 q 820 -3 876 -7 q 728 0 764 0 q 645 -1 694 0 q 585 -3 597 -3 q 554 12 554 -3 q 583 31 554 22 q 626 51 612 39 q 641 77 640 64 q 640 106 642 90 q 607 217 634 137 q 566 335 580 297 q 533 353 557 353 q 288 351 303 353 q 277 345 283 351 q 268 330 271 338 q 228 207 256 301 q 200 89 200 113 q 215 46 200 60 q 277 25 231 33 q 297 17 290 23 q 304 5 304 12 q 269 -7 304 -7 q 222 -3 252 -7 q 158 0 193 0 q 100 -3 136 0 q 46 -7 64 -7 q 7 5 7 -7 q 35 24 7 18 q 100 57 78 32 q 143 134 121 82 q 390 822 236 365 q 400 863 400 842 l 400 879 q 406 892 400 885 q 416 901 412 900 q 449 904 425 903 q 482 903 474 905 m 526 416 q 533 431 535 422 q 419 751 488 568 q 413 758 418 756 q 407 755 409 760 q 354 598 400 740 q 298 427 307 457 q 299 420 297 424 q 307 415 302 416 q 420 414 324 414 q 526 416 515 414 m 572 1116 q 606 1124 593 1131 q 631 1104 616 1118 q 642 1083 645 1090 q 623 1061 637 1072 q 437 950 537 1005 q 400 942 406 937 q 401 954 396 945 q 414 971 406 963 q 456 1012 420 977 q 521 1072 493 1046 q 572 1116 549 1098 z "},"":{"ha":900,"x_min":7,"x_max":916,"o":"m 482 903 q 490 896 486 901 q 494 886 494 890 q 518 803 496 872 q 766 135 635 463 q 792 83 780 102 q 822 52 805 63 q 851 38 839 41 q 889 28 863 34 q 916 8 916 20 q 880 -7 916 -7 q 820 -3 876 -7 q 728 0 764 0 q 645 -1 694 0 q 585 -3 597 -3 q 554 12 554 -3 q 583 31 554 22 q 626 51 612 39 q 641 77 640 64 q 640 106 642 90 q 607 217 634 137 q 566 335 580 297 q 533 353 557 353 q 288 351 303 353 q 277 345 283 351 q 268 330 271 338 q 228 207 256 301 q 200 89 200 113 q 215 46 200 60 q 277 25 231 33 q 297 17 290 23 q 304 5 304 12 q 269 -7 304 -7 q 222 -3 252 -7 q 158 0 193 0 q 100 -3 136 0 q 46 -7 64 -7 q 7 5 7 -7 q 35 24 7 18 q 100 57 78 32 q 143 134 121 82 q 390 822 236 365 q 400 863 400 842 l 400 879 q 406 892 400 885 q 416 901 412 900 q 449 904 425 903 q 482 903 474 905 m 526 416 q 533 431 535 422 q 419 751 488 568 q 413 758 418 756 q 407 755 409 760 q 354 598 400 740 q 298 427 307 457 q 299 420 297 424 q 307 415 302 416 q 420 414 324 414 q 526 416 515 414 m 453 1095 q 490 1067 463 1095 q 543 1012 502 1054 q 606 947 584 970 q 612 937 612 941 q 610 930 613 932 q 603 928 607 928 q 579 936 595 928 q 458 1007 534 959 q 451 1010 456 1009 q 443 1010 445 1011 q 321 945 374 968 q 292 935 296 935 q 288 945 283 935 q 294 954 290 951 q 355 1013 304 964 q 419 1074 406 1061 q 453 1095 440 1095 z "},"":{"ha":900,"x_min":7,"x_max":916,"o":"m 482 903 q 490 896 486 901 q 494 886 494 890 q 518 803 496 872 q 766 135 635 463 q 792 83 780 102 q 822 52 805 63 q 851 38 839 41 q 889 28 863 34 q 916 8 916 20 q 880 -7 916 -7 q 820 -3 876 -7 q 728 0 764 0 q 645 -1 694 0 q 585 -3 597 -3 q 554 12 554 -3 q 583 31 554 22 q 626 51 612 39 q 641 77 640 64 q 640 106 642 90 q 607 217 634 137 q 566 335 580 297 q 533 353 557 353 q 288 351 303 353 q 277 345 283 351 q 268 330 271 338 q 228 207 256 301 q 200 89 200 113 q 215 46 200 60 q 277 25 231 33 q 297 17 290 23 q 304 5 304 12 q 269 -7 304 -7 q 222 -3 252 -7 q 158 0 193 0 q 100 -3 136 0 q 46 -7 64 -7 q 7 5 7 -7 q 35 24 7 18 q 100 57 78 32 q 143 134 121 82 q 390 822 236 365 q 400 863 400 842 l 400 879 q 406 892 400 885 q 416 901 412 900 q 449 904 425 903 q 482 903 474 905 m 526 416 q 533 431 535 422 q 419 751 488 568 q 413 758 418 756 q 407 755 409 760 q 354 598 400 740 q 298 427 307 457 q 299 420 297 424 q 307 415 302 416 q 420 414 324 414 q 526 416 515 414 m 375 979 q 349 970 365 979 q 319 947 332 962 q 304 936 308 936 q 298 941 302 936 q 294 947 294 945 q 306 966 294 949 q 339 1005 317 982 q 386 1043 362 1029 q 406 1046 395 1049 q 530 1031 459 1031 q 573 1041 556 1031 q 610 1074 589 1051 q 617 1073 612 1076 q 623 1068 623 1069 q 615 1050 623 1063 q 578 1003 603 1029 q 532 968 553 977 q 513 964 525 964 q 455 971 506 964 q 375 979 405 979 z "},"":{"ha":900,"x_min":7,"x_max":916,"o":"m 482 903 q 490 896 486 901 q 494 886 494 890 q 518 803 496 872 q 766 135 635 463 q 792 83 780 102 q 822 52 805 63 q 851 38 839 41 q 889 28 863 34 q 916 8 916 20 q 880 -7 916 -7 q 820 -3 876 -7 q 728 0 764 0 q 645 -1 694 0 q 585 -3 597 -3 q 554 12 554 -3 q 583 31 554 22 q 626 51 612 39 q 641 77 640 64 q 640 106 642 90 q 607 217 634 137 q 566 335 580 297 q 533 353 557 353 q 288 351 303 353 q 277 345 283 351 q 268 330 271 338 q 228 207 256 301 q 200 89 200 113 q 215 46 200 60 q 277 25 231 33 q 297 17 290 23 q 304 5 304 12 q 269 -7 304 -7 q 222 -3 252 -7 q 158 0 193 0 q 100 -3 136 0 q 46 -7 64 -7 q 7 5 7 -7 q 35 24 7 18 q 100 57 78 32 q 143 134 121 82 q 390 822 236 365 q 400 863 400 842 l 400 879 q 406 892 400 885 q 416 901 412 900 q 449 904 425 903 q 482 903 474 905 m 526 416 q 533 431 535 422 q 419 751 488 568 q 413 758 418 756 q 407 755 409 760 q 354 598 400 740 q 298 427 307 457 q 299 420 297 424 q 307 415 302 416 q 420 414 324 414 q 526 416 515 414 m 323 1064 q 365 1047 348 1064 q 382 1006 382 1030 q 364 962 382 978 q 321 946 347 946 q 281 964 296 946 q 265 1004 265 982 q 283 1046 265 1027 q 323 1064 302 1064 m 572 1064 q 614 1047 597 1064 q 631 1006 631 1030 q 614 962 631 978 q 572 946 597 946 q 531 963 547 946 q 515 1002 515 980 q 533 1044 515 1025 q 572 1064 550 1064 z "},"":{"ha":900,"x_min":7,"x_max":916,"o":"m 482 903 q 490 896 486 901 q 494 886 494 890 q 518 803 496 872 q 766 135 635 463 q 792 83 780 102 q 822 52 805 63 q 851 38 839 41 q 889 28 863 34 q 916 8 916 20 q 880 -7 916 -7 q 820 -3 876 -7 q 728 0 764 0 q 645 -1 694 0 q 585 -3 597 -3 q 554 12 554 -3 q 583 31 554 22 q 626 51 612 39 q 641 77 640 64 q 640 106 642 90 q 607 217 634 137 q 566 335 580 297 q 533 353 557 353 q 288 351 303 353 q 277 345 283 351 q 268 330 271 338 q 228 207 256 301 q 200 89 200 113 q 215 46 200 60 q 277 25 231 33 q 297 17 290 23 q 304 5 304 12 q 269 -7 304 -7 q 222 -3 252 -7 q 158 0 193 0 q 100 -3 136 0 q 46 -7 64 -7 q 7 5 7 -7 q 35 24 7 18 q 100 57 78 32 q 143 134 121 82 q 390 822 236 365 q 400 863 400 842 l 400 879 q 406 892 400 885 q 416 901 412 900 q 449 904 425 903 q 482 903 474 905 m 526 416 q 533 431 535 422 q 419 751 488 568 q 413 758 418 756 q 407 755 409 760 q 354 598 400 740 q 298 427 307 457 q 299 420 297 424 q 307 415 302 416 q 420 414 324 414 q 526 416 515 414 m 446 1132 q 517 1101 487 1132 q 547 1029 547 1070 q 517 958 547 989 q 444 928 488 928 q 372 957 400 928 q 345 1028 345 985 q 373 1101 345 1069 q 446 1132 401 1132 m 488 1078 q 479 1087 488 1078 q 446 1096 471 1096 q 404 1077 420 1096 q 387 1029 387 1057 q 405 982 387 1001 q 446 962 422 962 q 488 981 471 962 q 505 1032 505 999 q 488 1078 505 1059 z "},"":{"ha":1241,"x_min":7,"x_max":1221,"o":"m 427 885 q 457 896 427 896 q 542 895 488 896 q 660 893 597 893 l 865 893 q 1101 899 1047 893 q 1112 894 1106 899 q 1118 885 1118 888 q 1128 742 1128 798 q 1125 725 1128 733 q 1118 717 1122 717 q 1097 739 1106 717 q 1084 774 1090 760 q 1066 804 1078 787 q 1039 831 1055 821 q 1000 846 1022 842 q 754 852 956 852 q 746 848 749 852 q 742 838 742 844 q 739 482 739 724 q 743 473 739 479 q 753 468 747 468 q 942 471 896 468 q 976 487 963 471 q 1006 546 988 503 q 1025 567 1014 567 q 1036 545 1036 567 q 1034 490 1036 519 q 1032 452 1032 460 q 1038 345 1032 439 q 1021 314 1038 314 q 992 357 1012 314 q 991 359 991 358 q 990 361 991 360 q 989 364 989 363 q 965 398 978 389 q 922 410 953 408 q 751 412 895 412 q 742 395 742 412 q 739 171 739 352 q 743 109 739 130 q 760 74 747 88 q 848 43 788 43 q 1038 45 1001 43 q 1118 77 1085 47 q 1185 168 1152 107 q 1211 195 1200 195 q 1219 183 1218 195 q 1215 158 1221 172 q 1191 77 1204 131 q 1175 14 1178 22 q 1157 0 1173 5 q 1131 -5 1142 -5 q 886 -3 1090 -5 q 653 0 683 0 q 573 -2 616 0 q 528 -4 531 -4 q 521 -4 527 -4 q 512 -4 515 -5 q 505 -3 509 -4 q 498 1 500 -2 q 496 8 496 3 q 524 26 496 20 q 593 57 575 40 q 618 122 612 74 q 625 247 621 158 q 627 392 629 336 q 622 405 627 399 q 611 411 616 411 l 397 411 q 384 405 393 411 q 374 395 375 398 q 260 180 305 269 q 225 83 225 113 q 236 52 225 60 q 293 28 247 44 q 321 9 321 18 q 312 -1 321 3 q 292 -5 304 -5 q 238 -3 286 -5 q 170 0 190 0 q 91 -2 135 0 q 45 -4 47 -4 q 7 8 7 -4 q 35 26 7 21 q 107 58 77 36 q 164 121 138 79 q 263 295 182 150 q 438 606 345 440 q 547 802 530 771 q 555 836 559 826 q 530 850 550 845 q 492 859 516 852 q 457 867 468 865 q 427 885 427 872 m 632 814 q 625 838 633 840 q 606 814 617 836 q 424 485 539 709 q 426 474 420 479 q 440 469 431 469 q 614 468 477 468 q 623 475 620 468 q 627 490 627 481 q 629 632 627 528 q 632 814 631 736 z "},"":{"ha":966,"x_min":64,"x_max":899,"o":"m 593 920 q 645 918 619 920 q 694 912 670 916 q 732 905 718 908 q 768 898 747 903 q 794 892 790 892 q 857 880 832 880 q 867 872 862 880 q 871 860 872 864 q 870 819 869 845 q 872 779 871 793 q 874 743 873 764 q 876 718 876 723 q 864 685 878 685 q 846 713 854 685 q 812 783 831 758 q 761 829 793 807 q 677 871 730 854 q 561 888 624 888 q 297 779 392 888 q 201 496 201 670 q 249 258 201 360 q 353 117 289 175 q 480 34 416 58 q 604 9 543 9 q 757 39 694 9 q 857 143 821 69 q 876 179 871 172 q 889 187 882 187 q 896 178 894 187 q 897 161 899 170 l 890 66 q 879 46 890 58 q 854 28 867 34 q 629 -26 762 -20 q 590 -81 594 -74 q 590 -87 588 -83 q 596 -92 593 -90 q 672 -182 672 -125 q 658 -233 672 -208 q 631 -269 644 -257 q 599 -296 618 -281 q 514 -329 549 -329 q 492 -324 501 -329 q 484 -311 484 -319 q 496 -290 484 -302 q 517 -281 509 -277 q 557 -286 531 -286 q 594 -270 579 -286 q 610 -235 610 -254 q 588 -188 610 -208 q 534 -168 566 -168 l 514 -168 q 506 -162 511 -168 q 501 -153 501 -157 q 511 -136 501 -146 q 602 -28 530 -117 q 233 82 381 -34 q 107 241 150 145 q 64 441 64 338 q 112 653 64 555 q 261 821 160 751 q 593 920 404 920 z "},"":{"ha":777,"x_min":0,"x_max":757,"o":"m 31 886 q 69 897 31 897 q 135 895 79 897 q 221 893 191 893 l 387 893 q 492 895 446 893 q 556 899 538 897 q 603 905 573 901 q 635 909 633 909 q 645 902 639 909 q 652 889 652 894 q 659 829 652 888 q 665 749 665 770 q 659 733 665 741 q 648 725 653 725 q 624 775 638 725 q 591 828 614 812 q 524 848 568 844 q 294 852 475 852 q 278 827 283 852 q 272 514 272 795 q 276 497 272 505 q 283 490 279 490 l 359 490 q 461 496 429 490 q 509 519 493 503 q 534 572 525 536 q 542 592 536 583 q 553 602 548 602 q 567 568 569 602 q 564 465 564 492 q 570 346 564 412 q 566 325 570 332 q 557 318 562 318 q 534 353 543 318 q 511 411 526 391 q 458 435 495 431 q 296 441 382 441 q 277 435 283 441 q 272 421 272 428 l 272 163 q 276 108 272 125 q 289 82 279 92 q 310 62 306 66 q 330 53 314 59 q 367 46 347 47 q 431 46 387 46 q 502 46 478 46 q 554 47 526 47 q 595 51 583 48 q 623 57 608 54 q 646 68 638 61 q 662 82 654 75 q 679 103 670 90 q 720 167 705 136 q 746 199 735 199 q 754 189 751 199 q 757 172 757 180 q 739 100 757 163 q 715 20 721 37 q 682 -8 706 -10 q 193 0 574 0 q 99 -5 155 0 q 29 -11 44 -11 q 0 3 0 -11 q 35 21 0 14 q 120 56 96 33 q 151 140 144 78 q 158 475 158 197 q 155 770 158 721 q 153 794 155 783 q 149 813 151 805 q 141 828 146 821 q 133 840 136 836 q 121 849 130 844 q 110 855 113 853 q 95 860 106 857 q 79 864 83 863 q 61 868 75 865 q 31 886 31 875 m 279 1137 q 318 1109 290 1137 q 427 978 334 1093 q 439 947 445 954 q 425 945 434 944 q 408 951 416 947 q 323 1008 384 965 q 245 1065 262 1051 q 224 1097 222 1084 q 247 1121 224 1105 q 279 1137 269 1137 z "},"":{"ha":777,"x_min":0,"x_max":757,"o":"m 31 886 q 69 897 31 897 q 135 895 79 897 q 221 893 191 893 l 387 893 q 492 895 446 893 q 556 899 538 897 q 603 905 573 901 q 635 909 633 909 q 645 902 639 909 q 652 889 652 894 q 659 829 652 888 q 665 749 665 770 q 659 733 665 741 q 648 725 653 725 q 624 775 638 725 q 591 828 614 812 q 524 848 568 844 q 294 852 475 852 q 278 827 283 852 q 272 514 272 795 q 276 497 272 505 q 283 490 279 490 l 359 490 q 461 496 429 490 q 509 519 493 503 q 534 572 525 536 q 542 592 536 583 q 553 602 548 602 q 567 568 569 602 q 564 465 564 492 q 570 346 564 412 q 566 325 570 332 q 557 318 562 318 q 534 353 543 318 q 511 411 526 391 q 458 435 495 431 q 296 441 382 441 q 277 435 283 441 q 272 421 272 428 l 272 163 q 276 108 272 125 q 289 82 279 92 q 310 62 306 66 q 330 53 314 59 q 367 46 347 47 q 431 46 387 46 q 502 46 478 46 q 554 47 526 47 q 595 51 583 48 q 623 57 608 54 q 646 68 638 61 q 662 82 654 75 q 679 103 670 90 q 720 167 705 136 q 746 199 735 199 q 754 189 751 199 q 757 172 757 180 q 739 100 757 163 q 715 20 721 37 q 682 -8 706 -10 q 193 0 574 0 q 99 -5 155 0 q 29 -11 44 -11 q 0 3 0 -11 q 35 21 0 14 q 120 56 96 33 q 151 140 144 78 q 158 475 158 197 q 155 770 158 721 q 153 794 155 783 q 149 813 151 805 q 141 828 146 821 q 133 840 136 836 q 121 849 130 844 q 110 855 113 853 q 95 860 106 857 q 79 864 83 863 q 61 868 75 865 q 31 886 31 875 m 505 1118 q 539 1126 526 1133 q 564 1107 550 1121 q 575 1086 578 1094 q 555 1064 570 1074 q 371 953 467 1006 q 334 945 339 940 q 334 957 330 947 q 347 974 339 966 q 390 1015 355 981 q 454 1075 425 1048 q 505 1118 482 1101 z "},"":{"ha":777,"x_min":0,"x_max":757,"o":"m 31 886 q 69 897 31 897 q 135 895 79 897 q 221 893 191 893 l 387 893 q 492 895 446 893 q 556 899 538 897 q 603 905 573 901 q 635 909 633 909 q 645 902 639 909 q 652 889 652 894 q 659 829 652 888 q 665 749 665 770 q 659 733 665 741 q 648 725 653 725 q 624 775 638 725 q 591 828 614 812 q 524 848 568 844 q 294 852 475 852 q 278 827 283 852 q 272 514 272 795 q 276 497 272 505 q 283 490 279 490 l 359 490 q 461 496 429 490 q 509 519 493 503 q 534 572 525 536 q 542 592 536 583 q 553 602 548 602 q 567 568 569 602 q 564 465 564 492 q 570 346 564 412 q 566 325 570 332 q 557 318 562 318 q 534 353 543 318 q 511 411 526 391 q 458 435 495 431 q 296 441 382 441 q 277 435 283 441 q 272 421 272 428 l 272 163 q 276 108 272 125 q 289 82 279 92 q 310 62 306 66 q 330 53 314 59 q 367 46 347 47 q 431 46 387 46 q 502 46 478 46 q 554 47 526 47 q 595 51 583 48 q 623 57 608 54 q 646 68 638 61 q 662 82 654 75 q 679 103 670 90 q 720 167 705 136 q 746 199 735 199 q 754 189 751 199 q 757 172 757 180 q 739 100 757 163 q 715 20 721 37 q 682 -8 706 -10 q 193 0 574 0 q 99 -5 155 0 q 29 -11 44 -11 q 0 3 0 -11 q 35 21 0 14 q 120 56 96 33 q 151 140 144 78 q 158 475 158 197 q 155 770 158 721 q 153 794 155 783 q 149 813 151 805 q 141 828 146 821 q 133 840 136 836 q 121 849 130 844 q 110 855 113 853 q 95 860 106 857 q 79 864 83 863 q 61 868 75 865 q 31 886 31 875 m 383 1112 q 421 1084 393 1112 q 474 1030 433 1072 q 536 965 515 988 q 543 954 543 959 q 540 948 543 949 q 533 946 537 946 q 510 954 526 946 q 389 1025 456 982 q 381 1028 387 1027 q 374 1028 376 1029 q 252 962 302 984 q 222 953 228 953 q 218 964 214 953 q 225 972 221 970 q 286 1031 235 983 q 350 1092 337 1079 q 383 1112 370 1112 z "},"":{"ha":777,"x_min":0,"x_max":757,"o":"m 31 886 q 69 897 31 897 q 135 895 79 897 q 221 893 191 893 l 387 893 q 492 895 446 893 q 556 899 538 897 q 603 905 573 901 q 635 909 633 909 q 645 902 639 909 q 652 889 652 894 q 659 829 652 888 q 665 749 665 770 q 659 733 665 741 q 648 725 653 725 q 624 775 638 725 q 591 828 614 812 q 524 848 568 844 q 294 852 475 852 q 278 827 283 852 q 272 514 272 795 q 276 497 272 505 q 283 490 279 490 l 359 490 q 461 496 429 490 q 509 519 493 503 q 534 572 525 536 q 542 592 536 583 q 553 602 548 602 q 567 568 569 602 q 564 465 564 492 q 570 346 564 412 q 566 325 570 332 q 557 318 562 318 q 534 353 543 318 q 511 411 526 391 q 458 435 495 431 q 296 441 382 441 q 277 435 283 441 q 272 421 272 428 l 272 163 q 276 108 272 125 q 289 82 279 92 q 310 62 306 66 q 330 53 314 59 q 367 46 347 47 q 431 46 387 46 q 502 46 478 46 q 554 47 526 47 q 595 51 583 48 q 623 57 608 54 q 646 68 638 61 q 662 82 654 75 q 679 103 670 90 q 720 167 705 136 q 746 199 735 199 q 754 189 751 199 q 757 172 757 180 q 739 100 757 163 q 715 20 721 37 q 682 -8 706 -10 q 193 0 574 0 q 99 -5 155 0 q 29 -11 44 -11 q 0 3 0 -11 q 35 21 0 14 q 120 56 96 33 q 151 140 144 78 q 158 475 158 197 q 155 770 158 721 q 153 794 155 783 q 149 813 151 805 q 141 828 146 821 q 133 840 136 836 q 121 849 130 844 q 110 855 113 853 q 95 860 106 857 q 79 864 83 863 q 61 868 75 865 q 31 886 31 875 m 257 1083 q 298 1066 281 1083 q 315 1025 315 1049 q 298 981 315 997 q 254 965 280 965 q 214 983 230 965 q 199 1023 199 1001 q 217 1065 199 1046 q 257 1083 235 1083 m 505 1083 q 547 1066 530 1083 q 564 1025 564 1049 q 547 981 564 997 q 505 965 530 965 q 465 982 480 965 q 449 1021 449 999 q 466 1064 449 1044 q 505 1083 483 1083 z "},"":{"ha":408,"x_min":33,"x_max":386,"o":"m 151 465 q 150 726 151 676 q 141 819 146 801 q 99 857 132 847 q 72 864 88 861 q 41 880 41 869 q 82 895 41 895 q 140 894 100 895 q 196 893 180 893 q 270 894 222 893 q 347 895 318 895 q 375 884 375 895 q 347 867 375 872 q 289 844 302 857 q 272 785 276 831 q 261 472 261 685 q 272 115 261 286 q 290 62 275 76 q 351 33 306 48 q 359 31 357 31 q 381 20 376 25 q 386 8 386 15 q 357 -4 386 -4 q 294 -2 349 -4 q 199 0 240 0 q 130 -2 178 0 q 64 -4 83 -4 q 35 8 35 -4 q 44 22 35 17 q 74 33 53 28 q 128 57 114 43 q 144 110 142 72 q 151 465 151 196 m 90 1128 q 129 1100 101 1128 q 237 968 138 1090 q 250 937 256 943 q 220 942 242 929 q 134 999 195 956 q 57 1055 73 1042 q 35 1088 33 1074 q 57 1112 35 1095 q 90 1128 80 1128 z "},"":{"ha":408,"x_min":35,"x_max":408,"o":"m 151 465 q 150 726 151 676 q 141 819 146 801 q 99 857 132 847 q 72 864 88 861 q 41 880 41 869 q 82 895 41 895 q 140 894 100 895 q 196 893 180 893 q 270 894 222 893 q 347 895 318 895 q 375 884 375 895 q 347 867 375 872 q 289 844 302 857 q 272 785 276 831 q 261 472 261 685 q 272 115 261 286 q 290 62 275 76 q 351 33 306 48 q 359 31 357 31 q 381 20 376 25 q 386 8 386 15 q 357 -4 386 -4 q 294 -2 349 -4 q 199 0 240 0 q 130 -2 178 0 q 64 -4 83 -4 q 35 8 35 -4 q 44 22 35 17 q 74 33 53 28 q 128 57 114 43 q 144 110 142 72 q 151 465 151 196 m 335 1122 q 368 1131 355 1137 q 393 1112 379 1125 q 404 1090 408 1098 q 385 1068 399 1078 q 200 957 296 1010 q 163 949 168 944 q 163 961 159 951 q 176 978 168 970 q 219 1019 182 984 q 284 1079 256 1053 q 335 1122 312 1105 z "},"":{"ha":408,"x_min":35,"x_max":386,"o":"m 151 465 q 150 726 151 676 q 141 819 146 801 q 99 857 132 847 q 72 864 88 861 q 41 880 41 869 q 82 895 41 895 q 140 894 100 895 q 196 893 180 893 q 270 894 222 893 q 347 895 318 895 q 375 884 375 895 q 347 867 375 872 q 289 844 302 857 q 272 785 276 831 q 261 472 261 685 q 272 115 261 286 q 290 62 275 76 q 351 33 306 48 q 359 31 357 31 q 381 20 376 25 q 386 8 386 15 q 357 -4 386 -4 q 294 -2 349 -4 q 199 0 240 0 q 130 -2 178 0 q 64 -4 83 -4 q 35 8 35 -4 q 44 22 35 17 q 74 33 53 28 q 128 57 114 43 q 144 110 142 72 q 151 465 151 196 m 207 1108 q 244 1080 216 1108 q 297 1026 256 1067 q 359 961 338 984 q 366 950 366 955 q 363 944 366 945 q 357 942 361 942 q 334 950 350 942 q 212 1021 279 978 q 205 1024 210 1023 q 197 1023 199 1025 q 75 958 129 982 q 46 949 52 949 q 42 959 39 949 q 49 968 44 964 q 110 1026 59 978 q 174 1088 161 1075 q 207 1108 194 1108 z "},"":{"ha":408,"x_min":21,"x_max":386,"o":"m 151 465 q 150 726 151 676 q 141 819 146 801 q 99 857 132 847 q 72 864 88 861 q 41 880 41 869 q 82 895 41 895 q 140 894 100 895 q 196 893 180 893 q 270 894 222 893 q 347 895 318 895 q 375 884 375 895 q 347 867 375 872 q 289 844 302 857 q 272 785 276 831 q 261 472 261 685 q 272 115 261 286 q 290 62 275 76 q 351 33 306 48 q 359 31 357 31 q 381 20 376 25 q 386 8 386 15 q 357 -4 386 -4 q 294 -2 349 -4 q 199 0 240 0 q 130 -2 178 0 q 64 -4 83 -4 q 35 8 35 -4 q 44 22 35 17 q 74 33 53 28 q 128 57 114 43 q 144 110 142 72 q 151 465 151 196 m 79 1082 q 121 1065 104 1082 q 138 1023 138 1048 q 120 980 138 996 q 77 964 102 964 q 37 982 52 964 q 21 1022 21 1000 q 39 1063 21 1045 q 79 1082 58 1082 m 328 1082 q 369 1065 352 1082 q 386 1023 386 1048 q 369 980 386 996 q 328 964 353 964 q 287 981 302 964 q 271 1019 271 998 q 288 1062 271 1042 q 328 1082 305 1082 z "},"":{"ha":1033,"x_min":24,"x_max":971,"o":"m 43 878 q 77 893 43 893 l 171 893 q 295 899 203 893 q 444 905 386 905 q 629 886 544 905 q 789 817 714 867 q 921 668 870 762 q 971 465 971 574 q 944 307 971 382 q 871 176 918 232 q 765 78 825 119 q 636 14 705 37 q 424 -16 549 -16 q 293 -8 380 -16 q 168 0 206 0 q 105 -1 142 0 q 58 -3 68 -3 q 24 12 24 -3 q 31 22 24 19 q 54 29 37 26 q 131 57 112 40 q 150 126 149 73 q 151 427 151 211 q 148 439 151 433 q 142 444 145 444 l 47 446 q 40 450 44 446 q 36 457 36 454 q 43 482 36 471 q 53 488 48 488 l 142 490 q 151 503 151 490 q 144 786 151 703 q 129 838 142 822 q 77 861 115 853 q 43 878 43 868 m 835 447 q 807 590 835 503 q 724 739 779 677 q 590 842 662 808 q 422 876 518 876 q 354 872 386 876 q 309 863 323 867 q 290 856 295 859 q 281 849 284 852 q 275 833 279 846 q 269 799 271 820 q 267 587 267 730 l 267 501 q 277 489 267 489 l 517 489 q 526 479 526 489 q 518 452 526 463 q 500 447 513 447 l 272 444 q 270 443 271 444 q 268 437 269 441 q 267 429 267 433 q 282 119 267 205 q 294 77 287 92 q 321 52 302 62 q 460 12 397 12 q 627 52 548 12 q 782 201 729 98 q 835 447 835 304 z "},"":{"ha":1009,"x_min":14,"x_max":979,"o":"m 14 884 q 46 897 14 897 q 123 895 56 897 q 218 893 190 893 q 253 871 231 893 q 285 831 260 863 q 334 771 310 799 q 800 220 798 223 q 807 221 803 217 q 811 228 811 224 q 814 442 814 283 q 812 669 814 600 q 811 718 812 690 q 810 755 811 746 q 807 779 810 764 q 800 811 805 793 q 773 844 795 831 q 704 867 751 857 q 675 885 675 873 q 703 896 675 896 q 755 895 705 896 q 832 893 805 893 q 898 895 859 893 q 946 896 937 896 q 979 886 979 896 q 950 867 979 873 q 890 831 906 856 q 871 757 874 806 q 861 300 861 631 q 863 153 861 252 q 864 1 864 54 q 861 -16 864 -9 q 856 -25 859 -23 q 851 -26 853 -26 q 821 -11 836 -26 q 799 17 816 -6 q 749 82 782 39 q 682 167 717 124 q 459 437 612 252 q 221 726 305 623 q 215 732 217 730 q 211 734 213 734 q 208 733 209 735 q 207 728 208 732 q 201 536 201 694 q 208 149 201 264 q 230 73 212 94 q 304 35 248 52 q 343 12 343 23 q 310 -4 343 -4 q 249 -2 298 -4 q 175 0 201 0 q 113 -2 146 0 q 62 -4 79 -4 q 25 9 25 -4 q 60 32 25 24 q 120 64 104 43 q 140 138 136 84 q 150 389 145 193 q 155 729 155 585 q 149 792 155 773 q 123 832 143 810 q 41 868 100 857 q 14 884 14 873 m 424 985 q 397 976 414 985 q 368 953 381 967 q 353 942 357 942 q 347 946 350 942 q 343 953 343 951 q 354 971 343 955 q 388 1011 366 987 q 435 1048 411 1034 q 454 1051 444 1055 q 579 1036 508 1036 q 622 1046 605 1036 q 659 1079 638 1057 q 666 1079 661 1082 q 671 1074 671 1076 q 664 1055 671 1067 q 627 1009 652 1036 q 581 974 602 983 q 561 970 574 970 q 504 977 554 970 q 424 985 454 985 z "},"":{"ha":1076,"x_min":64,"x_max":1013,"o":"m 529 918 q 713 884 625 918 q 868 790 802 850 q 973 643 934 730 q 1013 454 1013 555 q 996 317 1013 380 q 949 207 979 254 q 885 125 918 159 q 810 61 852 92 q 681 -5 753 18 q 558 -28 609 -28 q 311 34 424 -28 q 131 207 198 96 q 64 456 64 319 q 83 591 64 527 q 133 702 102 655 q 194 782 163 749 q 258 838 225 814 q 529 918 380 918 m 489 885 q 381 859 433 885 q 293 796 329 833 q 261 755 276 779 q 230 696 246 732 q 203 607 213 660 q 193 492 193 553 q 230 293 193 391 q 332 126 267 195 q 571 9 435 9 q 679 36 627 9 q 772 103 732 62 q 854 244 827 155 q 882 425 882 334 q 865 554 882 490 q 816 679 849 619 q 737 784 783 739 q 627 858 691 830 q 489 885 562 885 m 419 1152 q 458 1124 431 1152 q 567 991 468 1114 q 579 961 585 967 q 566 959 574 958 q 549 965 557 960 q 463 1022 524 979 q 386 1079 402 1065 q 364 1111 362 1098 q 387 1135 364 1118 q 419 1152 409 1152 z "},"":{"ha":1076,"x_min":64,"x_max":1013,"o":"m 529 918 q 713 884 625 918 q 868 790 802 850 q 973 643 934 730 q 1013 454 1013 555 q 996 317 1013 380 q 949 207 979 254 q 885 125 918 159 q 810 61 852 92 q 681 -5 753 18 q 558 -28 609 -28 q 311 34 424 -28 q 131 207 198 96 q 64 456 64 319 q 83 591 64 527 q 133 702 102 655 q 194 782 163 749 q 258 838 225 814 q 529 918 380 918 m 489 885 q 381 859 433 885 q 293 796 329 833 q 261 755 276 779 q 230 696 246 732 q 203 607 213 660 q 193 492 193 553 q 230 293 193 391 q 332 126 267 195 q 571 9 435 9 q 679 36 627 9 q 772 103 732 62 q 854 244 827 155 q 882 425 882 334 q 865 554 882 490 q 816 679 849 619 q 737 784 783 739 q 627 858 691 830 q 489 885 562 885 m 640 1136 q 673 1145 661 1151 q 699 1125 684 1139 q 710 1104 713 1112 q 690 1082 705 1092 q 505 971 611 1029 q 468 962 473 958 q 469 974 464 965 q 482 991 474 983 q 525 1033 490 999 q 589 1092 560 1066 q 640 1136 617 1118 z "},"":{"ha":1076,"x_min":64,"x_max":1013,"o":"m 529 918 q 713 884 625 918 q 868 790 802 850 q 973 643 934 730 q 1013 454 1013 555 q 996 317 1013 380 q 949 207 979 254 q 885 125 918 159 q 810 61 852 92 q 681 -5 753 18 q 558 -28 609 -28 q 311 34 424 -28 q 131 207 198 96 q 64 456 64 319 q 83 591 64 527 q 133 702 102 655 q 194 782 163 749 q 258 838 225 814 q 529 918 380 918 m 489 885 q 381 859 433 885 q 293 796 329 833 q 261 755 276 779 q 230 696 246 732 q 203 607 213 660 q 193 492 193 553 q 230 293 193 391 q 332 126 267 195 q 571 9 435 9 q 679 36 627 9 q 772 103 732 62 q 854 244 827 155 q 882 425 882 334 q 865 554 882 490 q 816 679 849 619 q 737 784 783 739 q 627 858 691 830 q 489 885 562 885 m 541 1116 q 578 1088 550 1116 q 631 1033 589 1075 q 693 968 672 991 q 700 957 699 962 q 697 950 700 952 q 690 949 694 949 q 667 957 683 949 q 546 1028 621 980 q 538 1031 544 1030 q 530 1031 532 1032 q 408 965 458 987 q 379 956 385 956 q 375 966 371 956 q 382 975 377 972 q 443 1034 392 985 q 507 1095 494 1082 q 541 1116 528 1116 z "},"":{"ha":1076,"x_min":64,"x_max":1013,"o":"m 529 918 q 713 884 625 918 q 868 790 802 850 q 973 643 934 730 q 1013 454 1013 555 q 996 317 1013 380 q 949 207 979 254 q 885 125 918 159 q 810 61 852 92 q 681 -5 753 18 q 558 -28 609 -28 q 311 34 424 -28 q 131 207 198 96 q 64 456 64 319 q 83 591 64 527 q 133 702 102 655 q 194 782 163 749 q 258 838 225 814 q 529 918 380 918 m 489 885 q 381 859 433 885 q 293 796 329 833 q 261 755 276 779 q 230 696 246 732 q 203 607 213 660 q 193 492 193 553 q 230 293 193 391 q 332 126 267 195 q 571 9 435 9 q 679 36 627 9 q 772 103 732 62 q 854 244 827 155 q 882 425 882 334 q 865 554 882 490 q 816 679 849 619 q 737 784 783 739 q 627 858 691 830 q 489 885 562 885 m 454 1013 q 428 1004 444 1013 q 399 981 412 995 q 383 970 388 970 q 377 974 380 970 q 374 981 374 979 q 385 999 374 983 q 419 1039 396 1015 q 465 1076 441 1062 q 485 1079 474 1082 q 610 1064 538 1064 q 652 1074 635 1064 q 689 1107 669 1084 q 696 1106 692 1109 q 701 1101 701 1103 q 694 1083 701 1095 q 657 1037 682 1063 q 611 1002 632 1011 q 591 997 603 997 q 534 1005 585 997 q 454 1013 484 1013 z "},"":{"ha":1076,"x_min":64,"x_max":1013,"o":"m 529 918 q 713 884 625 918 q 868 790 802 850 q 973 643 934 730 q 1013 454 1013 555 q 996 317 1013 380 q 949 207 979 254 q 885 125 918 159 q 810 61 852 92 q 681 -5 753 18 q 558 -28 609 -28 q 311 34 424 -28 q 131 207 198 96 q 64 456 64 319 q 83 591 64 527 q 133 702 102 655 q 194 782 163 749 q 258 838 225 814 q 529 918 380 918 m 489 885 q 381 859 433 885 q 293 796 329 833 q 261 755 276 779 q 230 696 246 732 q 203 607 213 660 q 193 492 193 553 q 230 293 193 391 q 332 126 267 195 q 571 9 435 9 q 679 36 627 9 q 772 103 732 62 q 854 244 827 155 q 882 425 882 334 q 865 554 882 490 q 816 679 849 619 q 737 784 783 739 q 627 858 691 830 q 489 885 562 885 m 412 1092 q 454 1075 437 1092 q 471 1034 471 1058 q 453 990 471 1006 q 410 974 435 974 q 370 992 385 974 q 354 1032 354 1010 q 372 1074 354 1055 q 412 1092 391 1092 m 661 1092 q 703 1075 686 1092 q 720 1034 720 1058 q 703 990 720 1006 q 661 974 686 974 q 620 991 636 974 q 604 1029 604 1008 q 622 1072 604 1053 q 661 1092 639 1092 z "},"":{"ha":722,"x_min":102,"x_max":618,"o":"m 110 497 q 106 506 107 500 q 109 518 106 513 q 131 550 118 537 q 145 553 137 554 q 155 549 153 551 l 354 349 q 361 346 356 347 q 367 347 366 346 l 564 550 q 573 554 566 552 q 582 554 580 555 q 597 539 589 549 q 607 524 605 530 q 603 507 610 515 l 410 307 q 407 299 407 304 q 408 292 406 294 l 614 82 q 614 65 618 78 q 589 35 610 56 q 579 33 585 32 q 568 39 572 35 l 359 243 q 343 243 351 251 l 144 45 q 135 43 141 42 q 125 47 128 44 q 107 72 112 58 q 109 89 102 83 l 302 289 q 305 297 305 292 q 302 302 304 301 l 110 497 z "},"":{"ha":1075,"x_min":64,"x_max":1013,"o":"m 530 920 q 799 842 671 920 q 815 846 808 837 q 840 877 825 859 q 861 903 855 895 q 876 911 869 911 q 884 905 879 911 q 893 895 890 900 q 894 888 894 892 q 893 882 894 884 l 847 822 q 847 807 840 812 q 968 656 924 745 q 1013 460 1013 566 q 812 61 1013 210 q 682 -4 755 19 q 558 -28 608 -28 q 267 62 403 -28 q 256 57 263 64 q 229 22 242 39 q 201 -14 215 5 q 187 -22 193 -22 q 168 -9 176 -22 q 165 5 163 -1 q 222 78 198 44 q 225 93 229 90 q 107 254 151 159 q 64 454 64 348 q 77 566 64 512 q 110 660 90 620 q 156 736 130 701 q 208 796 183 772 q 258 838 233 820 q 382 896 311 873 q 530 920 452 920 m 574 17 q 774 106 685 17 q 860 244 830 160 q 889 422 889 328 q 863 585 889 505 q 790 728 838 665 q 782 731 787 731 q 775 728 778 730 l 325 144 q 322 136 322 142 q 325 126 321 131 q 438 42 380 68 q 574 17 497 17 m 486 885 q 379 860 430 885 q 293 796 329 834 q 261 755 276 779 q 228 695 245 732 q 201 605 211 658 q 191 490 191 551 q 215 325 191 408 q 285 178 239 242 q 292 176 287 176 q 298 179 296 176 q 751 760 595 557 q 752 767 753 762 q 750 775 752 773 q 486 885 628 885 z "},"":{"ha":1002,"x_min":21,"x_max":989,"o":"m 53 868 q 21 886 21 874 q 54 899 21 899 q 123 896 73 899 q 199 893 173 893 q 285 895 241 893 q 338 896 328 896 q 366 886 366 896 q 340 868 366 874 q 273 837 288 857 q 254 753 258 817 q 254 411 249 682 q 277 230 256 293 q 349 117 298 168 q 441 64 385 81 q 542 47 498 47 q 638 58 597 47 q 713 94 679 68 q 770 166 748 119 q 804 282 793 212 q 821 643 821 376 q 812 787 821 748 q 717 865 800 850 q 703 868 707 867 q 692 871 699 869 q 684 876 686 873 q 682 882 682 878 q 721 896 682 896 q 789 895 748 896 q 844 893 830 893 q 898 895 870 893 q 954 896 925 896 q 989 885 989 896 q 983 875 989 878 q 961 868 977 871 q 902 841 918 861 q 882 770 886 821 q 875 655 878 724 q 869 516 871 587 q 865 432 866 444 q 859 342 863 379 q 847 263 854 304 q 828 190 840 221 q 799 128 817 159 q 755 71 781 97 q 696 22 730 45 q 609 -12 662 1 q 507 -25 557 -25 q 380 -8 450 -25 q 265 45 310 9 q 171 173 200 97 q 142 403 142 250 q 132 778 140 600 q 114 838 131 816 q 53 868 96 859 m 429 1124 q 468 1096 440 1124 q 576 964 477 1086 q 589 933 595 939 q 575 931 584 930 q 558 937 566 932 q 473 994 534 951 q 396 1051 413 1037 q 374 1083 372 1070 q 396 1107 374 1090 q 429 1124 419 1124 z "},"":{"ha":1002,"x_min":21,"x_max":989,"o":"m 53 868 q 21 886 21 874 q 54 899 21 899 q 123 896 73 899 q 199 893 173 893 q 285 895 241 893 q 338 896 328 896 q 366 886 366 896 q 340 868 366 874 q 273 837 288 857 q 254 753 258 817 q 254 411 249 682 q 277 230 256 293 q 349 117 298 168 q 441 64 385 81 q 542 47 498 47 q 638 58 597 47 q 713 94 679 68 q 770 166 748 119 q 804 282 793 212 q 821 643 821 376 q 812 787 821 748 q 717 865 800 850 q 703 868 707 867 q 692 871 699 869 q 684 876 686 873 q 682 882 682 878 q 721 896 682 896 q 789 895 748 896 q 844 893 830 893 q 898 895 870 893 q 954 896 925 896 q 989 885 989 896 q 983 875 989 878 q 961 868 977 871 q 902 841 918 861 q 882 770 886 821 q 875 655 878 724 q 869 516 871 587 q 865 432 866 444 q 859 342 863 379 q 847 263 854 304 q 828 190 840 221 q 799 128 817 159 q 755 71 781 97 q 696 22 730 45 q 609 -12 662 1 q 507 -25 557 -25 q 380 -8 450 -25 q 265 45 310 9 q 171 173 200 97 q 142 403 142 250 q 132 778 140 600 q 114 838 131 816 q 53 868 96 859 m 635 1116 q 668 1124 655 1131 q 693 1104 679 1118 q 704 1083 707 1090 q 685 1061 699 1072 q 500 950 600 1005 q 463 942 468 937 q 463 954 458 945 q 476 971 468 963 q 519 1012 482 977 q 584 1072 555 1046 q 635 1116 612 1098 z "},"":{"ha":1002,"x_min":21,"x_max":989,"o":"m 53 868 q 21 886 21 874 q 54 899 21 899 q 123 896 73 899 q 199 893 173 893 q 285 895 241 893 q 338 896 328 896 q 366 886 366 896 q 340 868 366 874 q 273 837 288 857 q 254 753 258 817 q 254 411 249 682 q 277 230 256 293 q 349 117 298 168 q 441 64 385 81 q 542 47 498 47 q 638 58 597 47 q 713 94 679 68 q 770 166 748 119 q 804 282 793 212 q 821 643 821 376 q 812 787 821 748 q 717 865 800 850 q 703 868 707 867 q 692 871 699 869 q 684 876 686 873 q 682 882 682 878 q 721 896 682 896 q 789 895 748 896 q 844 893 830 893 q 898 895 870 893 q 954 896 925 896 q 989 885 989 896 q 983 875 989 878 q 961 868 977 871 q 902 841 918 861 q 882 770 886 821 q 875 655 878 724 q 869 516 871 587 q 865 432 866 444 q 859 342 863 379 q 847 263 854 304 q 828 190 840 221 q 799 128 817 159 q 755 71 781 97 q 696 22 730 45 q 609 -12 662 1 q 507 -25 557 -25 q 380 -8 450 -25 q 265 45 310 9 q 171 173 200 97 q 142 403 142 250 q 132 778 140 600 q 114 838 131 816 q 53 868 96 859 m 526 1114 q 564 1086 536 1114 q 616 1031 575 1074 q 679 966 658 989 q 685 956 685 960 q 683 949 686 951 q 676 947 680 947 q 653 956 669 947 q 532 1026 599 983 q 524 1029 530 1028 q 517 1029 519 1031 q 395 964 445 985 q 366 954 371 954 q 361 965 357 954 q 368 974 363 971 q 429 1032 378 984 q 493 1093 480 1080 q 526 1114 513 1114 z "},"":{"ha":1002,"x_min":21,"x_max":989,"o":"m 53 868 q 21 886 21 874 q 54 899 21 899 q 123 896 73 899 q 199 893 173 893 q 285 895 241 893 q 338 896 328 896 q 366 886 366 896 q 340 868 366 874 q 273 837 288 857 q 254 753 258 817 q 254 411 249 682 q 277 230 256 293 q 349 117 298 168 q 441 64 385 81 q 542 47 498 47 q 638 58 597 47 q 713 94 679 68 q 770 166 748 119 q 804 282 793 212 q 821 643 821 376 q 812 787 821 748 q 717 865 800 850 q 703 868 707 867 q 692 871 699 869 q 684 876 686 873 q 682 882 682 878 q 721 896 682 896 q 789 895 748 896 q 844 893 830 893 q 898 895 870 893 q 954 896 925 896 q 989 885 989 896 q 983 875 989 878 q 961 868 977 871 q 902 841 918 861 q 882 770 886 821 q 875 655 878 724 q 869 516 871 587 q 865 432 866 444 q 859 342 863 379 q 847 263 854 304 q 828 190 840 221 q 799 128 817 159 q 755 71 781 97 q 696 22 730 45 q 609 -12 662 1 q 507 -25 557 -25 q 380 -8 450 -25 q 265 45 310 9 q 171 173 200 97 q 142 403 142 250 q 132 778 140 600 q 114 838 131 816 q 53 868 96 859 m 404 1078 q 446 1061 429 1078 q 463 1019 463 1044 q 445 976 463 991 q 401 960 427 960 q 361 978 377 960 q 346 1018 346 996 q 364 1059 346 1041 q 404 1078 382 1078 m 653 1078 q 694 1061 677 1078 q 711 1019 711 1044 q 695 976 711 991 q 653 960 678 960 q 612 977 628 960 q 596 1015 596 994 q 613 1058 596 1038 q 653 1078 631 1078 z "},"":{"ha":818,"x_min":-17,"x_max":848,"o":"m 14 871 q -17 889 -17 878 q 16 900 -17 900 q 84 897 30 900 q 175 893 139 893 q 242 895 209 893 q 290 896 276 896 q 323 885 323 896 q 288 863 323 873 q 248 840 254 853 q 253 807 241 826 q 295 721 258 798 q 368 573 332 644 q 431 454 404 502 q 436 453 432 452 q 443 457 441 454 q 517 587 454 473 q 614 761 581 701 q 633 829 639 810 q 578 864 627 848 q 546 885 546 874 q 572 896 546 896 q 638 895 593 896 q 703 893 684 893 q 773 895 732 893 q 822 896 814 896 q 848 884 848 896 q 842 872 848 877 q 812 863 835 867 q 767 849 787 858 q 731 825 747 840 q 704 797 714 810 q 676 760 694 784 q 576 598 650 727 q 464 410 502 469 q 455 381 458 401 q 452 351 452 361 q 460 121 452 192 q 479 59 465 72 q 543 34 494 45 q 558 31 553 32 q 591 9 591 22 q 581 -1 591 3 q 558 -5 570 -5 q 484 -3 532 -5 q 410 0 435 0 q 321 -3 378 0 q 250 -5 265 -5 q 215 11 215 -5 q 245 29 215 22 q 320 65 306 44 q 335 144 335 85 q 334 364 335 339 q 301 461 332 397 q 226 608 268 530 q 161 730 184 686 q 95 828 126 798 q 14 871 64 859 m 568 1116 q 602 1124 589 1131 q 627 1104 612 1118 q 637 1083 641 1090 q 618 1061 633 1072 q 433 950 530 1003 q 396 942 401 937 q 397 954 392 945 q 410 971 401 963 q 452 1012 416 977 q 517 1072 489 1046 q 568 1116 545 1098 z "},"":{"ha":722,"x_min":35,"x_max":667,"o":"m 35 884 q 71 893 35 893 l 210 893 q 257 895 222 893 q 321 896 292 896 q 353 885 353 896 q 322 867 353 872 q 282 850 291 861 q 268 814 273 840 q 265 708 265 797 q 281 700 265 700 q 313 701 281 700 q 372 703 344 703 q 575 647 497 703 q 642 569 617 618 q 667 458 667 520 q 625 317 667 376 q 517 230 583 258 q 372 203 452 203 q 352 204 362 203 q 334 207 342 205 q 316 211 326 208 q 301 216 306 214 q 286 221 296 217 q 273 225 275 224 q 268 221 270 227 q 265 212 265 216 q 266 145 265 169 q 270 100 266 122 q 277 70 273 79 q 291 53 280 62 q 313 40 302 43 q 345 31 323 37 q 376 9 376 22 q 345 -4 376 -4 q 293 -2 328 -4 q 220 0 258 0 q 141 -2 195 0 q 69 -4 87 -4 q 40 8 40 -4 q 65 26 40 18 q 72 28 67 27 q 125 56 112 42 q 151 165 151 83 l 151 745 q 146 804 151 782 q 128 838 142 825 q 100 855 115 850 q 57 865 86 860 q 35 884 35 869 m 547 444 q 486 605 547 547 q 323 664 425 664 q 273 653 284 664 q 264 593 264 644 l 264 309 q 275 254 264 258 q 346 243 311 243 q 490 298 433 243 q 547 444 547 353 z "},"":{"ha":684,"x_min":28,"x_max":642,"o":"m 443 991 q 517 978 483 991 q 573 944 551 965 q 610 897 595 923 q 632 844 625 870 q 639 794 639 819 q 626 727 639 758 q 603 685 613 696 q 570 653 593 674 q 564 647 566 649 q 514 605 553 637 q 457 558 475 574 q 418 486 418 524 q 430 448 418 467 q 456 416 443 428 q 571 332 555 345 q 623 272 605 303 q 642 189 642 240 q 601 84 642 132 q 494 4 559 36 q 410 -20 451 -20 q 378 -16 395 -20 q 343 1 360 -12 q 326 32 326 14 q 354 79 326 52 q 366 83 358 82 q 380 81 374 84 q 485 45 437 45 q 543 69 524 45 q 561 127 561 93 q 532 215 561 180 q 436 296 503 250 q 351 367 378 336 q 323 435 323 397 q 329 467 323 452 q 337 486 334 481 q 349 501 340 490 q 371 524 356 511 q 436 577 385 537 q 449 587 445 584 q 534 685 509 637 q 558 787 558 732 q 548 842 558 814 q 518 894 537 870 q 467 933 498 918 q 396 949 435 949 q 288 904 326 949 q 229 762 250 859 q 214 383 214 686 q 220 79 214 210 q 230 46 220 56 q 267 29 240 37 q 297 8 297 21 q 267 -4 297 -4 q 214 -2 258 -4 q 155 0 170 0 q 102 -3 134 0 q 61 -7 69 -7 q 28 7 28 -7 q 62 24 28 17 q 102 47 92 30 q 115 113 113 65 q 118 443 118 189 q 115 454 118 448 q 109 461 111 461 l 60 465 q 54 473 57 465 q 56 484 52 480 q 104 525 70 498 q 119 547 117 537 q 200 854 119 747 q 307 952 243 913 q 443 991 371 991 z "},"":{"ha":530,"x_min":47,"x_max":542,"o":"m 283 561 q 342 547 313 561 q 392 509 371 534 q 416 464 408 490 q 426 419 425 437 q 427 370 427 401 q 427 361 427 363 l 427 343 q 424 261 427 331 q 422 140 422 192 q 438 73 422 93 q 478 53 454 53 q 530 69 503 53 q 537 68 533 71 q 542 60 542 65 q 536 43 542 52 q 421 -20 500 -20 q 330 50 354 -20 q 325 53 330 52 q 319 53 320 54 q 157 -20 220 -20 q 80 13 113 -20 q 47 104 47 45 q 50 131 47 119 q 59 151 53 142 q 70 167 64 160 q 84 179 75 174 q 97 188 92 184 q 110 194 102 191 q 119 199 118 198 q 147 208 123 200 q 215 230 172 216 q 309 262 258 245 q 330 290 329 270 q 334 407 334 329 q 328 432 334 417 q 311 463 322 447 q 278 491 299 479 q 231 503 257 503 q 210 502 218 503 q 191 497 202 501 q 172 484 179 492 q 160 459 165 476 q 155 419 155 443 q 150 413 155 418 q 142 406 145 408 q 102 385 137 402 q 64 367 67 367 q 54 371 58 367 q 50 379 50 376 q 65 424 50 401 q 103 467 79 447 q 148 502 126 487 q 191 528 169 516 q 283 561 247 561 m 231 46 q 309 74 283 46 q 328 228 328 93 q 325 235 328 232 q 321 237 323 237 q 194 192 238 218 q 150 127 150 167 q 172 69 150 92 q 231 46 193 46 m 197 878 q 231 822 212 878 q 292 636 261 735 q 290 607 300 607 q 269 624 280 607 q 167 800 212 712 q 154 833 154 825 q 173 860 155 843 q 197 878 191 878 z "},"":{"ha":530,"x_min":47,"x_max":542,"o":"m 283 561 q 342 547 313 561 q 392 509 371 534 q 416 464 408 490 q 426 419 425 437 q 427 370 427 401 q 427 361 427 363 l 427 343 q 424 261 427 331 q 422 140 422 192 q 438 73 422 93 q 478 53 454 53 q 530 69 503 53 q 537 68 533 71 q 542 60 542 65 q 536 43 542 52 q 421 -20 500 -20 q 330 50 354 -20 q 325 53 330 52 q 319 53 320 54 q 157 -20 220 -20 q 80 13 113 -20 q 47 104 47 45 q 50 131 47 119 q 59 151 53 142 q 70 167 64 160 q 84 179 75 174 q 97 188 92 184 q 110 194 102 191 q 119 199 118 198 q 147 208 123 200 q 215 230 172 216 q 309 262 258 245 q 330 290 329 270 q 334 407 334 329 q 328 432 334 417 q 311 463 322 447 q 278 491 299 479 q 231 503 257 503 q 210 502 218 503 q 191 497 202 501 q 172 484 179 492 q 160 459 165 476 q 155 419 155 443 q 150 413 155 418 q 142 406 145 408 q 102 385 137 402 q 64 367 67 367 q 54 371 58 367 q 50 379 50 376 q 65 424 50 401 q 103 467 79 447 q 148 502 126 487 q 191 528 169 516 q 283 561 247 561 m 231 46 q 309 74 283 46 q 328 228 328 93 q 325 235 328 232 q 321 237 323 237 q 194 192 238 218 q 150 127 150 167 q 172 69 150 92 q 231 46 193 46 m 389 864 q 389 821 415 864 q 252 621 325 715 q 232 607 240 607 q 231 635 222 607 q 314 831 256 711 q 330 848 321 843 q 359 859 340 853 q 389 864 378 864 z "},"":{"ha":530,"x_min":47,"x_max":542,"o":"m 283 561 q 342 547 313 561 q 392 509 371 534 q 416 464 408 490 q 426 419 425 437 q 427 370 427 401 q 427 361 427 363 l 427 343 q 424 261 427 331 q 422 140 422 192 q 438 73 422 93 q 478 53 454 53 q 530 69 503 53 q 537 68 533 71 q 542 60 542 65 q 536 43 542 52 q 421 -20 500 -20 q 330 50 354 -20 q 325 53 330 52 q 319 53 320 54 q 157 -20 220 -20 q 80 13 113 -20 q 47 104 47 45 q 50 131 47 119 q 59 151 53 142 q 70 167 64 160 q 84 179 75 174 q 97 188 92 184 q 110 194 102 191 q 119 199 118 198 q 147 208 123 200 q 215 230 172 216 q 309 262 258 245 q 330 290 329 270 q 334 407 334 329 q 328 432 334 417 q 311 463 322 447 q 278 491 299 479 q 231 503 257 503 q 210 502 218 503 q 191 497 202 501 q 172 484 179 492 q 160 459 165 476 q 155 419 155 443 q 150 413 155 418 q 142 406 145 408 q 102 385 137 402 q 64 367 67 367 q 54 371 58 367 q 50 379 50 376 q 65 424 50 401 q 103 467 79 447 q 148 502 126 487 q 191 528 169 516 q 283 561 247 561 m 231 46 q 309 74 283 46 q 328 228 328 93 q 325 235 328 232 q 321 237 323 237 q 194 192 238 218 q 150 127 150 167 q 172 69 150 92 q 231 46 193 46 m 250 847 q 282 802 258 847 q 317 733 288 789 q 366 637 347 677 q 371 622 369 627 q 373 612 372 616 q 372 605 374 607 q 367 603 370 603 q 342 621 357 603 q 253 739 318 648 q 249 743 251 742 q 244 744 246 744 q 243 743 243 744 l 160 628 q 146 612 155 621 q 132 604 138 604 q 129 629 121 604 q 218 808 134 644 q 250 847 237 847 z "},"":{"ha":530,"x_min":47,"x_max":542,"o":"m 283 561 q 342 547 313 561 q 392 509 371 534 q 416 464 408 490 q 426 419 425 437 q 427 370 427 401 q 427 361 427 363 l 427 343 q 424 261 427 331 q 422 140 422 192 q 438 73 422 93 q 478 53 454 53 q 530 69 503 53 q 537 68 533 71 q 542 60 542 65 q 536 43 542 52 q 421 -20 500 -20 q 330 50 354 -20 q 325 53 330 52 q 319 53 320 54 q 157 -20 220 -20 q 80 13 113 -20 q 47 104 47 45 q 50 131 47 119 q 59 151 53 142 q 70 167 64 160 q 84 179 75 174 q 97 188 92 184 q 110 194 102 191 q 119 199 118 198 q 147 208 123 200 q 215 230 172 216 q 309 262 258 245 q 330 290 329 270 q 334 407 334 329 q 328 432 334 417 q 311 463 322 447 q 278 491 299 479 q 231 503 257 503 q 210 502 218 503 q 191 497 202 501 q 172 484 179 492 q 160 459 165 476 q 155 419 155 443 q 150 413 155 418 q 142 406 145 408 q 102 385 137 402 q 64 367 67 367 q 54 371 58 367 q 50 379 50 376 q 65 424 50 401 q 103 467 79 447 q 148 502 126 487 q 191 528 169 516 q 283 561 247 561 m 231 46 q 309 74 283 46 q 328 228 328 93 q 325 235 328 232 q 321 237 323 237 q 194 192 238 218 q 150 127 150 167 q 172 69 150 92 q 231 46 193 46 m 165 703 q 138 691 156 703 q 110 665 120 679 q 93 656 103 656 q 89 660 90 656 q 89 669 87 663 q 93 682 90 675 q 103 699 95 687 q 132 731 111 710 q 174 765 152 752 q 195 770 187 772 q 256 759 210 766 q 323 751 301 751 q 401 793 365 751 q 411 796 408 799 q 414 793 413 796 q 413 783 415 789 q 407 768 412 776 q 373 727 397 751 q 325 690 350 704 q 306 684 313 684 q 246 693 299 684 q 165 703 193 703 z "},"":{"ha":530,"x_min":47,"x_max":542,"o":"m 283 561 q 342 547 313 561 q 392 509 371 534 q 416 464 408 490 q 426 419 425 437 q 427 370 427 401 q 427 361 427 363 l 427 343 q 424 261 427 331 q 422 140 422 192 q 438 73 422 93 q 478 53 454 53 q 530 69 503 53 q 537 68 533 71 q 542 60 542 65 q 536 43 542 52 q 421 -20 500 -20 q 330 50 354 -20 q 325 53 330 52 q 319 53 320 54 q 157 -20 220 -20 q 80 13 113 -20 q 47 104 47 45 q 50 131 47 119 q 59 151 53 142 q 70 167 64 160 q 84 179 75 174 q 97 188 92 184 q 110 194 102 191 q 119 199 118 198 q 147 208 123 200 q 215 230 172 216 q 309 262 258 245 q 330 290 329 270 q 334 407 334 329 q 328 432 334 417 q 311 463 322 447 q 278 491 299 479 q 231 503 257 503 q 210 502 218 503 q 191 497 202 501 q 172 484 179 492 q 160 459 165 476 q 155 419 155 443 q 150 413 155 418 q 142 406 145 408 q 102 385 137 402 q 64 367 67 367 q 54 371 58 367 q 50 379 50 376 q 65 424 50 401 q 103 467 79 447 q 148 502 126 487 q 191 528 169 516 q 283 561 247 561 m 231 46 q 309 74 283 46 q 328 228 328 93 q 325 235 328 232 q 321 237 323 237 q 194 192 238 218 q 150 127 150 167 q 172 69 150 92 q 231 46 193 46 m 357 798 q 390 782 377 798 q 403 745 403 766 q 387 707 403 724 q 350 690 372 690 q 314 705 329 690 q 300 736 300 719 q 316 780 300 762 q 357 798 332 798 m 157 796 q 195 781 180 796 q 211 743 211 766 q 195 703 211 718 q 157 689 180 689 q 119 704 134 689 q 104 739 104 720 q 121 778 104 760 q 157 796 138 796 z "},"":{"ha":530,"x_min":47,"x_max":542,"o":"m 283 561 q 342 547 313 561 q 392 509 371 534 q 416 464 408 490 q 426 419 425 437 q 427 370 427 401 q 427 361 427 363 l 427 343 q 424 261 427 331 q 422 140 422 192 q 438 73 422 93 q 478 53 454 53 q 530 69 503 53 q 537 68 533 71 q 542 60 542 65 q 536 43 542 52 q 421 -20 500 -20 q 330 50 354 -20 q 325 53 330 52 q 319 53 320 54 q 157 -20 220 -20 q 80 13 113 -20 q 47 104 47 45 q 50 131 47 119 q 59 151 53 142 q 70 167 64 160 q 84 179 75 174 q 97 188 92 184 q 110 194 102 191 q 119 199 118 198 q 147 208 123 200 q 215 230 172 216 q 309 262 258 245 q 330 290 329 270 q 334 407 334 329 q 328 432 334 417 q 311 463 322 447 q 278 491 299 479 q 231 503 257 503 q 210 502 218 503 q 191 497 202 501 q 172 484 179 492 q 160 459 165 476 q 155 419 155 443 q 150 413 155 418 q 142 406 145 408 q 102 385 137 402 q 64 367 67 367 q 54 371 58 367 q 50 379 50 376 q 65 424 50 401 q 103 467 79 447 q 148 502 126 487 q 191 528 169 516 q 283 561 247 561 m 231 46 q 309 74 283 46 q 328 228 328 93 q 325 235 328 232 q 321 237 323 237 q 194 192 238 218 q 150 127 150 167 q 172 69 150 92 q 231 46 193 46 m 265 831 q 333 802 304 831 q 361 733 361 772 q 333 666 361 694 q 264 637 306 637 q 196 665 223 637 q 168 730 168 692 q 195 801 168 771 q 265 831 222 831 m 265 798 q 224 779 241 798 q 208 733 208 760 q 225 688 208 706 q 265 669 243 669 q 305 687 289 669 q 321 736 321 705 q 305 780 321 762 q 265 798 289 798 z "},"":{"ha":791,"x_min":47,"x_max":768,"o":"m 297 561 q 377 537 339 561 q 432 478 415 513 q 444 476 437 469 q 629 561 532 561 q 731 527 693 561 q 768 443 768 492 q 762 422 768 433 q 747 408 755 411 q 453 302 570 350 q 441 282 441 298 q 443 207 441 227 q 452 150 445 170 q 476 109 458 129 q 608 56 515 56 q 691 76 646 56 q 758 118 735 96 q 765 119 762 121 q 768 114 768 117 q 758 79 768 100 q 670 10 733 39 q 557 -20 608 -20 q 435 4 485 -18 q 355 82 386 27 q 349 87 354 85 q 342 86 344 89 q 150 -20 211 -20 q 79 15 112 -20 q 47 106 47 50 q 62 165 47 140 q 121 210 77 191 q 167 229 142 219 q 237 256 192 239 q 326 290 282 273 q 337 300 331 292 q 343 313 343 308 q 346 374 346 355 q 311 481 344 454 q 236 505 287 505 q 167 485 199 505 q 160 459 165 484 q 155 418 155 434 q 127 395 155 409 q 61 367 77 367 q 53 371 57 367 q 49 383 49 375 q 58 415 49 395 q 79 449 66 435 q 183 527 122 493 q 297 561 244 561 m 589 514 q 472 464 529 514 q 454 439 464 456 q 444 410 444 422 q 441 346 441 378 q 446 338 441 342 q 454 336 451 335 q 624 401 558 370 q 651 421 640 408 q 661 443 661 435 q 644 490 661 467 q 589 514 626 513 m 218 57 q 329 107 279 57 q 340 143 337 115 q 343 253 343 170 q 341 260 343 256 q 334 262 338 264 q 218 218 267 245 q 146 135 148 181 q 166 79 145 101 q 218 57 186 57 z "},"":{"ha":555,"x_min":49,"x_max":538,"o":"m 359 561 q 446 551 406 561 q 503 528 486 541 q 517 496 517 513 q 507 460 517 482 q 488 439 497 439 q 450 464 479 439 q 385 511 416 494 q 311 528 353 528 q 244 504 278 528 q 187 452 210 481 q 160 390 171 430 q 150 301 150 349 q 164 222 150 263 q 204 143 178 181 q 274 80 230 105 q 374 56 319 56 q 432 62 406 56 q 476 80 458 68 q 505 100 495 92 q 526 122 514 109 q 534 123 530 125 q 538 117 538 120 q 514 69 538 93 q 359 -14 457 3 l 323 -69 q 323 -79 319 -75 q 393 -163 393 -109 q 328 -268 393 -219 q 248 -298 281 -298 q 218 -282 218 -298 q 231 -264 218 -278 q 249 -254 243 -252 q 288 -260 271 -260 q 323 -243 309 -260 q 338 -208 338 -227 q 317 -165 338 -183 q 267 -147 296 -147 l 248 -147 q 239 -143 243 -147 q 235 -138 235 -140 q 244 -118 235 -127 q 330 -18 277 -87 q 307 -20 323 -20 q 122 60 198 -20 q 67 150 85 98 q 49 252 49 202 q 174 500 49 416 q 258 542 207 524 q 359 561 310 561 z "},"":{"ha":524,"x_min":49,"x_max":505,"o":"m 193 528 q 315 558 239 558 q 439 513 391 558 q 486 397 486 467 q 474 378 486 386 q 444 372 462 371 q 160 372 233 381 q 143 353 149 370 q 139 296 139 345 q 165 189 139 242 q 241 97 191 135 q 350 60 291 60 q 433 78 404 60 q 488 132 462 96 q 499 139 494 140 q 505 125 505 138 q 486 86 505 109 q 393 8 447 36 q 286 -20 338 -20 q 158 19 213 -20 q 76 120 102 58 q 49 254 49 181 q 61 353 49 306 q 106 448 73 399 q 193 528 140 496 m 298 534 q 212 500 254 534 q 151 408 171 465 q 153 402 151 406 q 158 399 155 399 q 258 400 191 399 q 339 401 326 401 q 377 414 366 405 q 387 446 388 422 q 356 508 387 481 q 298 534 326 534 m 224 878 q 257 822 239 878 q 318 636 288 735 q 317 607 326 607 q 296 624 307 607 q 193 800 239 712 q 180 833 180 825 q 199 860 181 843 q 224 878 217 878 z "},"":{"ha":524,"x_min":49,"x_max":505,"o":"m 193 528 q 315 558 239 558 q 439 513 391 558 q 486 397 486 467 q 474 378 486 386 q 444 372 462 371 q 160 372 233 381 q 143 353 149 370 q 139 296 139 345 q 165 189 139 242 q 241 97 191 135 q 350 60 291 60 q 433 78 404 60 q 488 132 462 96 q 499 139 494 140 q 505 125 505 138 q 486 86 505 109 q 393 8 447 36 q 286 -20 338 -20 q 158 19 213 -20 q 76 120 102 58 q 49 254 49 181 q 61 353 49 306 q 106 448 73 399 q 193 528 140 496 m 298 534 q 212 500 254 534 q 151 408 171 465 q 153 402 151 406 q 158 399 155 399 q 258 400 191 399 q 339 401 326 401 q 377 414 366 405 q 387 446 388 422 q 356 508 387 481 q 298 534 326 534 m 419 864 q 419 821 446 864 q 282 621 355 715 q 262 607 271 607 q 261 635 253 607 q 345 831 286 711 q 361 848 352 843 q 389 859 370 853 q 419 864 408 864 z "},"":{"ha":524,"x_min":49,"x_max":505,"o":"m 193 528 q 315 558 239 558 q 439 513 391 558 q 486 397 486 467 q 474 378 486 386 q 444 372 462 371 q 160 372 233 381 q 143 353 149 370 q 139 296 139 345 q 165 189 139 242 q 241 97 191 135 q 350 60 291 60 q 433 78 404 60 q 488 132 462 96 q 499 139 494 140 q 505 125 505 138 q 486 86 505 109 q 393 8 447 36 q 286 -20 338 -20 q 158 19 213 -20 q 76 120 102 58 q 49 254 49 181 q 61 353 49 306 q 106 448 73 399 q 193 528 140 496 m 298 534 q 212 500 254 534 q 151 408 171 465 q 153 402 151 406 q 158 399 155 399 q 258 400 191 399 q 339 401 326 401 q 377 414 366 405 q 387 446 388 422 q 356 508 387 481 q 298 534 326 534 m 296 854 q 328 808 303 854 q 362 740 333 796 q 411 644 392 684 q 416 629 414 634 q 418 618 418 623 q 417 612 419 614 q 412 610 416 610 q 387 628 403 610 q 298 746 360 661 q 294 750 296 749 q 290 751 292 751 q 289 750 289 751 l 205 635 q 192 619 201 627 q 178 611 183 611 q 175 636 168 611 q 264 815 182 655 q 296 854 283 854 z "},"":{"ha":524,"x_min":49,"x_max":505,"o":"m 193 528 q 315 558 239 558 q 439 513 391 558 q 486 397 486 467 q 474 378 486 386 q 444 372 462 371 q 160 372 233 381 q 143 353 149 370 q 139 296 139 345 q 165 189 139 242 q 241 97 191 135 q 350 60 291 60 q 433 78 404 60 q 488 132 462 96 q 499 139 494 140 q 505 125 505 138 q 486 86 505 109 q 393 8 447 36 q 286 -20 338 -20 q 158 19 213 -20 q 76 120 102 58 q 49 254 49 181 q 61 353 49 306 q 106 448 73 399 q 193 528 140 496 m 298 534 q 212 500 254 534 q 151 408 171 465 q 153 402 151 406 q 158 399 155 399 q 258 400 191 399 q 339 401 326 401 q 377 414 366 405 q 387 446 388 422 q 356 508 387 481 q 298 534 326 534 m 400 803 q 433 787 420 803 q 446 750 446 772 q 430 712 446 729 q 393 696 415 696 q 358 710 372 696 q 343 742 343 725 q 359 786 343 768 q 400 803 375 803 m 200 802 q 239 787 223 802 q 254 749 254 772 q 239 709 254 723 q 200 694 223 694 q 162 710 177 694 q 147 745 147 725 q 164 784 147 766 q 200 802 182 802 z "},"":{"ha":325,"x_min":28,"x_max":311,"o":"m 61 489 q 68 499 61 494 q 85 509 75 505 q 136 530 104 516 q 188 553 168 545 q 212 562 208 562 q 219 557 216 562 q 222 546 222 551 q 218 296 218 498 q 221 78 218 114 q 235 44 223 54 q 283 26 248 35 q 311 11 311 21 q 279 -4 311 -4 q 223 -2 259 -4 q 164 0 188 0 q 104 -3 136 0 q 56 -7 72 -7 q 28 5 28 -7 q 56 22 28 16 q 99 41 85 29 q 115 78 113 54 q 119 297 119 107 q 115 418 119 367 q 108 441 114 431 q 96 457 102 452 q 71 478 90 463 q 66 481 69 479 q 62 484 62 483 q 61 489 61 486 m 85 878 q 118 822 100 878 q 179 636 149 735 q 178 607 187 607 q 157 624 168 607 q 54 800 100 712 q 41 833 41 825 q 60 860 42 843 q 85 878 78 878 z "},"":{"ha":325,"x_min":28,"x_max":328,"o":"m 61 489 q 68 499 61 494 q 85 509 75 505 q 136 530 104 516 q 188 553 168 545 q 212 562 208 562 q 219 557 216 562 q 222 546 222 551 q 218 296 218 498 q 221 78 218 114 q 235 44 223 54 q 283 26 248 35 q 311 11 311 21 q 279 -4 311 -4 q 223 -2 259 -4 q 164 0 188 0 q 104 -3 136 0 q 56 -7 72 -7 q 28 5 28 -7 q 56 22 28 16 q 99 41 85 29 q 115 78 113 54 q 119 297 119 107 q 115 418 119 367 q 108 441 114 431 q 96 457 102 452 q 71 478 90 463 q 66 481 69 479 q 62 484 62 483 q 61 489 61 486 m 301 864 q 301 821 328 864 q 164 621 237 715 q 144 607 153 607 q 143 635 135 607 q 227 831 168 711 q 243 848 234 843 q 271 859 252 853 q 301 864 290 864 z "},"":{"ha":325,"x_min":28,"x_max":311,"o":"m 61 489 q 68 499 61 494 q 85 509 75 505 q 136 530 104 516 q 188 553 168 545 q 212 562 208 562 q 219 557 216 562 q 222 546 222 551 q 218 296 218 498 q 221 78 218 114 q 235 44 223 54 q 283 26 248 35 q 311 11 311 21 q 279 -4 311 -4 q 223 -2 259 -4 q 164 0 188 0 q 104 -3 136 0 q 56 -7 72 -7 q 28 5 28 -7 q 56 22 28 16 q 99 41 85 29 q 115 78 113 54 q 119 297 119 107 q 115 418 119 367 q 108 441 114 431 q 96 457 102 452 q 71 478 90 463 q 66 481 69 479 q 62 484 62 483 q 61 489 61 486 m 163 854 q 195 808 170 854 q 230 740 200 796 q 278 644 259 684 q 283 629 281 634 q 286 618 285 623 q 284 612 286 614 q 279 610 283 610 q 254 628 270 610 q 165 746 227 661 q 161 750 163 749 q 157 751 159 751 q 155 750 155 751 l 72 635 q 45 611 56 611 q 41 636 34 611 q 131 815 47 650 q 163 854 150 854 z "},"":{"ha":325,"x_min":12,"x_max":311,"o":"m 61 489 q 68 499 61 494 q 85 509 75 505 q 136 530 104 516 q 188 553 168 545 q 212 562 208 562 q 219 557 216 562 q 222 546 222 551 q 218 296 218 498 q 221 78 218 114 q 235 44 223 54 q 283 26 248 35 q 311 11 311 21 q 279 -4 311 -4 q 223 -2 259 -4 q 164 0 188 0 q 104 -3 136 0 q 56 -7 72 -7 q 28 5 28 -7 q 56 22 28 16 q 99 41 85 29 q 115 78 113 54 q 119 297 119 107 q 115 418 119 367 q 108 441 114 431 q 96 457 102 452 q 71 478 90 463 q 66 481 69 479 q 62 484 62 483 q 61 489 61 486 m 265 803 q 298 787 286 803 q 311 750 311 772 q 296 712 311 729 q 258 696 280 696 q 223 710 237 696 q 208 742 208 725 q 224 786 208 768 q 265 803 240 803 m 65 802 q 104 787 88 802 q 119 749 119 772 q 104 709 119 723 q 65 694 88 694 q 27 710 42 694 q 12 745 12 725 q 30 784 12 766 q 65 802 47 802 z "},"":{"ha":654,"x_min":49,"x_max":602,"o":"m 539 863 l 458 819 q 457 818 458 819 q 455 815 456 817 q 457 811 455 813 q 565 601 528 726 q 602 355 602 477 q 589 231 602 288 q 556 136 577 174 q 514 72 535 97 q 469 28 493 46 q 317 -20 410 -20 q 181 21 243 -20 q 84 127 119 61 q 49 269 49 194 q 103 444 49 368 q 208 528 142 495 q 345 561 274 561 q 464 543 410 561 q 472 549 467 542 q 476 561 477 556 q 386 772 448 697 q 381 777 385 774 q 375 778 377 779 q 315 753 359 770 q 243 721 271 736 q 227 718 234 716 q 219 729 224 720 q 214 741 214 738 q 216 750 214 749 l 347 811 q 347 821 351 813 q 122 961 245 931 q 105 969 114 964 q 96 979 96 975 q 104 988 96 984 q 121 991 112 991 q 270 949 191 989 q 414 856 350 910 q 429 851 424 848 q 545 903 460 867 q 551 901 547 903 q 559 880 559 890 q 539 863 559 872 m 328 530 q 264 510 298 530 q 208 449 231 490 q 161 271 161 373 q 172 182 161 227 q 204 99 183 138 q 261 36 225 60 q 343 12 298 12 q 456 96 409 12 q 488 205 477 133 q 498 338 498 277 q 489 412 498 378 q 465 463 480 446 q 395 513 433 496 q 328 530 356 530 z "},"":{"ha":683,"x_min":35,"x_max":657,"o":"m 65 507 q 88 522 65 517 q 91 523 90 523 q 93 524 92 524 q 116 531 103 526 q 139 541 130 536 q 163 552 149 545 q 184 562 178 559 q 205 570 197 570 q 212 550 212 570 q 212 509 212 536 q 211 482 211 483 q 211 480 211 481 q 212 476 211 479 q 213 474 212 474 q 216 475 214 474 q 309 533 257 507 q 411 558 361 558 q 483 543 451 558 q 532 507 515 528 q 566 438 557 476 q 576 314 574 400 l 581 98 q 592 48 582 63 q 632 26 602 33 q 657 7 657 18 q 621 -5 657 -5 q 576 -3 614 -5 q 518 0 538 0 q 472 -2 502 0 q 428 -4 441 -4 q 397 11 397 -4 q 435 32 397 22 q 461 46 454 37 q 472 77 469 56 q 476 150 475 98 l 479 275 q 474 395 480 359 q 452 454 468 431 q 407 488 435 475 q 349 501 379 501 q 222 449 272 501 q 216 431 219 446 q 214 412 214 416 q 215 135 214 178 q 226 55 216 75 q 272 26 235 35 q 298 9 298 21 q 267 -4 298 -4 q 210 -2 245 -4 q 160 0 175 0 q 113 -2 142 0 q 68 -4 83 -4 q 35 9 35 -4 q 60 28 35 22 q 98 47 87 34 q 110 83 109 60 q 119 386 119 259 q 113 457 119 437 q 77 493 106 476 q 65 507 65 500 m 256 711 q 228 699 246 711 q 200 673 210 687 q 183 664 193 664 q 179 668 180 664 q 179 677 178 671 q 183 690 180 684 q 194 707 186 695 q 222 740 201 719 q 264 774 242 761 q 285 778 276 780 q 346 767 300 774 q 414 760 391 760 q 492 802 454 760 q 501 804 498 808 q 504 801 503 804 q 504 791 505 798 q 497 777 502 784 q 464 735 487 759 q 415 699 440 712 q 396 692 404 692 q 336 702 389 692 q 256 711 283 711 z "},"":{"ha":662,"x_min":49,"x_max":615,"o":"m 328 561 q 530 481 446 561 q 615 281 615 402 q 486 32 615 123 q 413 -6 452 7 q 342 -20 374 -20 q 134 62 218 -20 q 49 265 49 144 q 131 473 49 389 q 224 537 172 514 q 328 561 277 561 m 319 529 q 263 515 289 529 q 211 463 237 501 q 161 281 161 395 q 182 153 161 213 q 245 53 202 93 q 346 12 288 12 q 392 25 363 12 q 441 68 420 39 q 500 268 500 146 q 487 354 500 309 q 452 439 475 399 q 395 504 430 478 q 319 529 359 529 m 271 878 q 304 822 286 878 q 366 636 335 735 q 364 607 374 607 q 343 624 354 607 q 240 800 283 718 q 228 833 228 824 q 246 860 229 843 q 271 878 264 878 z "},"":{"ha":662,"x_min":49,"x_max":615,"o":"m 328 561 q 530 481 446 561 q 615 281 615 402 q 486 32 615 123 q 413 -6 452 7 q 342 -20 374 -20 q 134 62 218 -20 q 49 265 49 144 q 131 473 49 389 q 224 537 172 514 q 328 561 277 561 m 319 529 q 263 515 289 529 q 211 463 237 501 q 161 281 161 395 q 182 153 161 213 q 245 53 202 93 q 346 12 288 12 q 392 25 363 12 q 441 68 420 39 q 500 268 500 146 q 487 354 500 309 q 452 439 475 399 q 395 504 430 478 q 319 529 359 529 m 454 864 q 454 821 481 864 q 389 720 431 781 q 317 621 347 659 q 297 607 305 607 q 296 635 288 607 q 379 831 321 711 q 396 848 386 842 q 425 859 406 853 q 454 864 444 864 z "},"":{"ha":662,"x_min":49,"x_max":615,"o":"m 328 561 q 530 481 446 561 q 615 281 615 402 q 486 32 615 123 q 413 -6 452 7 q 342 -20 374 -20 q 134 62 218 -20 q 49 265 49 144 q 131 473 49 389 q 224 537 172 514 q 328 561 277 561 m 319 529 q 263 515 289 529 q 211 463 237 501 q 161 281 161 395 q 182 153 161 213 q 245 53 202 93 q 346 12 288 12 q 392 25 363 12 q 441 68 420 39 q 500 268 500 146 q 487 354 500 309 q 452 439 475 399 q 395 504 430 478 q 319 529 359 529 m 330 854 q 363 808 338 854 q 398 739 368 795 q 446 644 427 683 q 451 629 449 634 q 453 618 452 623 q 452 612 454 614 q 447 610 450 610 q 422 628 438 610 q 334 746 395 661 q 329 750 332 749 q 325 751 327 751 q 323 750 323 751 l 240 635 q 227 619 235 627 q 212 611 218 611 q 210 636 202 611 q 298 815 216 655 q 330 854 317 854 z "},"":{"ha":662,"x_min":49,"x_max":615,"o":"m 328 561 q 530 481 446 561 q 615 281 615 402 q 486 32 615 123 q 413 -6 452 7 q 342 -20 374 -20 q 134 62 218 -20 q 49 265 49 144 q 131 473 49 389 q 224 537 172 514 q 328 561 277 561 m 319 529 q 263 515 289 529 q 211 463 237 501 q 161 281 161 395 q 182 153 161 213 q 245 53 202 93 q 346 12 288 12 q 392 25 363 12 q 441 68 420 39 q 500 268 500 146 q 487 354 500 309 q 452 439 475 399 q 395 504 430 478 q 319 529 359 529 m 244 703 q 217 691 235 703 q 189 665 199 679 q 172 656 182 656 q 168 660 170 656 q 168 669 167 663 q 172 682 169 675 q 182 699 174 687 q 211 731 191 710 q 253 765 231 752 q 273 770 266 772 q 335 759 289 766 q 403 751 380 751 q 481 793 444 751 q 490 796 487 799 q 493 793 492 796 q 493 783 494 789 q 486 768 491 776 q 453 727 476 751 q 404 690 429 704 q 385 684 393 684 q 325 693 378 684 q 244 703 272 703 z "},"":{"ha":662,"x_min":49,"x_max":615,"o":"m 328 561 q 530 481 446 561 q 615 281 615 402 q 486 32 615 123 q 413 -6 452 7 q 342 -20 374 -20 q 134 62 218 -20 q 49 265 49 144 q 131 473 49 389 q 224 537 172 514 q 328 561 277 561 m 319 529 q 263 515 289 529 q 211 463 237 501 q 161 281 161 395 q 182 153 161 213 q 245 53 202 93 q 346 12 288 12 q 392 25 363 12 q 441 68 420 39 q 500 268 500 146 q 487 354 500 309 q 452 439 475 399 q 395 504 430 478 q 319 529 359 529 m 433 803 q 467 787 454 803 q 479 750 479 772 q 464 712 479 729 q 427 696 448 696 q 391 710 406 696 q 376 742 376 725 q 392 786 376 768 q 433 803 408 803 m 233 802 q 272 787 256 802 q 288 749 288 772 q 272 709 288 723 q 233 694 256 694 q 195 710 210 694 q 180 745 180 725 q 198 784 180 766 q 233 802 215 802 z "},"":{"ha":722,"x_min":64,"x_max":659,"o":"m 359 163 q 402 145 385 163 q 419 104 419 127 q 400 59 419 79 q 359 39 382 39 q 317 57 334 39 q 300 102 300 75 q 319 143 300 123 q 359 163 338 163 m 359 554 q 404 535 386 554 q 422 490 422 517 q 404 449 422 466 q 359 432 386 432 q 319 449 337 432 q 301 490 301 467 q 321 536 301 517 q 359 554 340 554 m 81 332 l 650 330 q 656 325 653 330 q 659 315 659 319 q 653 279 659 288 q 639 271 648 271 l 83 269 q 64 286 64 269 q 71 322 64 307 q 81 332 75 332 z "},"":{"ha":661,"x_min":49,"x_max":614,"o":"m 328 561 q 485 517 410 561 q 494 519 491 513 l 528 562 q 535 566 529 564 q 545 566 541 568 q 557 555 549 564 q 557 545 562 550 l 525 501 q 524 489 520 492 q 614 283 614 406 q 578 131 614 193 q 490 35 543 70 q 339 -20 418 -20 q 176 29 249 -20 q 168 25 174 31 l 126 -29 q 117 -32 122 -37 q 104 -17 110 -28 q 106 -4 102 -8 l 142 43 q 142 50 143 46 q 140 56 142 54 q 73 149 97 95 q 49 265 49 203 q 131 473 49 391 q 225 537 172 513 q 328 561 278 561 m 343 12 q 458 72 412 12 q 504 269 504 137 q 472 415 504 342 q 467 418 470 418 q 461 415 463 418 q 218 90 360 282 q 218 78 215 85 q 343 12 271 12 m 330 530 q 207 463 255 530 q 157 281 157 392 q 195 119 157 193 q 196 118 195 119 q 198 118 197 117 q 200 119 199 118 q 314 275 231 160 q 443 450 397 390 q 444 457 445 452 q 441 464 444 462 q 330 530 389 530 z "},"":{"ha":658,"x_min":35,"x_max":664,"o":"m 335 53 q 353 54 345 53 q 368 56 361 55 q 381 60 374 57 q 393 64 389 63 q 402 70 397 66 q 411 75 408 74 q 418 81 413 76 q 425 87 424 86 q 431 94 425 88 l 436 100 q 452 168 452 121 q 450 456 452 399 q 428 503 450 496 q 392 514 417 507 q 364 533 364 519 q 389 542 364 542 q 513 546 486 542 q 545 549 529 549 q 554 510 554 549 q 553 453 554 494 q 551 328 552 412 q 550 121 550 243 q 556 57 550 73 q 579 41 562 41 q 623 48 591 41 q 656 54 655 54 q 661 51 659 54 q 664 45 664 47 q 652 18 664 20 q 493 -18 578 8 q 464 -24 479 -24 q 456 -16 460 -24 q 452 1 452 -7 q 453 45 452 18 q 454 77 454 73 q 451 80 454 79 q 447 79 448 81 q 342 3 376 20 q 250 -20 298 -20 q 188 -7 218 -20 q 139 28 158 6 q 106 136 106 63 q 106 254 106 169 q 107 386 107 338 q 104 453 106 434 q 103 467 104 458 q 102 478 102 475 q 100 486 102 480 q 96 493 98 492 q 89 499 94 495 q 77 505 83 503 q 60 511 70 508 q 35 530 35 521 q 64 542 35 542 q 153 545 107 542 q 207 549 198 549 q 210 546 208 549 q 213 537 212 543 q 214 528 214 532 q 207 193 207 375 q 216 116 207 144 q 248 72 225 87 q 335 53 280 51 m 245 879 q 279 823 261 879 q 340 637 310 736 q 339 608 349 608 q 318 625 329 608 q 215 802 258 719 q 203 835 203 825 q 221 862 203 844 q 245 879 239 879 z "},"":{"ha":658,"x_min":35,"x_max":664,"o":"m 335 53 q 353 54 345 53 q 368 56 361 55 q 381 60 374 57 q 393 64 389 63 q 402 70 397 66 q 411 75 408 74 q 418 81 413 76 q 425 87 424 86 q 431 94 425 88 l 436 100 q 452 168 452 121 q 450 456 452 399 q 428 503 450 496 q 392 514 417 507 q 364 533 364 519 q 389 542 364 542 q 513 546 486 542 q 545 549 529 549 q 554 510 554 549 q 553 453 554 494 q 551 328 552 412 q 550 121 550 243 q 556 57 550 73 q 579 41 562 41 q 623 48 591 41 q 656 54 655 54 q 661 51 659 54 q 664 45 664 47 q 652 18 664 20 q 493 -18 578 8 q 464 -24 479 -24 q 456 -16 460 -24 q 452 1 452 -7 q 453 45 452 18 q 454 77 454 73 q 451 80 454 79 q 447 79 448 81 q 342 3 376 20 q 250 -20 298 -20 q 188 -7 218 -20 q 139 28 158 6 q 106 136 106 63 q 106 254 106 169 q 107 386 107 338 q 104 453 106 434 q 103 467 104 458 q 102 478 102 475 q 100 486 102 480 q 96 493 98 492 q 89 499 94 495 q 77 505 83 503 q 60 511 70 508 q 35 530 35 521 q 64 542 35 542 q 153 545 107 542 q 207 549 198 549 q 210 546 208 549 q 213 537 212 543 q 214 528 214 532 q 207 193 207 375 q 216 116 207 144 q 248 72 225 87 q 335 53 280 51 m 452 864 q 452 821 478 864 q 386 720 428 781 q 314 621 344 659 q 294 607 302 607 q 293 635 285 607 q 376 831 318 711 q 393 848 383 842 q 422 859 403 853 q 452 864 441 864 z "},"":{"ha":658,"x_min":35,"x_max":664,"o":"m 335 53 q 353 54 345 53 q 368 56 361 55 q 381 60 374 57 q 393 64 389 63 q 402 70 397 66 q 411 75 408 74 q 418 81 413 76 q 425 87 424 86 q 431 94 425 88 l 436 100 q 452 168 452 121 q 450 456 452 399 q 428 503 450 496 q 392 514 417 507 q 364 533 364 519 q 389 542 364 542 q 513 546 486 542 q 545 549 529 549 q 554 510 554 549 q 553 453 554 494 q 551 328 552 412 q 550 121 550 243 q 556 57 550 73 q 579 41 562 41 q 623 48 591 41 q 656 54 655 54 q 661 51 659 54 q 664 45 664 47 q 652 18 664 20 q 493 -18 578 8 q 464 -24 479 -24 q 456 -16 460 -24 q 452 1 452 -7 q 453 45 452 18 q 454 77 454 73 q 451 80 454 79 q 447 79 448 81 q 342 3 376 20 q 250 -20 298 -20 q 188 -7 218 -20 q 139 28 158 6 q 106 136 106 63 q 106 254 106 169 q 107 386 107 338 q 104 453 106 434 q 103 467 104 458 q 102 478 102 475 q 100 486 102 480 q 96 493 98 492 q 89 499 94 495 q 77 505 83 503 q 60 511 70 508 q 35 530 35 521 q 64 542 35 542 q 153 545 107 542 q 207 549 198 549 q 210 546 208 549 q 213 537 212 543 q 214 528 214 532 q 207 193 207 375 q 216 116 207 144 q 248 72 225 87 q 335 53 280 51 m 328 854 q 359 808 335 854 q 394 740 365 796 q 443 644 424 684 q 448 629 446 634 q 450 618 450 623 q 449 612 451 614 q 444 610 448 610 q 419 628 434 610 q 330 746 392 661 q 326 750 328 749 q 322 751 323 751 q 321 750 321 751 l 237 635 q 224 619 233 627 q 210 611 215 611 q 207 636 199 611 q 296 815 214 655 q 328 854 315 854 z "},"":{"ha":658,"x_min":35,"x_max":664,"o":"m 335 53 q 353 54 345 53 q 368 56 361 55 q 381 60 374 57 q 393 64 389 63 q 402 70 397 66 q 411 75 408 74 q 418 81 413 76 q 425 87 424 86 q 431 94 425 88 l 436 100 q 452 168 452 121 q 450 456 452 399 q 428 503 450 496 q 392 514 417 507 q 364 533 364 519 q 389 542 364 542 q 513 546 486 542 q 545 549 529 549 q 554 510 554 549 q 553 453 554 494 q 551 328 552 412 q 550 121 550 243 q 556 57 550 73 q 579 41 562 41 q 623 48 591 41 q 656 54 655 54 q 661 51 659 54 q 664 45 664 47 q 652 18 664 20 q 493 -18 578 8 q 464 -24 479 -24 q 456 -16 460 -24 q 452 1 452 -7 q 453 45 452 18 q 454 77 454 73 q 451 80 454 79 q 447 79 448 81 q 342 3 376 20 q 250 -20 298 -20 q 188 -7 218 -20 q 139 28 158 6 q 106 136 106 63 q 106 254 106 169 q 107 386 107 338 q 104 453 106 434 q 103 467 104 458 q 102 478 102 475 q 100 486 102 480 q 96 493 98 492 q 89 499 94 495 q 77 505 83 503 q 60 511 70 508 q 35 530 35 521 q 64 542 35 542 q 153 545 107 542 q 207 549 198 549 q 210 546 208 549 q 213 537 212 543 q 214 528 214 532 q 207 193 207 375 q 216 116 207 144 q 248 72 225 87 q 335 53 280 51 m 431 803 q 464 787 451 803 q 476 750 476 772 q 461 712 476 729 q 424 696 446 696 q 388 710 403 696 q 374 742 374 725 q 390 786 374 768 q 431 803 406 803 m 231 802 q 269 787 254 802 q 285 749 285 772 q 269 709 285 723 q 231 694 254 694 q 193 710 208 694 q 178 745 178 725 q 195 784 178 766 q 231 802 212 802 z "},"":{"ha":540,"x_min":-20,"x_max":579,"o":"m -20 536 q 9 546 -20 546 q 61 544 22 546 q 114 542 100 542 q 174 544 134 542 q 222 546 214 546 q 248 534 248 546 q 215 518 248 526 q 181 493 186 511 q 193 424 176 476 q 219 353 194 422 q 268 221 243 285 q 301 140 292 157 q 305 136 302 137 q 310 140 308 136 q 437 447 371 273 q 393 517 458 503 q 366 534 366 523 q 393 546 366 546 q 431 544 403 546 q 471 542 458 542 q 512 544 480 542 q 555 546 545 546 q 579 532 579 546 q 578 529 579 530 q 575 526 578 528 q 570 524 572 525 q 563 522 568 524 q 554 518 558 519 q 516 496 530 509 q 488 457 503 484 q 397 256 478 439 q 292 28 316 73 q 250 -66 285 16 q 201 -180 237 -95 q 140 -321 166 -266 q 115 -349 132 -340 q 82 -358 98 -358 q 41 -343 60 -358 q 22 -298 22 -328 q 38 -255 22 -272 q 81 -239 54 -239 q 97 -241 83 -239 q 114 -244 111 -244 q 149 -203 122 -244 q 192 -110 162 -180 q 233 -5 222 -39 q 235 28 239 11 q 229 44 233 31 q 217 77 224 57 q 203 121 210 98 q 176 192 195 146 q 126 318 158 238 q 83 424 94 398 q 51 492 66 471 q 8 518 36 513 q -20 536 -20 524 m 435 864 q 435 821 461 864 q 369 720 411 781 q 297 621 327 659 q 278 607 286 607 q 277 635 269 607 q 359 831 303 715 q 376 848 366 842 q 405 859 386 853 q 435 864 424 864 z "},"":{"ha":662,"x_min":17,"x_max":615,"o":"m 615 309 q 563 139 615 213 q 429 24 511 65 q 351 -1 399 8 q 281 -9 304 -9 q 214 -7 245 -9 q 206 -11 210 -7 q 203 -21 203 -15 q 207 -256 203 -199 q 226 -315 209 -296 q 292 -336 243 -334 q 322 -353 322 -338 q 290 -366 322 -366 q 224 -362 274 -366 q 154 -359 174 -359 q 96 -362 134 -359 q 46 -364 57 -364 q 17 -350 17 -364 q 46 -334 17 -340 q 90 -312 77 -328 q 103 -260 102 -296 q 105 7 104 -248 q 107 358 107 263 q 104 655 107 486 q 96 872 100 824 q 88 894 94 885 q 60 920 82 903 q 43 936 43 932 q 75 957 43 950 q 176 986 146 973 q 199 991 191 991 q 207 961 209 991 q 201 505 199 767 q 204 500 201 503 q 211 500 208 497 q 392 555 302 555 q 549 484 477 555 q 596 403 577 455 q 615 309 615 351 m 505 267 q 453 436 505 382 q 392 478 431 460 q 306 496 353 496 q 221 482 245 496 q 211 465 216 478 q 205 440 205 452 q 214 125 205 166 q 221 102 215 117 q 232 83 227 87 q 289 46 256 60 q 353 32 321 32 q 415 52 374 32 q 477 136 449 67 q 505 267 505 205 z "},"":{"ha":540,"x_min":-20,"x_max":579,"o":"m -20 536 q 9 546 -20 546 q 61 544 22 546 q 114 542 100 542 q 174 544 134 542 q 222 546 214 546 q 248 534 248 546 q 215 518 248 526 q 181 493 186 511 q 193 424 176 476 q 219 353 194 422 q 268 221 243 285 q 301 140 292 157 q 305 136 302 137 q 310 140 308 136 q 437 447 371 273 q 393 517 458 503 q 366 534 366 523 q 393 546 366 546 q 431 544 403 546 q 471 542 458 542 q 512 544 480 542 q 555 546 545 546 q 579 532 579 546 q 578 529 579 530 q 575 526 578 528 q 570 524 572 525 q 563 522 568 524 q 554 518 558 519 q 516 496 530 509 q 488 457 503 484 q 397 256 478 439 q 292 28 316 73 q 250 -66 285 16 q 201 -180 237 -95 q 140 -321 166 -266 q 115 -349 132 -340 q 82 -358 98 -358 q 41 -343 60 -358 q 22 -298 22 -328 q 38 -255 22 -272 q 81 -239 54 -239 q 97 -241 83 -239 q 114 -244 111 -244 q 149 -203 122 -244 q 192 -110 162 -180 q 233 -5 222 -39 q 235 28 239 11 q 229 44 233 31 q 217 77 224 57 q 203 121 210 98 q 176 192 195 146 q 126 318 158 238 q 83 424 94 398 q 51 492 66 471 q 8 518 36 513 q -20 536 -20 524 m 397 803 q 430 787 418 803 q 443 750 443 772 q 427 712 443 729 q 390 696 412 696 q 355 710 369 696 q 340 742 340 725 q 356 786 340 768 q 397 803 372 803 m 197 802 q 236 787 220 802 q 252 749 252 772 q 236 709 252 723 q 197 694 220 694 q 159 710 174 694 q 144 745 144 725 q 162 784 144 766 q 197 802 179 802 z "},"":{"ha":900,"x_min":7,"x_max":916,"o":"m 482 903 q 490 896 486 901 q 494 886 494 890 q 518 803 496 872 q 766 135 635 463 q 792 83 780 102 q 822 52 805 63 q 851 38 839 41 q 889 28 863 34 q 916 8 916 20 q 880 -7 916 -7 q 820 -3 876 -7 q 728 0 764 0 q 645 -1 694 0 q 585 -3 597 -3 q 554 12 554 -3 q 583 31 554 22 q 626 51 612 39 q 641 77 640 64 q 640 106 642 90 q 607 217 634 137 q 566 335 580 297 q 533 353 557 353 q 288 351 303 353 q 277 345 283 351 q 268 330 271 338 q 228 207 256 301 q 200 89 200 113 q 215 46 200 60 q 277 25 231 33 q 297 17 290 23 q 304 5 304 12 q 269 -7 304 -7 q 222 -3 252 -7 q 158 0 193 0 q 100 -3 136 0 q 46 -7 64 -7 q 7 5 7 -7 q 35 24 7 18 q 100 57 78 32 q 143 134 121 82 q 390 822 236 365 q 400 863 400 842 l 400 879 q 406 892 400 885 q 416 901 412 900 q 449 904 425 903 q 482 903 474 905 m 526 416 q 533 431 535 422 q 419 751 488 568 q 413 758 418 756 q 407 755 409 760 q 354 598 400 740 q 298 427 307 457 q 299 420 297 424 q 307 415 302 416 q 420 414 324 414 q 526 416 515 414 m 318 1029 l 587 1032 q 593 1026 589 1032 q 596 1015 596 1021 q 589 978 596 1000 q 574 970 587 970 l 311 964 q 304 968 307 964 q 301 977 301 972 q 309 1022 301 1010 q 318 1029 316 1029 z "},"":{"ha":530,"x_min":47,"x_max":542,"o":"m 283 561 q 342 547 313 561 q 392 509 371 534 q 416 464 408 490 q 426 419 425 437 q 427 370 427 401 q 427 361 427 363 l 427 343 q 424 261 427 331 q 422 140 422 192 q 438 73 422 93 q 478 53 454 53 q 530 69 503 53 q 537 68 533 71 q 542 60 542 65 q 536 43 542 52 q 421 -20 500 -20 q 330 50 354 -20 q 325 53 330 52 q 319 53 320 54 q 157 -20 220 -20 q 80 13 113 -20 q 47 104 47 45 q 50 131 47 119 q 59 151 53 142 q 70 167 64 160 q 84 179 75 174 q 97 188 92 184 q 110 194 102 191 q 119 199 118 198 q 147 208 123 200 q 215 230 172 216 q 309 262 258 245 q 330 290 329 270 q 334 407 334 329 q 328 432 334 417 q 311 463 322 447 q 278 491 299 479 q 231 503 257 503 q 210 502 218 503 q 191 497 202 501 q 172 484 179 492 q 160 459 165 476 q 155 419 155 443 q 150 413 155 418 q 142 406 145 408 q 102 385 137 402 q 64 367 67 367 q 54 371 58 367 q 50 379 50 376 q 65 424 50 401 q 103 467 79 447 q 148 502 126 487 q 191 528 169 516 q 283 561 247 561 m 231 46 q 309 74 283 46 q 328 228 328 93 q 325 235 328 232 q 321 237 323 237 q 194 192 238 218 q 150 127 150 167 q 172 69 150 92 q 231 46 193 46 m 142 753 l 389 755 q 395 750 392 755 q 399 739 399 745 q 390 701 399 728 q 375 693 388 693 l 135 688 q 128 692 131 688 q 125 700 125 696 q 132 746 125 734 q 142 753 139 753 z "},"":{"ha":900,"x_min":7,"x_max":916,"o":"m 482 903 q 490 896 486 901 q 494 886 494 890 q 518 803 496 872 q 766 135 635 463 q 792 83 780 102 q 822 52 805 63 q 851 38 839 41 q 889 28 863 34 q 916 8 916 20 q 880 -7 916 -7 q 820 -3 876 -7 q 728 0 764 0 q 645 -1 694 0 q 585 -3 597 -3 q 554 12 554 -3 q 583 31 554 22 q 626 51 612 39 q 641 77 640 64 q 640 106 642 90 q 607 217 634 137 q 566 335 580 297 q 533 353 557 353 q 288 351 303 353 q 277 345 283 351 q 268 330 271 338 q 228 207 256 301 q 200 89 200 113 q 215 46 200 60 q 277 25 231 33 q 297 17 290 23 q 304 5 304 12 q 269 -7 304 -7 q 222 -3 252 -7 q 158 0 193 0 q 100 -3 136 0 q 46 -7 64 -7 q 7 5 7 -7 q 35 24 7 18 q 100 57 78 32 q 143 134 121 82 q 390 822 236 365 q 400 863 400 842 l 400 879 q 406 892 400 885 q 416 901 412 900 q 449 904 425 903 q 482 903 474 905 m 526 416 q 533 431 535 422 q 419 751 488 568 q 413 758 418 756 q 407 755 409 760 q 354 598 400 740 q 298 427 307 457 q 299 420 297 424 q 307 415 302 416 q 420 414 324 414 q 526 416 515 414 m 441 977 q 342 1009 383 977 q 297 1103 302 1042 q 299 1119 296 1112 q 309 1126 302 1126 q 313 1125 311 1126 q 316 1122 315 1124 q 319 1118 318 1120 q 322 1112 320 1116 q 325 1105 323 1107 q 449 1044 362 1044 q 524 1056 496 1044 q 572 1101 553 1068 q 590 1122 583 1122 q 599 1101 599 1122 q 588 1066 597 1085 q 562 1026 579 1047 q 514 990 545 1004 q 441 977 482 977 z "},"":{"ha":530,"x_min":47,"x_max":542,"o":"m 283 561 q 342 547 313 561 q 392 509 371 534 q 416 464 408 490 q 426 419 425 437 q 427 370 427 401 q 427 361 427 363 l 427 343 q 424 261 427 331 q 422 140 422 192 q 438 73 422 93 q 478 53 454 53 q 530 69 503 53 q 537 68 533 71 q 542 60 542 65 q 536 43 542 52 q 421 -20 500 -20 q 330 50 354 -20 q 325 53 330 52 q 319 53 320 54 q 157 -20 220 -20 q 80 13 113 -20 q 47 104 47 45 q 50 131 47 119 q 59 151 53 142 q 70 167 64 160 q 84 179 75 174 q 97 188 92 184 q 110 194 102 191 q 119 199 118 198 q 147 208 123 200 q 215 230 172 216 q 309 262 258 245 q 330 290 329 270 q 334 407 334 329 q 328 432 334 417 q 311 463 322 447 q 278 491 299 479 q 231 503 257 503 q 210 502 218 503 q 191 497 202 501 q 172 484 179 492 q 160 459 165 476 q 155 419 155 443 q 150 413 155 418 q 142 406 145 408 q 102 385 137 402 q 64 367 67 367 q 54 371 58 367 q 50 379 50 376 q 65 424 50 401 q 103 467 79 447 q 148 502 126 487 q 191 528 169 516 q 283 561 247 561 m 231 46 q 309 74 283 46 q 328 228 328 93 q 325 235 328 232 q 321 237 323 237 q 194 192 238 218 q 150 127 150 167 q 172 69 150 92 q 231 46 193 46 m 250 650 q 168 684 202 650 q 129 778 134 718 q 130 801 127 791 q 135 813 132 810 q 142 817 138 817 q 155 800 150 817 q 191 744 163 765 q 256 722 218 722 q 363 798 338 722 q 376 812 367 812 q 384 805 382 812 q 385 786 387 798 q 375 747 382 766 q 354 704 368 728 q 313 665 340 680 q 250 650 286 650 z "},"":{"ha":900,"x_min":7,"x_max":916,"o":"m 482 903 q 490 896 486 901 q 494 886 494 890 q 519 803 497 865 q 768 135 631 471 q 794 83 781 102 q 823 52 806 63 q 851 38 840 41 q 889 28 863 34 q 916 8 916 20 q 880 -7 916 -7 q 800 -1 875 -7 q 679 -196 679 -115 q 699 -244 679 -228 q 747 -260 718 -260 q 823 -235 794 -260 q 831 -235 827 -232 q 835 -244 835 -239 q 828 -268 835 -258 q 776 -318 810 -296 q 699 -340 741 -340 q 623 -311 652 -340 q 593 -232 593 -281 q 641 -122 593 -186 q 768 0 688 -58 l 728 0 q 645 -1 694 0 q 585 -3 597 -3 q 562 2 570 -3 q 554 14 554 7 q 583 33 554 25 q 626 54 612 42 q 641 78 640 66 q 640 106 642 91 q 607 217 634 137 q 566 335 580 297 q 533 350 558 350 q 290 349 306 350 q 271 330 277 349 q 231 207 258 301 q 203 89 203 113 q 217 50 203 61 q 279 25 231 38 q 307 5 307 20 q 272 -7 307 -7 q 223 -3 254 -7 q 158 0 193 0 q 100 -3 136 0 q 46 -7 64 -7 q 7 8 7 -7 q 13 19 7 15 q 35 26 18 22 q 101 62 79 39 q 143 134 123 85 q 291 537 197 269 q 390 822 384 804 q 400 863 400 842 l 400 879 q 406 892 400 885 q 416 901 412 900 q 449 904 425 903 q 482 903 474 905 m 526 416 q 533 431 535 422 q 424 747 466 635 q 418 754 422 752 q 411 751 413 756 q 351 577 388 692 q 301 427 313 461 q 302 420 300 424 q 310 415 304 416 q 421 414 327 414 q 526 416 515 414 z "},"":{"ha":533,"x_min":47,"x_max":542,"o":"m 283 561 q 393 507 348 561 q 417 458 409 488 q 426 412 425 429 q 427 361 427 395 q 425 273 427 347 q 422 140 422 199 q 438 73 422 93 q 478 53 454 53 q 530 69 503 53 q 537 67 533 71 q 542 58 542 64 q 522 25 542 50 q 488 -7 505 5 q 402 -97 431 -56 q 372 -182 372 -138 q 393 -228 372 -209 q 441 -248 414 -248 q 483 -242 468 -248 q 513 -222 498 -236 q 518 -219 515 -220 q 524 -219 522 -218 q 526 -224 526 -220 q 519 -245 526 -232 q 469 -296 501 -274 q 392 -318 436 -318 q 320 -288 348 -318 q 292 -210 292 -257 q 440 -20 292 -130 l 421 -20 q 330 50 354 -20 q 325 53 330 52 q 319 53 320 54 q 218 -5 274 19 q 157 -20 189 -20 q 112 -9 137 -20 q 74 18 87 1 q 47 104 47 52 q 62 158 47 137 q 76 173 67 165 q 93 185 85 181 q 110 194 101 189 q 119 199 119 198 q 147 208 123 200 q 214 230 171 216 q 309 262 258 245 q 321 270 316 265 q 328 277 326 274 q 329 281 329 279 q 334 407 334 351 q 328 432 334 417 q 311 463 322 447 q 278 491 299 479 q 229 503 256 503 q 178 492 200 503 q 155 419 155 479 q 150 413 155 418 q 142 406 145 408 q 100 384 134 401 q 64 367 67 367 q 54 371 58 367 q 50 379 50 376 q 95 459 50 418 q 191 528 140 500 q 283 561 244 561 m 231 46 q 309 72 279 46 q 316 87 311 74 q 321 102 321 100 q 328 228 328 148 q 325 235 328 232 q 321 237 323 237 q 197 192 256 222 q 161 167 173 182 q 150 127 150 152 q 172 69 150 92 q 231 46 193 46 z "},"":{"ha":966,"x_min":64,"x_max":899,"o":"m 593 920 q 645 918 619 920 q 694 912 670 916 q 732 905 718 908 q 768 898 747 903 q 794 892 790 892 q 857 880 832 880 q 867 872 862 880 q 871 860 872 864 q 870 819 869 845 q 872 779 871 793 q 874 743 873 764 q 876 718 876 723 q 864 685 878 685 q 846 714 854 685 q 812 783 831 758 q 761 829 793 807 q 677 871 730 854 q 561 888 624 888 q 297 779 392 888 q 201 496 201 670 q 249 258 201 360 q 353 117 289 175 q 480 34 416 58 q 604 9 543 9 q 761 41 699 9 q 857 143 823 75 q 876 179 871 172 q 889 187 882 187 q 896 178 894 187 q 897 161 899 170 l 890 66 q 879 46 890 58 q 854 28 867 34 q 576 -28 739 -28 q 353 14 462 -28 q 172 139 245 55 q 91 280 119 200 q 64 441 64 361 q 112 653 64 555 q 261 821 160 751 q 593 920 404 920 m 656 1132 q 689 1140 676 1147 q 714 1121 700 1135 q 725 1100 728 1107 q 705 1078 720 1088 q 521 966 617 1019 q 484 958 489 954 q 484 970 479 961 q 497 987 489 979 q 540 1028 503 994 q 605 1088 576 1063 q 656 1132 633 1114 z "},"":{"ha":555,"x_min":49,"x_max":538,"o":"m 359 561 q 446 551 406 561 q 503 528 486 541 q 517 496 517 513 q 507 460 517 482 q 488 439 497 439 q 450 464 479 439 q 385 511 416 494 q 311 528 353 528 q 244 504 278 528 q 187 452 210 481 q 150 302 150 402 q 164 223 150 264 q 204 143 178 181 q 274 80 230 105 q 374 56 319 56 q 432 62 406 56 q 476 80 458 68 q 505 100 495 92 q 526 122 514 109 q 534 123 530 125 q 538 117 538 120 q 514 69 538 93 q 424 4 478 28 q 307 -20 370 -20 q 122 60 198 -20 q 67 150 85 98 q 49 252 49 202 q 174 500 49 416 q 258 542 207 524 q 359 561 310 561 m 449 864 q 449 821 475 864 q 383 720 425 781 q 311 621 341 659 q 292 607 300 607 q 290 635 282 607 q 374 831 315 711 q 390 848 381 843 q 419 859 399 853 q 449 864 438 864 z "},"":{"ha":966,"x_min":64,"x_max":899,"o":"m 593 920 q 645 918 619 920 q 694 912 670 916 q 732 905 718 908 q 768 898 747 903 q 794 892 790 892 q 857 880 832 880 q 867 872 862 880 q 871 860 872 864 q 870 819 869 845 q 872 779 871 793 q 874 743 873 764 q 876 718 876 723 q 864 685 878 685 q 846 714 854 685 q 812 783 831 758 q 761 829 793 807 q 677 871 730 854 q 561 888 624 888 q 297 779 392 888 q 201 496 201 670 q 249 258 201 360 q 353 117 289 175 q 480 34 416 58 q 604 9 543 9 q 761 41 699 9 q 857 143 823 75 q 876 179 871 172 q 889 187 882 187 q 896 178 894 187 q 897 161 899 170 l 890 66 q 879 46 890 58 q 854 28 867 34 q 576 -28 739 -28 q 353 14 462 -28 q 172 139 245 55 q 91 280 119 200 q 64 441 64 361 q 112 653 64 555 q 261 821 160 751 q 593 920 404 920 m 583 1128 q 621 1100 593 1128 q 673 1045 632 1087 q 736 981 714 1004 q 743 970 742 975 q 740 963 743 965 q 733 961 737 961 q 710 970 728 961 q 589 1040 656 998 q 581 1043 587 1042 q 574 1043 576 1044 q 452 978 505 1002 q 422 968 427 968 q 418 979 414 968 q 425 987 420 985 q 486 1046 435 998 q 550 1107 537 1094 q 583 1128 571 1128 z "},"":{"ha":555,"x_min":49,"x_max":538,"o":"m 359 561 q 446 551 406 561 q 503 528 486 541 q 517 496 517 513 q 507 460 517 482 q 488 439 497 439 q 450 464 479 439 q 385 511 416 494 q 311 528 353 528 q 244 504 278 528 q 187 452 210 481 q 150 302 150 402 q 164 223 150 264 q 204 143 178 181 q 274 80 230 105 q 374 56 319 56 q 432 62 406 56 q 476 80 458 68 q 505 100 495 92 q 526 122 514 109 q 534 123 530 125 q 538 117 538 120 q 514 69 538 93 q 424 4 478 28 q 307 -20 370 -20 q 122 60 198 -20 q 67 150 85 98 q 49 252 49 202 q 174 500 49 416 q 258 542 207 524 q 359 561 310 561 m 322 854 q 354 808 330 854 q 389 740 359 796 q 437 644 418 684 q 443 629 441 634 q 445 618 444 623 q 444 612 446 614 q 439 610 442 610 q 414 628 429 610 q 325 746 387 661 q 320 750 323 749 q 317 751 318 751 q 315 750 315 751 l 232 635 q 218 619 227 627 q 204 611 210 611 q 201 636 194 611 q 290 815 208 655 q 322 854 309 854 z "},"":{"ha":966,"x_min":64,"x_max":899,"o":"m 593 920 q 645 918 619 920 q 694 912 670 916 q 732 905 718 908 q 768 898 747 903 q 794 892 790 892 q 857 880 832 880 q 867 872 862 880 q 871 860 872 864 q 870 819 869 845 q 872 779 871 793 q 874 743 873 764 q 876 718 876 723 q 864 685 878 685 q 846 714 854 685 q 812 783 831 758 q 761 829 793 807 q 677 871 730 854 q 561 888 624 888 q 297 779 392 888 q 201 496 201 670 q 249 258 201 360 q 353 117 289 175 q 480 34 416 58 q 604 9 543 9 q 761 41 699 9 q 857 143 823 75 q 876 179 871 172 q 889 187 882 187 q 896 178 894 187 q 897 161 899 170 l 890 66 q 879 46 890 58 q 854 28 867 34 q 576 -28 739 -28 q 353 14 462 -28 q 172 139 245 55 q 91 280 119 200 q 64 441 64 361 q 112 653 64 555 q 261 821 160 751 q 593 920 404 920 m 566 1105 q 609 1088 591 1105 q 627 1047 627 1072 q 609 1003 627 1019 q 566 987 591 987 q 524 1004 541 987 q 507 1043 507 1021 q 526 1085 507 1065 q 566 1105 545 1105 z "},"":{"ha":555,"x_min":49,"x_max":538,"o":"m 359 561 q 446 551 406 561 q 503 528 486 541 q 517 496 517 513 q 507 460 517 482 q 488 439 497 439 q 450 464 479 439 q 385 511 416 494 q 311 528 353 528 q 244 504 278 528 q 187 452 210 481 q 150 302 150 402 q 164 223 150 264 q 204 143 178 181 q 274 80 230 105 q 374 56 319 56 q 432 62 406 56 q 476 80 458 68 q 505 100 495 92 q 526 122 514 109 q 534 123 530 125 q 538 117 538 120 q 514 69 538 93 q 424 4 478 28 q 307 -20 370 -20 q 122 60 198 -20 q 67 150 85 98 q 49 252 49 202 q 174 500 49 416 q 258 542 207 524 q 359 561 310 561 m 330 807 q 371 790 354 807 q 387 749 387 774 q 371 705 387 722 q 330 689 354 689 q 290 706 306 689 q 273 745 273 723 q 292 787 273 768 q 330 807 311 807 z "},"":{"ha":966,"x_min":64,"x_max":899,"o":"m 593 920 q 645 918 619 920 q 694 912 670 916 q 732 905 718 908 q 768 898 747 903 q 794 892 790 892 q 857 880 832 880 q 867 872 862 880 q 871 860 872 864 q 870 819 869 845 q 872 779 871 793 q 874 743 873 764 q 876 718 876 723 q 864 685 878 685 q 846 714 854 685 q 812 783 831 758 q 761 829 793 807 q 677 871 730 854 q 561 888 624 888 q 297 779 392 888 q 201 496 201 670 q 249 258 201 360 q 353 117 289 175 q 480 34 416 58 q 604 9 543 9 q 761 41 699 9 q 857 143 823 75 q 876 179 871 172 q 889 187 882 187 q 896 178 894 187 q 897 161 899 170 l 890 66 q 879 46 890 58 q 854 28 867 34 q 576 -28 739 -28 q 353 14 462 -28 q 172 139 245 55 q 91 280 119 200 q 64 441 64 361 q 112 653 64 555 q 261 821 160 751 q 593 920 404 920 m 564 962 q 526 987 557 962 q 470 1048 514 1001 q 411 1109 425 1095 q 405 1120 405 1116 q 407 1126 404 1124 q 414 1128 410 1128 q 439 1121 425 1128 q 559 1044 467 1106 q 569 1043 562 1043 q 578 1044 576 1043 q 615 1067 594 1055 q 663 1094 637 1080 q 694 1111 688 1107 q 725 1122 709 1122 q 728 1111 733 1122 q 722 1103 726 1105 l 597 982 q 564 962 575 962 z "},"":{"ha":555,"x_min":49,"x_max":538,"o":"m 359 561 q 446 551 406 561 q 503 528 486 541 q 517 496 517 513 q 507 460 517 482 q 488 439 497 439 q 450 464 479 439 q 385 511 416 494 q 311 528 353 528 q 244 504 278 528 q 187 452 210 481 q 150 302 150 402 q 164 223 150 264 q 204 143 178 181 q 274 80 230 105 q 374 56 319 56 q 432 62 406 56 q 476 80 458 68 q 505 100 495 92 q 526 122 514 109 q 534 123 530 125 q 538 117 538 120 q 514 69 538 93 q 424 4 478 28 q 307 -20 370 -20 q 122 60 198 -20 q 67 150 85 98 q 49 252 49 202 q 174 500 49 416 q 258 542 207 524 q 359 561 310 561 m 329 610 q 297 654 321 610 q 263 720 293 663 q 214 819 233 777 q 215 854 201 854 q 241 836 223 854 q 288 771 254 821 q 326 715 322 722 q 331 711 328 712 q 334 709 333 709 q 336 710 336 709 q 414 828 378 778 q 443 851 429 851 q 451 845 448 851 q 450 828 453 838 q 361 648 441 802 q 329 610 342 610 z "},"":{"ha":1033,"x_min":22,"x_max":971,"o":"m 444 905 q 629 886 544 905 q 789 817 714 867 q 921 668 870 762 q 971 465 971 574 q 944 307 971 382 q 871 176 918 232 q 765 78 825 119 q 636 14 705 37 q 424 -16 549 -16 q 294 -8 381 -16 q 167 0 206 0 q 104 -1 141 0 q 57 -3 67 -3 q 22 12 22 -3 q 54 29 22 23 q 131 57 112 40 q 150 126 149 73 q 151 452 151 215 q 144 786 151 692 q 128 838 142 822 q 77 861 114 853 q 43 878 43 868 q 77 893 43 893 l 171 893 q 295 899 203 893 q 444 905 386 905 m 422 876 q 354 872 386 876 q 309 863 323 867 q 290 856 294 859 q 281 849 284 852 q 275 833 279 846 q 269 799 271 820 q 265 587 265 695 l 265 411 q 281 119 265 205 q 294 77 287 92 q 321 52 302 62 q 460 12 397 12 q 545 23 498 12 q 627 52 591 34 q 782 201 729 98 q 835 447 835 304 q 807 590 835 503 q 724 739 779 677 q 590 842 662 808 q 422 876 518 876 m 446 962 q 408 987 439 962 q 352 1048 396 1001 q 293 1109 307 1095 q 287 1120 287 1116 q 289 1126 286 1124 q 296 1128 292 1128 q 321 1121 307 1128 q 441 1044 349 1106 q 451 1043 444 1043 q 460 1044 458 1043 q 497 1067 476 1055 q 545 1094 519 1080 q 576 1111 570 1107 q 607 1122 591 1122 q 610 1111 615 1122 q 604 1103 608 1105 l 479 982 q 446 962 457 962 z "},"":{"ha":677,"x_min":49,"x_max":715,"o":"m 382 555 q 465 545 435 555 q 471 546 468 544 q 473 551 473 548 q 469 836 473 694 q 468 858 469 852 q 466 873 468 863 q 458 890 463 884 q 444 906 453 897 q 421 926 435 916 q 412 940 412 935 q 432 956 412 950 q 538 985 471 964 q 567 991 553 991 q 575 961 575 991 q 570 419 570 774 q 571 97 570 281 q 577 51 571 62 q 595 40 583 40 q 672 53 631 40 q 679 50 675 53 q 682 43 682 47 q 678 25 682 37 q 668 12 673 13 q 532 -14 556 -8 q 512 -18 525 -15 q 492 -23 500 -21 q 481 -25 484 -25 q 471 -19 475 -25 q 467 -9 467 -13 q 468 45 468 1 q 465 53 468 50 q 458 54 461 57 q 372 4 418 21 q 286 -14 326 -14 q 159 24 214 -14 q 77 121 104 62 q 49 249 49 180 q 212 515 49 431 q 382 555 290 555 m 315 517 q 241 494 278 517 q 179 415 202 469 q 155 296 155 361 q 212 121 155 195 q 359 47 268 47 q 447 74 408 47 q 460 92 453 79 q 468 118 467 104 q 467 396 473 267 q 461 421 467 402 q 449 449 455 441 q 315 517 392 517 m 701 996 q 711 958 715 996 q 692 853 709 929 q 660 737 674 777 q 636 704 646 704 q 629 711 632 704 q 627 726 627 718 l 635 935 q 640 953 633 945 q 671 980 650 964 q 701 996 693 996 z "},"":{"ha":1033,"x_min":24,"x_max":971,"o":"m 43 878 q 77 893 43 893 l 171 893 q 295 899 203 893 q 444 905 386 905 q 629 886 544 905 q 789 817 714 867 q 921 668 870 762 q 971 465 971 574 q 944 307 971 382 q 871 176 918 232 q 765 78 825 119 q 636 14 705 37 q 424 -16 549 -16 q 293 -8 380 -16 q 168 0 206 0 q 105 -1 142 0 q 58 -3 68 -3 q 24 12 24 -3 q 31 22 24 19 q 54 29 37 26 q 131 57 112 40 q 150 126 149 73 q 151 427 151 211 q 148 439 151 433 q 142 444 145 444 l 47 446 q 40 450 44 446 q 36 457 36 454 q 43 482 36 471 q 53 488 48 488 l 142 490 q 151 503 151 490 q 144 786 151 703 q 129 838 142 822 q 77 861 115 853 q 43 878 43 868 m 835 447 q 807 590 835 503 q 724 739 779 677 q 590 842 662 808 q 422 876 518 876 q 354 872 386 876 q 309 863 323 867 q 290 856 295 859 q 281 849 284 852 q 275 833 279 846 q 269 799 271 820 q 267 587 267 730 l 267 501 q 277 489 267 489 l 517 489 q 526 479 526 489 q 518 452 526 463 q 500 447 513 447 l 272 444 q 270 443 271 444 q 268 437 269 441 q 267 429 267 433 q 282 119 267 205 q 294 77 287 92 q 321 52 302 62 q 460 12 397 12 q 627 52 548 12 q 782 201 729 98 q 835 447 835 304 z "},"":{"ha":677,"x_min":49,"x_max":682,"o":"m 315 517 q 241 494 278 517 q 179 415 202 469 q 155 296 155 361 q 212 121 155 195 q 359 47 268 47 q 447 79 404 47 q 460 97 453 84 q 468 123 467 110 q 465 396 473 255 q 459 421 465 401 q 447 449 453 441 q 315 517 390 517 m 382 555 q 465 545 435 555 q 471 546 468 544 q 473 551 473 548 q 472 708 473 661 q 465 720 472 720 l 334 721 q 329 723 331 721 q 326 726 326 725 q 332 754 326 749 q 343 758 340 758 l 465 760 q 470 763 467 760 q 472 770 472 766 q 471 835 472 819 q 467 867 469 859 q 455 890 465 876 q 422 924 446 904 q 414 940 414 935 q 433 956 414 950 q 474 965 454 960 q 512 978 493 971 q 532 985 530 984 q 561 991 547 991 q 570 961 570 991 q 568 770 570 850 q 576 760 568 760 q 654 758 604 760 q 660 750 660 758 q 656 728 660 734 q 648 721 651 721 q 605 720 629 721 q 576 720 581 720 q 568 710 568 720 l 568 419 q 569 272 568 368 q 571 97 570 177 q 577 51 571 62 q 595 40 583 40 q 672 53 631 40 q 679 50 675 53 q 682 43 682 47 q 678 25 682 37 q 668 12 673 13 q 532 -14 556 -8 q 512 -18 525 -15 q 492 -23 500 -21 q 481 -25 484 -25 q 471 -19 475 -25 q 467 -9 467 -13 q 468 49 468 1 q 465 57 468 54 q 458 58 463 60 q 286 -14 342 -14 q 159 24 214 -14 q 77 121 104 62 q 49 249 49 180 q 212 515 49 431 q 382 555 290 555 z "},"":{"ha":777,"x_min":0,"x_max":757,"o":"m 31 886 q 69 897 31 897 q 135 895 79 897 q 221 893 191 893 l 387 893 q 492 895 446 893 q 556 899 538 897 q 603 905 573 901 q 635 909 633 909 q 645 902 639 909 q 652 889 652 894 q 659 829 652 888 q 665 749 665 770 q 659 733 665 741 q 648 725 653 725 q 624 775 638 725 q 591 828 614 812 q 524 848 568 844 q 294 852 475 852 q 278 827 283 852 q 272 514 272 795 q 276 497 272 505 q 283 490 279 490 l 359 490 q 461 496 429 490 q 509 519 493 503 q 534 572 525 536 q 542 592 536 583 q 553 602 548 602 q 567 568 569 602 q 564 465 564 492 q 570 346 564 412 q 566 325 570 332 q 557 318 562 318 q 534 353 543 318 q 511 411 526 391 q 458 435 495 431 q 296 441 382 441 q 277 435 283 441 q 272 421 272 428 l 272 163 q 276 108 272 125 q 289 82 279 92 q 310 62 306 66 q 330 53 314 59 q 367 46 347 47 q 431 46 387 46 q 502 46 478 46 q 554 47 526 47 q 595 51 583 48 q 623 57 608 54 q 646 68 638 61 q 662 82 654 75 q 679 103 670 90 q 720 167 705 136 q 746 199 735 199 q 754 189 751 199 q 757 172 757 180 q 739 100 757 163 q 715 20 721 37 q 682 -8 706 -10 q 193 0 574 0 q 99 -5 155 0 q 29 -11 44 -11 q 0 3 0 -11 q 35 21 0 14 q 120 56 96 33 q 151 140 144 78 q 158 475 158 197 q 155 770 158 721 q 153 794 155 783 q 149 813 151 805 q 141 828 146 821 q 133 840 136 836 q 121 849 130 844 q 110 855 113 853 q 95 860 106 857 q 79 864 83 863 q 61 868 75 865 q 31 886 31 875 m 257 1054 l 526 1057 q 531 1052 528 1057 q 534 1040 534 1046 q 528 1003 534 1023 q 513 994 526 994 l 250 989 q 243 993 246 989 q 240 1002 240 998 q 248 1047 240 1036 q 257 1054 254 1054 z "},"":{"ha":524,"x_min":49,"x_max":505,"o":"m 193 528 q 315 558 239 558 q 439 513 391 558 q 486 397 486 467 q 474 378 486 386 q 444 372 462 371 q 160 372 233 381 q 143 353 149 370 q 139 296 139 345 q 165 189 139 242 q 241 97 191 135 q 350 60 291 60 q 433 78 404 60 q 488 132 462 96 q 499 139 494 140 q 505 125 505 138 q 486 86 505 109 q 393 8 447 36 q 286 -20 338 -20 q 158 19 213 -20 q 76 120 102 58 q 49 254 49 181 q 61 353 49 306 q 106 448 73 399 q 193 528 140 496 m 298 534 q 212 500 254 534 q 151 408 171 465 q 153 402 151 406 q 158 399 155 399 q 258 400 191 399 q 339 401 326 401 q 377 414 366 405 q 387 446 388 422 q 356 508 387 481 q 298 534 326 534 m 178 753 l 425 755 q 432 750 429 755 q 435 739 435 745 q 427 701 435 726 q 411 693 425 693 l 171 688 q 164 692 167 688 q 161 700 161 696 q 168 746 161 734 q 178 753 175 753 z "},"":{"ha":777,"x_min":0,"x_max":757,"o":"m 31 886 q 69 897 31 897 q 135 895 79 897 q 221 893 191 893 l 387 893 q 492 895 446 893 q 556 899 538 897 q 603 905 573 901 q 635 909 633 909 q 645 902 639 909 q 652 889 652 894 q 659 829 652 888 q 665 749 665 770 q 659 733 665 741 q 648 725 653 725 q 624 775 638 725 q 591 828 614 812 q 524 848 568 844 q 294 852 475 852 q 278 827 283 852 q 272 514 272 795 q 276 497 272 505 q 283 490 279 490 l 359 490 q 461 496 429 490 q 509 519 493 503 q 534 572 525 536 q 542 592 536 583 q 553 602 548 602 q 567 568 569 602 q 564 465 564 492 q 570 346 564 412 q 566 325 570 332 q 557 318 562 318 q 534 353 543 318 q 511 411 526 391 q 458 435 495 431 q 296 441 382 441 q 277 435 283 441 q 272 421 272 428 l 272 163 q 276 108 272 125 q 289 82 279 92 q 310 62 306 66 q 330 53 314 59 q 367 46 347 47 q 431 46 387 46 q 502 46 478 46 q 554 47 526 47 q 595 51 583 48 q 623 57 608 54 q 646 68 638 61 q 662 82 654 75 q 679 103 670 90 q 720 167 705 136 q 746 199 735 199 q 754 189 751 199 q 757 172 757 180 q 739 100 757 163 q 715 20 721 37 q 682 -8 706 -10 q 193 0 574 0 q 99 -5 155 0 q 29 -11 44 -11 q 0 3 0 -11 q 35 21 0 14 q 120 56 96 33 q 151 140 144 78 q 158 475 158 197 q 155 770 158 721 q 153 794 155 783 q 149 813 151 805 q 141 828 146 821 q 133 840 136 836 q 121 849 130 844 q 110 855 113 853 q 95 860 106 857 q 79 864 83 863 q 61 868 75 865 q 31 886 31 875 m 378 961 q 279 994 319 961 q 233 1088 238 1027 q 235 1104 232 1097 q 244 1111 238 1111 q 248 1111 246 1111 q 250 1109 249 1110 q 253 1106 252 1107 q 255 1103 254 1105 q 257 1099 256 1101 q 259 1095 258 1098 q 261 1090 260 1092 q 385 1029 298 1029 q 460 1041 431 1029 q 509 1086 489 1053 q 526 1107 519 1107 q 534 1086 534 1107 q 524 1051 532 1070 q 498 1011 515 1032 q 450 975 481 989 q 378 961 418 961 z "},"":{"ha":524,"x_min":49,"x_max":505,"o":"m 193 528 q 315 558 239 558 q 439 513 391 558 q 486 397 486 467 q 474 378 486 386 q 444 372 462 371 q 160 372 233 381 q 143 353 149 370 q 139 296 139 345 q 165 189 139 242 q 241 97 191 135 q 350 60 291 60 q 433 78 404 60 q 488 132 462 96 q 499 139 494 140 q 505 125 505 138 q 486 86 505 109 q 393 8 447 36 q 286 -20 338 -20 q 158 19 213 -20 q 76 120 102 58 q 49 254 49 181 q 61 353 49 306 q 106 448 73 399 q 193 528 140 496 m 298 534 q 212 500 254 534 q 151 408 171 465 q 153 402 151 406 q 158 399 155 399 q 258 400 191 399 q 339 401 326 401 q 377 414 366 405 q 387 446 388 422 q 356 508 387 481 q 298 534 326 534 m 281 656 q 199 690 233 656 q 160 783 165 724 q 172 822 157 822 q 186 806 180 822 q 221 749 194 770 q 286 728 248 728 q 393 803 368 728 q 407 818 397 818 q 415 810 412 818 q 415 791 417 803 q 406 753 412 772 q 385 709 399 733 q 344 671 371 686 q 281 656 317 656 z "},"":{"ha":777,"x_min":0,"x_max":757,"o":"m 31 886 q 69 897 31 897 q 135 895 79 897 q 221 893 191 893 l 387 893 q 492 895 446 893 q 556 899 538 897 q 603 905 573 901 q 635 909 633 909 q 645 902 639 909 q 652 889 652 894 q 659 829 652 888 q 665 749 665 770 q 659 733 665 741 q 648 725 653 725 q 624 775 638 725 q 591 828 614 812 q 524 848 568 844 q 294 852 475 852 q 278 827 283 852 q 272 514 272 795 q 276 497 272 505 q 283 490 279 490 l 359 490 q 461 496 429 490 q 509 519 493 503 q 534 572 525 536 q 542 592 536 583 q 553 602 548 602 q 567 568 569 602 q 564 465 564 492 q 570 346 564 412 q 566 325 570 332 q 557 318 562 318 q 534 353 543 318 q 511 411 526 391 q 458 435 495 431 q 296 441 382 441 q 277 435 283 441 q 272 421 272 428 l 272 163 q 276 108 272 125 q 289 82 279 92 q 310 62 306 66 q 330 53 314 59 q 367 46 347 47 q 431 46 387 46 q 502 46 478 46 q 554 47 526 47 q 595 51 583 48 q 623 57 608 54 q 646 68 638 61 q 662 82 654 75 q 679 103 670 90 q 720 167 705 136 q 746 199 735 199 q 754 189 751 199 q 757 172 757 180 q 739 100 757 163 q 715 20 721 37 q 682 -8 706 -10 q 193 0 574 0 q 99 -5 155 0 q 29 -11 44 -11 q 0 3 0 -11 q 35 21 0 14 q 120 56 96 33 q 151 140 144 78 q 158 475 158 197 q 155 770 158 721 q 153 794 155 783 q 149 813 151 805 q 141 828 146 821 q 133 840 136 836 q 121 849 130 844 q 110 855 113 853 q 95 860 106 857 q 79 864 83 863 q 61 868 75 865 q 31 886 31 875 m 383 1084 q 426 1067 408 1084 q 444 1026 444 1050 q 427 982 444 998 q 383 966 409 966 q 341 983 358 966 q 325 1022 325 1000 q 344 1064 325 1044 q 383 1084 363 1084 z "}}}
